<svg xmlns="http://www.w3.org/2000/svg" viewBox="0 0 1708.55 1057.32"><defs><style>.cls-1{fill:#7a7a7a;}.cls-1,.cls-2{fill-rule:evenodd;}</style></defs><g id="Layer_2" data-name="Layer 2"><g id="Layer_1-2" data-name="Layer 1"><g id="composition-23"><g id="Illustrations_reading-side" data-name="Illustrations/reading-side"><path id="Accent" class="cls-1" d="M1260.35,853.12c-8.1,9.36-20,16.31-29.22,24.86-9.63,9-20.09,16.85-29.68,25.73C1159.14,852,1101.17,820.29,1051,777.38c-23.8-20.34-41.34-47.94-54.18-76.26a256.71,256.71,0,0,1-15.25-44.92c-1.71-7-3.39-13.91-4.51-21-1.35-8.55-1.7-9.28-7.47-16-2.49-2.87-7.3-11.26-12.16-10.34-4.1.78-11.59,13.24-14.18,16.32-12.44,14.81-24.5,30.06-37.6,44.29-20.05,21.78-38.3,43.21-56.9,66.29-38.07,47.22-79.14,91.67-120.58,136.1-3.07,3.29-10.24,13-14.65,14.25-5.37,1.58-14.1-5-19.5-8.68-13.05-8.89-23.34-19.88-34.5-30.89C637.7,825.12,623,795,613,766.27c-5.93-17.18-9.79-35-15.92-52.1-2.55-7.14-8.34-15.9-5.4-22.12.87-1.85,6.44-6.77,8.4-7.15,2.33-.44,6.2,2.74,7,2.52,7.7-2.11,3.43-10.17,8-14.51,2.6-2.46,15.81-2.1,19.76-3.46,14.43-5,27.37-14.38,41-20,57.1-23.58,114.89-46.53,164.18-85,12.79-10,21.28-17.49,36.54-23.95s30.91-12.34,46.63-18a434.39,434.39,0,0,1,42.17-13.34c15.5-3.89,37.49-8.82,53-3.81,30.41,9.85,40.23,34.9,52.35,61.33,16.38,35.77,36.2,69.61,57.68,102.52,41.32,63.34,91.58,120.17,131.91,184"/><g id="ink"><path id="ink-layer" class="cls-2" d="M344.35,293.23c-1.67-.85-14.74,4.47-16.94,5.28-8.76,3.25-17,8.65-25.26,13l19,23.1c6.2-15.21,14.16-27.76,23.22-41.42Zm4.31,94.61c-2.15.24,16,43.9,18.14,48.8,7.72,17.83,15.83,35.48,23.66,53.27,7.58,17.23,17.19,33.08,26.88,49.18,8.29,13.77,16.81,35.14,29.31,45.34-7.9-35-6.86-75.26-29.49-104.65-23.47-30.47-46.67-60.22-68.5-91.94Zm911.69,466.83c-35.07-55.51-79-104.62-115.53-159.15-20.47-30.53-40.4-61.45-57.63-93.94-12.53-23.64-20.33-57.37-39.69-75.44-8.53-8-17.64-15.76-29.09-19.33-15.67-4.88-37.24,0-53,3.82-29.33,7.19-58,18.35-85.76,30.08C851.49,552.6,827.45,574,802,591.13c-27.31,18.42-56.87,31.83-87.47,43.57-26.64,10.23-50.35,24.91-76.85,35.2-5.28,2.05-16.06,1.75-20.49,4.42-4.77,2.88-2.89,11.39-8.69,14.52-2.61,1.42-3.48-3.71-5.49-3.63-2.45.1-4.69,3-7.06,4.81-9.63,7.43-3.73,12.38.08,22.61,12.44,33.31,19.12,67.2,36.57,98.65a201.78,201.78,0,0,0,59.07,66.12c3.68,2.6,15.67,12.69,20,12,3.88-.6,11.79-10.93,14.48-13.74,12.17-12.73,23.3-26.42,35.47-39.17,18.81-19.71,36.91-40,55.16-59.92,21.18-23.19,39.93-49.47,59-74.24,8.78-11.4,20.08-20.69,29.84-31.25,13.12-14.22,25.16-29.49,37.61-44.29,3.76-4.48,10.07-15.94,15.92-15.81,4.1.1,11.33,9.75,13.47,12.77,8,11.25,7.94,31.55,11.9,45.58,9.67,34.23,27.12,67.65,51,94.06s54.25,44.93,82.39,66c30.48,22.87,59.35,46.27,83.52,75.81,9.59-8.88,20-16.74,29.68-25.72,9.17-8.56,21.12-15.51,29.22-24.87ZM809,1011.73c6.82.07,18.36,4.26,24.46,1.74-18.09-20-34.7-37.18-57.59-51.85-23.75-15.21-47.42-30.3-70.48-46.53-46.49-32.71-80.68-71.51-100.1-126-5-14-8.35-28.75-12-43.17-2-7.76-5.9-44.1-12.56-47.24-4-1.86-33.66,19-38.37,21.62-11,6.09-22.05,10.81-33.43,15.57-24.46,10.24-49.68,18.05-75.61,24.57-31.1,7.82-52.28-5.12-71.55-29.55-21.85-27.73-40-59-60-88.12a272.62,272.62,0,0,1-23.32-41.07c-4.39-9.56-21.81-35.34-15.79-45.52,17.17,13.07,23.35,39.06,35,56.56,14.58,21.82,31,42.38,45.67,64.18,12.32,18.32,24.9,40.53,43.1,53.7,16,11.59,31.23,8,48.47,2.82,20.89-6.31,42.54-9.42,63-17.25,22.16-8.47,43.12-20.48,64.73-30.28,10.08-4.57,22.14-7.16,31.64-12.86,8.18-4.91,7-7.5,7.56-17.94.71-12.19,1.51-24.39,2-36.59.36-8.2-4.07-19.31-1.06-25.43-24.54,4.26-48.52,9.95-72.89,15-13.34,2.76-26.21,6.17-39.68,8.34-5.14.83-12.16.8-16.76,3-3.67-1.05-5.55-.38-5.62,2a24.11,24.11,0,0,1-.83,3.84c-7.53,3.42-11.9-3.92-18.43-11-8-8.69-14.08-18.48-20-28.69-13.21-22.83-28.44-44.3-40.66-67.77-12.46-23.93-22.58-49.55-33.15-74.37-9.69-22.78-15.89-47.41-26.6-69.65-4.78-9.92-10.84-18.13-17.91-26.51-5.84-6.92-14.82-21.85-23.53-25-2.31-.84-8.34.57-11,.39-5.22-.38-9.87-2.29-15.21-1.87-11.56.9-24.17,8.21-33.41,14.64,6,5.32,20.91,11.79,10.18,21.37-10.41,9.31-16.16-7.38-20.13-14.7-18.71,15.36-16,36.54-18.17,58.25-1.13,11.33-4.1,22.48-6,33.64-1.38,8-.41,16.34-.81,24.55-1,20.83-3.1,40.78-3,61.33.11,22,1.61,43.17,3.37,65,3,36.71,9.73,73.43,15.55,109.85,3.27,20.47,7.74,40.35,12.09,60.49,4.93,22.86,14,44.51,19.17,67.3,5.21-6.62,9.13-6.65,17.56-5.78,6.49.68,10.85-.86,10.47,8.14-.25,5.83-5.4,10.29-11.1,11.31-7.43,1.33-9.95-2.38-13.78-8-.9,10.66,6.27,21.8,9.1,32.21,2.69,9.86,4.46,19.53,9,29,4.4,9.21,8.17,18.29,12.62,27.42,2.05,4.19,4,8.45,6,12.64,1,2.12,2.28,5,3.85,6.83,3.67,4.18,3.08,2.15,7.38,4.54,9.36,5.2,5.84,3.9,6.06,14.63s5.64,18.37,14.35,24.32c18.47,12.63,36.7,16.14,57.7,22.52,19.57,5.94,40.18,11,60.9,10.93,25.38-.14,50.42-3.47,75.8-3.81,28-.37,56.26-.22,84.2.75,11.51.4,22.2.91,33.31,3.85,12.91,3.41,25.39,2.06,38.69,1.54,28.38-1.1,57.73-3.3,85.73-3.49,20.17-.15,41.44-1.55,61.68-.34Zm735.77,11c5,2.66,16.35,1.57,21.42.83,8.94-1.3,9.89-4.84,15.56-12.81,9.76-13.71,17.68-26.85,23.42-42.73,11-30.41,15.47-61.52,20.29-93.32,5.36-35.35-4.43-72-7.93-107.08-.81-8.06-1.91-16-3.18-24-.76-4.78-1-21-4.1-25.17-6-7.95-34.14-1.54-45.19-.82-30.84,2-61.88,2.49-92.7,2.84-16.43.18-33,.87-49.23,1a210.66,210.66,0,0,1-22.28-1c-2.51-.24-5-.82-7.48-1-8.66-.48-8-1.73-10.24,5.93-3.92,13.42-.91,30.49-1.93,44.42-1.38,18.61-2.12,37.49-1.78,56.14.31,17.23-.28,34.43.37,51.7a81.85,81.85,0,0,0,2.93,19.82c2.14,7.72,4.49,25.77,9.8,31.11.61.61,5.12-.81,6.32.71,1.85,2.33,1.51,7.27,2.78,8.78,4.1,4.89,12.59,5.27,18.75,7.47a399.07,399.07,0,0,1,48.3,20.68c14.22,7.25,37.15,13.43,45.7,27.74,3.92,6.56,4.45,15.21,8.06,22,4.1,7.71-4.11,3.68,6,6.81,4.53,1.41,11.75,0,16.39,0ZM45.31,935.51C44,953.32,34,970.28,30.51,987.79c-1.64,8.2-4.41,16.26-6.33,24.41-1.84,7.82-8.5,17.08-7.83,24.81,24.57-8.75,49.45-11,75.12-13.31,24.34-2.23,50-3.13,74.17-3.14,24.59,0,50.88-2.41,76.2-2.78,26.48-.39,53.35-1.08,79.44-3.82-13.64-10.1-30.71-19.59-40.79-33.65-10.95-15.28-16.64-34.43-26.27-50.55-19.34-32.36-31.64-72.52-41.78-108.87C192,747.5,169.11,675.46,163.59,599.34c-10.49,5.37-18.81,26.21-24.07,36.59-6.7,13.25-10.21,27.61-14.57,41.69-9,29-15.18,59.08-26.17,87.81-21,54.92-34.5,114.09-53.47,170.08ZM1378.75,507.78c4.55,32.82,14.07,66.07,14.44,99.29.08,7.31-1.16,15.42.36,22.63,1.63,7.69,6.92,14.49,10,21.8,4.85,11.61,17.13,35.4,5.28,45.23-.24-9.33-8.78-21.18-13.08-29.34-6.49-12.3-15-23.54-22-35.53-14.71-25.1-31.2-49.66-50.17-71.79-18.47-21.55-39.76-40.67-59.35-61.2-5.88-6.16-53.09-65.52-55-64.69,14.64,56.47,39.54,105.59,73.61,152.87,16.7,23.17,36.75,38.42,57.08,58.06,16.93,16.35,48.85,33.83,43,60.62,26.47-2.54,52.77-6.61,79.48-6.61-4.4-33.8-7.76-67.06-15.6-100.31-8.9-37.74-14.93-76.62-22.47-114.7-7.68-38.88-20.72-76.52-28.84-115.33-7.77-37.16-14.44-74.25-20.13-111.82-4.71,20.81-3,43.68-4.64,64.92-1.71,21.71-1.54,43-1,64.84,1.06,40.55,5.38,80.6,9,121.06Zm114.7-193.32c.15-17.36,3.51-34.48,4.55-51.79.32-5.31,5.61-41.56.68-43.45-4.06,8.85-5,20.17-8.69,29.45s-8.61,18.11-12.15,27.45c-7.65,20.23-10.29,43.12-11.12,64.62-1.86,48.65-2.83,97.19.44,145.84,1.4,20.85,2.48,41.74,2.1,62.63-.42,23-4,42.94.33,65.74a551.25,551.25,0,0,1,8.3,68c1,16.08,1.39,15,16.73,13.81,11.08-.81,22.26.06,33.36-.45-5.19-62.66-6-125.46-14.32-187.88-4.23-31.85-4.34-64.16-9.59-95.88-2.61-15.77-7-31.21-9.51-47-2.7-16.94-1.37-34-1.11-51.07ZM371.47,275c29.54,2.56,61,11.39,91.23,5.56-5-2-18.05-4.81-12.17-12.78,6-8.12,16.05,2.17,22,1.11,3.67-.66,11.79-16,14.06-19.2,5.14-7.22,5.76-8.48,15-10.34,8.95-1.79,11,.15,12.12-8.75,1.3-10.24-2.24-21.75-1.89-32.22.75-22.53,8-42.3,14.79-63.5-28.75,6.25-56.87,13.67-86.27,17.7-12.57,1.73-32.13,5.7-43.55-2.84-3-2.22-2.49-5.22-4.92-7.8-4.08-4.32-11.63-8.79-17.41-10-35.57-7.57-39,43.13-21.22,62.09,4.47,4.76,10.68,7.1,15.25,11.46,6.1,5.81,6.6,11.93,7.49,20.79,1.67,16.63-.6,33.32-7.69,48.53ZM803.06,514.34c10.5,2,21.46,1.53,32,3.23,3.74.61,15,2.71,18.24.53,5-3.34,6.8-15.58,9.18-21.28,4.17-10,10.08-18.78,14.06-29C892.8,426.12,908,384.25,927.66,344c-7.55-2-13.34-2-20.94-3.05-7.92-1.05-15.1-5.74-22.65-7.75-7.18-1.91-14.7-1.42-21.82-3.65-3.92-1.22-7.28-3.94-11.15-4.89-6.15-1.52-13.34-2.4-17,1.64S829,341.78,827,347.14c-5.44,14.27-11.76,28-16.32,42.63-4.11,13.16-8,26.19-11.64,39.47-3.82,14-11.36,25.58-15.95,39-3.49,10.19-6.79,20.62-7.31,31.49-.5,10.61-2,11.28,8.56,13,5.36.85,13.7,4,18.74,1.65Zm690.8,496.5a7.45,7.45,0,0,0,7.73-.51c-23.71-10-46.77-23.9-71.5-30.77-23.2-6.44-45.75-14.14-68.1-22.07-18.17-6.45-34.49-11.47-50.91-22.81-10-6.89-18.83-14.63-25.67-24.7-7.63-11.2-9.33-27.15-17.58-37.24-11.15,12.24-24.24,21.51-37.43,31.23-4.56,3.37-15.51,10.7-17.07,15.91-2,6.57,3.31,12.86,5.92,19.51,6.68,17,9.94,34,13.57,51.75,1.45,7.09,4.59,17.76,10.42,20.73,5.31,2.7,20.68.74,27.28.24,34.46-2.61,68.31-5.29,103-2.91,39.23,2.69,81.23,4.55,120.36,1.64Zm68.83-315.54c6.26,0,12.38-.76,18.62-.76-3.6-16.81,4.82-38.57,7.8-55.36,3.34-18.77,5.88-38.19,8.11-57.11a1028.53,1028.53,0,0,0,6.89-119.4c.05-38.85,7.13-74.36,17-111.71,10.64-40.12,28.06-76.2,42.47-114.88-15.8,8.35-24.55,27.9-32.86,42.84-10.49,18.89-17.48,39.81-21.77,61-8.27,40.92-17.34,82-26.88,122.8-9.94,42.54-15.78,85.46-27.17,127.64-5.55,20.58-13.1,45.89-13.51,67.1-.18,8.78-2.82,27.16,1.15,34.78,3.72,7.13,12,3.77,20.11,3ZM617.32,642.53a123,123,0,0,1-1.42,12.84c8.68-.09,19.66-9.09,27.1-13.13,9.07-4.92,18.14-10.35,27-15.29,17.11-9.56,36.54-15.85,54.81-23.7,21-9,40.29-19.91,60.36-30.76,7-3.79,57.41-25.63,56.56-31.6l-33.19-1.1c-9.48-.32-24.18,1.83-33.26-1.11-5-1.6-10.56-7.52-12.44-12.15s2.32-25.66-.11-27C750.36,512.17,742.57,529,731.5,542.6c-12.23,15.07-28,23.88-45.46,31.88-19.24,8.85-39.16,15.7-58.82,23.28-8.29,3.2-8.13,5-8.85,14.12-.81,10.16-.72,20.46-1,30.65Zm999.84,382.27c20.85,2.24,42.23,1,63.25,2.71,7.65.63,18.25,1.58,10.56,11.84-4.85,6.46-20.37,4.39-27.41,4.84-18.91,1.2-38.92.55-57.87.27-4,0-8.4-1.24-12.43-1-4.65.3-10.22,3.65-14.47,3.63-2.61,0-3.55-2.78-5.8-3a132.54,132.54,0,0,0-14.78-.95c-74.88,0-148.74-1.49-223.44-1.57-35.72,0-72-.66-107.72-2.33-7.5-.36-50.2,1.18-49-12.32.61-7,14.55-7.93,19.63-8.67,3.77-.55,7.68-.46,11.46-.66,10-.54,14.42,1.87,12.31-9.1-8-41.63-22.41-76-53.14-106-25.13-24.48-55.39-46.67-83.85-67.11-34.55-24.82-62.59-50.91-83.1-88.88-12-22.18-22-44.85-28.17-69.36-2.21-8.82-2.27-18.86-5-27.36-2.09-6.55-6.85-11.13-9.65-17.91-34.38,57.42-79.95,105.45-121.73,157.22a617.16,617.16,0,0,1-66.6,69.74c-7.07,6.39-13.68,13-20.29,19.92-5.52,5.76-14.3,10.87-19,17.25-4.48,6.12-3.38,5.83,3.44,10.69,9,6.42,18.93,11.76,28.08,18,14.62,10,30.58,18.47,43.65,30.52,14.15,13,26.5,28.13,38.86,42.83,8.24,9.79,19,22.36,21.12,34.75.68,4.09,3.29,14.23-.15,17.23-2.94,2.56-2.64,1.59-6.29,0-4.78-2-6.19-6.76-12-9-14.94-5.73-33-3.76-48.57-3.83s-31.24,1.67-46.79,1.61c-35.5-.15-70.25,2.73-105.74,4.27-37.7,1.64-75.86-2.29-113.43-1.73-27.83.41-56.41-1.67-85-.13-14.71.8-29.16-1-43.51-1.25-18.78-.27-38.07,2.29-57,2.65-31.09.6-61.81.6-93.09,1.34-67.3,1.61-134.23,3.28-201.56,4.34-9,.14-18.81-.16-27.69.85-9.42,1.07-4.55,3.08-11,6.47C-3.89,1065.2.28,1030,.72,1023.1,3,986,12.46,949.65,23.77,914.45,34.51,881.06,43.22,846.11,52.31,812,62.26,774.67,75.23,738.87,87,701.9c12.07-37.88,21.89-77.23,43.8-110.81,5-7.65,10.15-15.88,18.18-20.7,9-5.4,9.38-2.25,9.37-12.14,0-9.32.57-21.76-1.63-30.65-2-8-1.68-3.27-6.15-9-3.64-4.69-7.45-7.9-10.07-13.6-16,16.27-52.78,7.69-68.29-4-19-14.34-33.43-38.53-38.73-61.57-4.25-18.51,1-53.78,21.45-62.67,10-4.34,46.66-7.62,48.13-21.76.75-7.29-12.16-17.55-15.13-23.83C82.41,319.48,77.11,304,75.57,291.27c-3-24.87,8.3-52.68,26.29-69.48,33-30.82,91.07-46.64,133.52-27.08-9-34.27-14.39-63.82-9.87-99.46,3.89-30.71,22-47.89,46.94-63.18C315,6,372.85-4.33,421.5,3.26c11.05,1.72,21.66,5.42,31.9,8.37,14.87,4.27,32.67,2.85,46.71,9.8C510.29,26.46,518,36.5,527,43.2,537.4,51,546.07,62.69,553.33,73.48c15.51,23.09,9.45,65.93-3.54,89.1A38.43,38.43,0,0,1,539,175.13c-4.8,3.53-12.11,4.62-14.58,9.2-6.33,11.73-.22,37.11.62,49.79,1,14.72-6.46,25.77-23.15,26.94-9.65.68-10-4.92-14.59,6.61-3,7.47-5.71,15.61-10,22.45-8.91,14.12-25.24,12.74-40.11,12.36-17.22-.45-34.18-3.17-51.41-4.88,4.55,14.57,17,25.88,24.78,38.87C421,354,427.34,368.59,429.05,389.05c1.31,15.72-1.52,28.13-12.28,39.83-4.45,4.85-8.4,5.08-7.3,10.67.68,3.41,6.57,9,8.66,11.75,5.51,7.19,11.92,13.8,16.78,21.48,18.68,29.57,24.2,74.64,24.25,109.06,0,1.58.84,4.93.15,6.57-.52,1.2-4.44,5-4.5,5.35-.76,4.42,3.55,12,10.32,12.76,7.12.79,20.14-5.15,26.76-7.1,10.58-3.12,21.38-5.42,31.94-8.63,17.06-5.17,34-9.3,51.39-13.36,7.84-1.83,15.72-3.36,23.58-5.07,9-2,13.12-5.72,17.74,3.39,4,7.82,1.5,9.24,11.11,5.3s18.86-8.77,28.17-13.18c16.43-7.79,36-14.74,50.16-26.24,23.63-19.19,32.38-49.74,55-70.1,6.3-5.67,10.06-5.77,14-13.62,4.27-8.41,6.46-19.19,8.7-28.23,3.93-15.83,6.72-31.71,10.28-47.53,4.44-19.71,14-37.55,21-56.35,2.73-7.32,4.14-16.63,8.53-23.21,1.17-1.74,3.39-2.73,4.3-4.17,3.13-5,3.1-6.32,3.91-12.28,3.79-27.87,20.43-13.21,38.61-6.82,7.66,2.69,44,20.16,30.14,31.77,16.56,4.8,43.08,2.19,42.86,25.92-.12,12.15-7.39,25.16-11.29,36.54-3.47,10.1-6.82,20.24-10.34,30.33-7.71,22.1-17.07,43.53-24.6,65.7-3.43,10.1-6.27,20.44-11,30-4.22,8.41-14.42,17.68-16.1,26.88,44.13-18.83,85-46,134.33-44.3,21.63.75,41.26,9.84,53.2,28.86,15,23.82,24.83,50.5,39.46,74.55,53.24,87.49,116.74,167,175.19,250.83,4.49,6.45,10.26,12.54,11.82,20.5,1,5.2-1,10.4.27,15.39,2.52,10.37,15.3,23.32,24,29.29,16.61,11.42,43.6,27.54,64.32,26.11-13-31.24-12.83-65.48-12.23-98.81.58-31.66,4-63.07,8.06-94.4.92-7.09,1.72-13.66,3.76-20.53,2.34-7.89,5.55-7.14-1.45-14.23-10.78-10.91-23.61-19.88-34.48-30.93-23.5-23.89-47.59-42.62-66.09-71.15-17.6-27.13-36.16-55.05-49.18-84.76-13.41-30.59-18.77-63.26-25.43-95.66-2.7-13.14-12.55-27.82-10.57-41.55,2.5-17.34,10.55-4.71,13.83,4.63,10,28.5,33.4,54,52.78,76.92,21,24.77,46.56,45.48,68.43,69.52,23.8,26.19,40.11,56.28,61.28,84.23,0-34.69-11.84-70-16.69-104.32-4.26-30.21-5.6-60.5-8.3-90.84-6.12-68.9-.83-139.83,7.76-208.25,4.08-32.49,1.77-64.21,1.89-96.81,0-10.38-4.25-34.29,1.22-43.5,10.48-17.63,16.6,20.93,17.13,26.68,3.17,34.25-2.51,68.12.39,102.22,3,35.61,9.62,70.22,15.23,105.42,6.07,38.12,16,75.37,25.42,112.76,9.94,39.25,18.3,79.32,29.35,118.25,3-12.24-1.2-27.27-2-39.74-1.18-17.84-3.48-35.68-3.68-53.56-.32-28.5-.54-57.54,1.07-85.91,1.59-28,1.11-57.26,9.69-84.21,4.07-12.78,10-25.26,15.88-37.3,7.21-14.86,9.76-29.26,13.75-45.06,3.42-13.52,8.42-26.7,10.7-40.5,1.42-8.58,5.37-33.91,15.2-14.72,5.7,11.14,3.24,27.66,3.39,39.63.21,15.34-2.14,30.26-2.5,45.54-.7,30-1.2,59.92-3.44,89.85-2.35,31.4-.3,59.54,5.68,90.47,6.53,33.87,8.45,67.81,11.84,102.09,1.74,17.7,4.69,35.3,6.11,53,.76,9.38-3.1,36.3,3.62,43,.65-16.25,5.31-32.53,8.84-48.37,4.19-18.77,5.88-38.5,9-57.53,5-30.84,14.69-60.3,21.1-90.79,13.22-62.87,24.2-143.66,79.58-184.81,7.25-5.38,15.21-9.36,23-13.79,4.43-2.51,11-9,16.1-10.13,5.54-1.23,7.85-.27,10.09,6.15,3.13,9-2.59,13.14-7.94,19.65-18.5,22.51-26.4,51.36-37.82,77.76-26.16,60.46-37.73,124.22-37.86,189.56-.07,34.21-2.43,67.21-6.08,101.21-3.93,36.59-9.1,75.29-20.22,110.49,11.16,2.5,23.25-1.23,26.28,11.73.75,3.19-.6,7,.22,11.09s2.73,8,3.86,12a171.55,171.55,0,0,1,4.74,24.69c4.42,32.52,12,63.44,12.82,96.41.75,30.47-5.22,61.35-10.72,91.24-5.54,30.1-21.42,55.76-33.93,83,5.38,0,10.76,0,16.15.11Z"/><path id="ink-layer-2" data-name="ink-layer" class="cls-2" d="M909.32,955.6c-5.93,1.68-34.57,4.84-34.56,13.82,0,5.39,28.6,5.29,33.66,5.87l.9-19.69m63.2,62c16.5,3.14,38.9-1.27,49.45-15.82,4.93-6.79,7.27-17.13,8.87-25.24,1.54-7.73,6.27-27,3.05-34.26-4-8.9-41.87.4-52.91,1.42a375.25,375.25,0,0,1-58.45.73c0,19.9-1,39.29,10.69,56.42,8.44,12.35,24.3,15.27,39.3,16.75m-3.31,24.58c-17.93-6.56-36.76-2.3-48.43-21.54a76.72,76.72,0,0,1-7.25-15.56,47,47,0,0,1-2-7.3q1.37-8-5.9-4.54c-9.5-1.85-19.92,4.68-29.93,2.75-24.28-4.66-19.87-39.43-3.57-51.47,3.21-2.37,6.43-3,10.11-4.21,8.13-2.59,12.52.3,19.95-.43,6-.6,7.65-6.89,14.1-9.66,4.23-1.81,10.09-1.68,14.53-1.86,23.24-1,46.55-.94,69.94-2.46,10.91-.7,22.68,1,33.37-.84,5-.87,4.28-4.2,9-1.28,4.91,3,2.79,14.21,2.54,18.66-1.43,25.79-3,53.45-16.78,76-12.64,20.63-37.52,22.74-59.66,23.75"/><path id="ink-layer-3" data-name="ink-layer" class="cls-2" d="M22.34,1049.27l17.28-.18-17.28.18"/><path id="ink-layer-4" data-name="ink-layer" class="cls-2" d="M1624.07,499.45l0-16.61q0,8.32,0,16.61"/><path id="ink-layer-5" data-name="ink-layer" class="cls-2" d="M156.74,522.2q0,8.1-.05,16.18,0-8.1.05-16.18"/><path id="ink-layer-6" data-name="ink-layer" class="cls-2" d="M636.22,1043.15l13.75,0-13.75,0"/><path id="ink-layer-7" data-name="ink-layer" class="cls-2" d="M357.57,1042.05l13.75,0-13.75,0"/><path id="ink-layer-8" data-name="ink-layer" class="cls-2" d="M1360.93,817.93c-.2,3.64-.41,7.28-.61,10.92.21-3.65.41-7.28.61-10.92"/><path id="ink-layer-9" data-name="ink-layer" class="cls-2" d="M1617.16,1024.8l-10.64-.11a13.06,13.06,0,0,1,10.64.11"/><path id="ink-layer-10" data-name="ink-layer" class="cls-2" d="M1302.29,1040.93l7.62-.12c-2.56,0-5.09.08-7.62.12"/><path id="ink-layer-11" data-name="ink-layer" class="cls-2" d="M1622.69,544.4c.07-2.75.13-5.51.19-8.25-.06,2.76-.12,5.5-.19,8.25"/><path id="ink-layer-12" data-name="ink-layer" class="cls-2" d="M1384.66,196.12l-.63-8.51.63,8.51"/><path id="ink-layer-13" data-name="ink-layer" class="cls-2" d="M1624,510.3c0-2.85.07-5.7.1-8.53,0,2.85-.07,5.69-.1,8.53"/><path id="ink-layer-14" data-name="ink-layer" class="cls-2" d="M823.49,1037.4l6.77.09-6.77-.09"/><path id="ink-layer-15" data-name="ink-layer" class="cls-2" d="M1406.44,1042l6.62.13-6.62-.13"/><path id="ink-layer-16" data-name="ink-layer" class="cls-2" d="M1645.41,841.89l-.48-7.48.48,7.48"/><path id="ink-layer-17" data-name="ink-layer" class="cls-2" d="M1605.69,1044.47l5.38,0-5.38,0"/><path id="ink-layer-18" data-name="ink-layer" class="cls-2" d="M1360.34,1042.15l5.33-.13-5.33.13"/><path id="ink-layer-19" data-name="ink-layer" class="cls-2" d="M959.49,1040.79l5.87,0-5.87,0"/><path id="ink-layer-20" data-name="ink-layer" class="cls-2" d="M506.82,1040.78l5.57,0-5.57,0"/><path id="ink-layer-21" data-name="ink-layer" class="cls-2" d="M396.7,1041.09l5.68-.32-5.68.32"/><path id="ink-layer-22" data-name="ink-layer" class="cls-2" d="M923.91,316.14l-8.5-.73c2.84.2,5.84-1.48,8.5.73"/><path id="ink-layer-23" data-name="ink-layer" class="cls-2" d="M1645.68,1025.88l-8.38-.85,8.38.85"/><path id="ink-layer-24" data-name="ink-layer" class="cls-2" d="M1450.94,333.33l-.57,7.33.57-7.33"/><path id="ink-layer-25" data-name="ink-layer" class="cls-2" d="M1624.65,435.3l.57-6.95-.57,6.95"/><path id="ink-layer-26" data-name="ink-layer" class="cls-2" d="M1449.82,371.27l-.6,7.31.6-7.31"/><path id="ink-layer-27" data-name="ink-layer" class="cls-2" d="M1623.47,528.89q0-3.54,0-7.07a6.24,6.24,0,0,1,0,7.07"/><path id="ink-layer-28" data-name="ink-layer" class="cls-2" d="M1361,867.75q0,3.56-.07,7.09c-1.56-2.39-1.25-4.74.07-7.09"/><path id="ink-layer-29" data-name="ink-layer" class="cls-2" d="M1538.92,594.13c-.27-2.4-.55-4.79-.82-7.18.27,2.4.55,4.79.82,7.18"/><path id="ink-layer-30" data-name="ink-layer" class="cls-2" d="M65.42,374.41c-1.85,2.45-4.37.77-6.57,1.07l6.57-1.07"/><path id="ink-layer-31" data-name="ink-layer" class="cls-2" d="M980.76,927.59h0"/><path id="ink-layer-32" data-name="ink-layer" class="cls-2" d="M1354.39,384.46q.31,3,.65,6c-.22-2-.44-4-.65-6"/><path id="ink-layer-33" data-name="ink-layer" class="cls-2" d="M198.64,187l-7,.14c2.33-1.37,4.67-1.77,7-.14"/><path id="ink-layer-34" data-name="ink-layer" class="cls-2" d="M1449.77,405.67q-.24,3.13-.46,6.25.23-3.14.46-6.25"/><path id="ink-layer-35" data-name="ink-layer" class="cls-2" d="M1385.29,149.67c.18-1.9.37-3.8.55-5.69q-.28,2.85-.55,5.69"/><path id="ink-layer-36" data-name="ink-layer" class="cls-2" d="M1366.82,143.72q-.28,3.09-.55,6.18.27-3.1.55-6.18"/><path id="ink-layer-37" data-name="ink-layer" class="cls-2" d="M345.57,6l-7.17.87L345.57,6"/><path id="ink-layer-38" data-name="ink-layer" class="cls-2" d="M172.78,188.59l-7.36.75,7.36-.75"/><path id="ink-layer-39" data-name="ink-layer" class="cls-2" d="M1518.09,194.63c.15-1.91.3-3.84.45-5.74l-.45,5.74"/><path id="ink-layer-40" data-name="ink-layer" class="cls-2" d="M92.2,511.32l4.22.06-4.22-.06"/><path id="ink-layer-41" data-name="ink-layer" class="cls-2" d="M1366.89,748.15q-.21,3.2-.43,6.37.22-3.18.43-6.37"/><path id="ink-layer-42" data-name="ink-layer" class="cls-2" d="M1511.12,334.63c-.06-2-.11-4.09-.17-6.13.06,2.05.11,4.09.17,6.13"/><path id="ink-layer-43" data-name="ink-layer" class="cls-2" d="M405.8,1.11h-6.54a5.37,5.37,0,0,1,6.54,0"/><path id="ink-layer-44" data-name="ink-layer" class="cls-2" d="M988,483.11l-7.16.18a6,6,0,0,1,7.16-.18"/><path id="ink-layer-45" data-name="ink-layer" class="cls-2" d="M1196.78,1037.31l4.23.1-4.23-.1"/><path id="ink-layer-46" data-name="ink-layer" class="cls-2" d="M1250.11,1039.8l4.22-.15-4.22.15"/><path id="ink-layer-47" data-name="ink-layer" class="cls-2" d="M415.58,1040.79l4.41.11-4.41-.11"/><path id="ink-layer-48" data-name="ink-layer" class="cls-2" d="M1644.18,818.2l-.63-6.07.63,6.07"/><path id="ink-layer-49" data-name="ink-layer" class="cls-2" d="M1451.57,476.89q.26,2.89.5,5.78c-.16-1.94-.33-3.86-.5-5.78"/><path id="ink-layer-50" data-name="ink-layer" class="cls-2" d="M1525.7,443.76l-.69-6.13.69,6.13"/><path id="ink-layer-51" data-name="ink-layer" class="cls-2" d="M427.55,1042l4.45-.07-4.45.07"/><path id="ink-layer-52" data-name="ink-layer" class="cls-2" d="M969.21,1042.17l4.32-.2-4.32.2"/><path id="ink-layer-53" data-name="ink-layer" class="cls-2" d="M1513.6,294.35c-.07-2.07-.13-4.14-.2-6.21.07,2.07.13,4.14.2,6.21"/><path id="ink-layer-54" data-name="ink-layer" class="cls-2" d="M286.51,1043.36l4.34,0-4.34,0"/><path id="ink-layer-55" data-name="ink-layer" class="cls-2" d="M1513,1043.34l4.46.05-4.46-.05"/><path id="ink-layer-56" data-name="ink-layer" class="cls-2" d="M1545.2,1043.16l4.31.31-4.31-.31"/><path id="ink-layer-57" data-name="ink-layer" class="cls-2" d="M1558.21,1043.14l4.38.12-4.38-.12"/><path id="ink-layer-58" data-name="ink-layer" class="cls-2" d="M1625,452c-.1-2-.19-4.08-.29-6.12.1,2.05.19,4.08.29,6.12"/><path id="ink-layer-59" data-name="ink-layer" class="cls-2" d="M640.61,1016.41l13.38-.7-13.38.7"/><path id="ink-layer-60" data-name="ink-layer" class="cls-2" d="M371.47,275l11.61,1-11.61-1"/><path id="ink-layer-61" data-name="ink-layer" class="cls-2" d="M1464.85,443.35l.36,11.08-.36-11.08"/><path id="ink-layer-62" data-name="ink-layer" class="cls-2" d="M1544.77,1022.73l12.13.73c-4.07.19-8.2,1.35-12.13-.73"/><path id="ink-layer-63" data-name="ink-layer" class="cls-2" d="M1520.85,585.73l.09-10.56-.09,10.56"/><path id="ink-layer-64" data-name="ink-layer" class="cls-2" d="M1510.5,696.46l10.64.14-10.64-.14"/><path id="ink-layer-65" data-name="ink-layer" class="cls-2" d="M617.58,634.5c-.09,2.68-.18,5.37-.26,8,.09-2.69.17-5.36.26-8"/><path id="ink-layer-66" data-name="ink-layer" class="cls-2" d="M1569.53,520.77c-.14,2.68-.29,5.35-.43,8,.15-2.68.29-5.34.43-8"/><path id="ink-layer-67" data-name="ink-layer" class="cls-2" d="M1493.86,1010.84l7.73-.52c-1.94,1.55-3.89,1.68-7.73.52"/><path id="ink-layer-68" data-name="ink-layer" class="cls-2" d="M1476.59,661.46c.18,2.88.35,5.76.53,8.64-.18-2.89-.35-5.76-.53-8.64"/><path id="ink-layer-69" data-name="ink-layer" class="cls-2" d="M511.75,206.73l.09-8.34c0,2.79-.06,5.56-.09,8.34"/><path id="ink-layer-70" data-name="ink-layer" class="cls-2" d="M1479.71,697l9.62-.21a11.18,11.18,0,0,1-9.62.21"/><path id="ink-layer-71" data-name="ink-layer" class="cls-2" d="M1568.44,717.57l-6.79.06,6.79-.06"/><path id="ink-layer-72" data-name="ink-layer" class="cls-2" d="M737.91,1011.94c3.13,0,6.27.09,9.41.12-3.16,1.59-6.3,1.81-9.41-.12"/><path id="ink-layer-73" data-name="ink-layer" class="cls-2" d="M146.49,1021.19l9.56-.85-9.56.85"/><path id="ink-layer-74" data-name="ink-layer" class="cls-2" d="M1466,467.08c.15,2.89.31,5.79.46,8.67-.15-2.9-.31-5.78-.46-8.67"/><path id="ink-layer-75" data-name="ink-layer" class="cls-2" d="M448.93,281.81a8.59,8.59,0,0,1,8.12-.14l-8.12.14"/><path id="ink-layer-76" data-name="ink-layer" class="cls-2" d="M1378.09,500.47q.33,3.66.67,7.31c-.23-2.44-.45-4.87-.67-7.31"/><path id="ink-layer-77" data-name="ink-layer" class="cls-2" d="M1605,443.56a6.6,6.6,0,0,1,.07-7.12q0,3.57-.07,7.12"/><path id="ink-layer-78" data-name="ink-layer" class="cls-2" d="M1466.4,360.71v0"/><path id="ink-layer-79" data-name="ink-layer" class="cls-2" d="M1562.69,695.3c2.76-.85,5.53-2,8.28,0l-8.28,0"/><path id="ink-layer-80" data-name="ink-layer" class="cls-2" d="M669.19,1015.32l8.35-.78-8.35.78"/><path id="ink-layer-81" data-name="ink-layer" class="cls-2" d="M287.77,1015.32c2.55-1.12,5.09-1.7,7.61.09l-7.61-.09"/><path id="ink-layer-82" data-name="ink-layer" class="cls-2" d="M809,1011.73c2.72-1.19,5.44-1.84,8.13.09l-8.13-.09"/><path id="ink-layer-83" data-name="ink-layer" class="cls-2" d="M202.43,659.26c.2,2.46.41,4.92.61,7.38-.2-2.46-.41-4.92-.61-7.38"/><path id="ink-layer-84" data-name="ink-layer" class="cls-2" d="M835.05,517.57c2.68-1,5.35-1.48,8,.15l-8-.15"/><path id="ink-layer-85" data-name="ink-layer" class="cls-2" d="M1465.91,590.8l.45,7.21-.45-7.21"/><path id="ink-layer-86" data-name="ink-layer" class="cls-2" d="M200.7,373.84c-.22,1.94-.45,3.88-.67,5.8.22-1.94.45-3.87.67-5.8"/><path id="ink-layer-87" data-name="ink-layer" class="cls-2" d="M45.31,935.51c-.14,1.89-.27,3.77-.41,5.65q.21-2.83.41-5.65"/><path id="ink-layer-88" data-name="ink-layer" class="cls-2" d="M1522,603.52l-.45-5.84c.15,2,.3,3.9.45,5.84"/><path id="ink-layer-89" data-name="ink-layer" class="cls-2" d="M1326.8,1008.09l7.16,0-7.16,0"/><path id="ink-layer-90" data-name="ink-layer" class="cls-2" d="M616.67,651.09c.45,1.41.9,2.84,1.34,4.26q-4.47,1.08-1.34-4.26"/><path id="ink-layer-91" data-name="ink-layer" class="cls-2" d="M795.79,514.37l7.28,0c-2.43,1.15-4.85,1.94-7.28,0"/><path id="ink-layer-92" data-name="ink-layer" class="cls-2" d="M203.79,670.91l.24,6.45-.24-6.45"/><path id="ink-layer-93" data-name="ink-layer" class="cls-2" d="M229.46,1017.68h0"/><path id="ink-layer-94" data-name="ink-layer" class="cls-2" d="M1384,693.58c.09,2,.17,4,.26,5.93-.08-2-.17-4-.26-5.93"/><path id="ink-layer-95" data-name="ink-layer" class="cls-2" d="M179.74,1020.09a6,6,0,0,1,6.92,0l-6.92,0"/><path id="ink-layer-96" data-name="ink-layer" class="cls-2" d="M240.38,346.18c.12,2,.24,4.05.37,6.06-.12-2-.25-4-.37-6.06"/><path id="ink-layer-97" data-name="ink-layer" class="cls-2" d="M167.76,1020.3l7.18,0a5.73,5.73,0,0,1-7.18,0"/><path id="ink-layer-98" data-name="ink-layer" class="cls-2" d="M1493.45,314.46l.06-6.15-.06,6.15"/><path id="ink-layer-99" data-name="ink-layer" class="cls-2" d="M394.33,278.55l6.87.9-6.87-.9"/><path id="ink-layer-100" data-name="ink-layer" class="cls-2" d="M192.24,455.75c0,1.91.06,3.83.1,5.74,0-1.92-.06-3.83-.1-5.74"/><path id="ink-layer-101" data-name="ink-layer" class="cls-2" d="M1508.87,455.47c-.13-2-.25-3.9-.38-5.85q.19,2.94.38,5.85"/><path id="ink-layer-102" data-name="ink-layer" class="cls-2" d="M974.73,1018l8.47.77-8.47-.77"/><path id="ink-layer-103" data-name="ink-layer" class="cls-2" d="M965.29,944.87l-4.57.08,4.57-.08"/><path id="ink-layer-104" data-name="ink-layer" class="cls-2" d="M965.41,1016.89l7.12.7-7.12-.7"/><path id="ink-layer-105" data-name="ink-layer" class="cls-2" d="M538.88,857.31c3.09,17.42-24,34.46-26.14,9.69-.79-9,5.27-15.42,12-21,9.63-7.85,15-.33,14.09,11.27"/><path id="ink-layer-106" data-name="ink-layer" class="cls-2" d="M240.39,644.75c6.38,2.61,55.12,18.49,29.8,26.48-6.7,2.11-16.83,2.43-22.64-1.3-7-4.48-14-17.71-7.16-25.18"/><path id="ink-layer-107" data-name="ink-layer" class="cls-2" d="M252.38,408.82c16.54-1.92,31.79,25.24,11.39,24.36-14.85-.64-34.81-24.36-11.39-24.36"/><path id="ink-layer-108" data-name="ink-layer" class="cls-2" d="M311.56,475.43c13.82,12.05-11.79,39-22,28.58-5.19-5.33-.4-16.82,3.89-21.28s12.22-5.44,18.07-7.3"/><path id="ink-layer-109" data-name="ink-layer" class="cls-2" d="M352.69,787.84c-8.16,1.29-44,13-36.54-8.27,2.85-8.12,10.81-5.71,18.08-5.34,11.72.6,18.46,0,18.46,13.61"/><path id="ink-layer-110" data-name="ink-layer" class="cls-2" d="M329.06,842.66c12.21,6.53-5.63,43.08-15.75,35.3-14-10.79,5.16-32,15.75-35.3"/><path id="ink-layer-111" data-name="ink-layer" class="cls-2" d="M382.31,813.28c5.94-2.42,33.92,24.49,23.27,32-5.46,3.83-15.81-2.74-19.1-6.71-6.17-7.44-6.73-16.62-4.17-25.27"/><path id="ink-layer-112" data-name="ink-layer" class="cls-2" d="M220.85,593.29c6.06,1,16.54,1.31,16.93,9.84.35,7.49-9.05,9.92-15.66,10.5-6.87.61-16-1.32-16.08-10-.14-9.31,14.59-8.75,14.81-10.39"/><path id="ink-layer-113" data-name="ink-layer" class="cls-2" d="M370.47,964.26c6.47,3.92,36.61,18,23.69,28.24-4.84,3.82-19.49-4.06-22.79-8.07-3.94-4.79-7.79-16-.9-20.17"/><path id="ink-layer-114" data-name="ink-layer" class="cls-2" d="M454.26,861.79c-.93-15.59,25.37-21.8,19.92.33-1.54,6.24-3,15.71-10.74,16.07-9.12.43-9.45-10.36-9.18-16.4"/><path id="ink-layer-115" data-name="ink-layer" class="cls-2" d="M373,590.72c.19,11.83-22.48,22.26-22.65,3.51-.16-16.75,23.5-21.65,22.65-3.51"/><path id="ink-layer-116" data-name="ink-layer" class="cls-2" d="M358.05,529.14c5.58,1.8,13,2.72,13.49,9.82.53,7.5-6.45,10.84-12.72,10.42-5.15-.34-12.77-4.15-13.7-9.73-1.37-8.2,6.63-8.74,12.93-10.51"/><path id="ink-layer-117" data-name="ink-layer" class="cls-2" d="M254.22,745.63c-.1-9.76,19.46-21.48,23.06-10.16,1.15,3.62-8.07,19.87-11.13,21.08-8.11,3.22-9.25-4.28-11.93-10.92"/><path id="ink-layer-118" data-name="ink-layer" class="cls-2" d="M414.48,908c-6.61,5.92-26.43,22.53-25,.23,1-14.25,26.7-13.51,25-.23"/><path id="ink-layer-119" data-name="ink-layer" class="cls-2" d="M737.48,971.77c2.16-9.37,33.18,6.9,22.83,18.74-3.47,4-12.56.38-16-2-6.91-4.66-7.06-9-6.78-16.76"/><path id="ink-layer-120" data-name="ink-layer" class="cls-2" d="M564.67,771c1.21-4.18,2.55-11.57,6.54-14.24,7.22-4.83,13.5,2.45,13.5,10.13,0,14.31-16.29,18.83-20,4.11"/><path id="ink-layer-121" data-name="ink-layer" class="cls-2" d="M487.79,938.41c8.06,1.85,26,21.42,15.59,29.41-10,7.68-23.32-23.56-15.59-29.41"/><path id="ink-layer-122" data-name="ink-layer" class="cls-2" d="M495.46,790.27c10.36.82,24.59,17.59,8.49,20.25-12.59,2.09-27.23-16.15-8.49-20.25"/><path id="ink-layer-123" data-name="ink-layer" class="cls-2" d="M589.2,867.41c2.6-8.75,28.28.63,26.83,10.25-.76,5.12-11.26,6.32-16.78,5-8.13-2-10.24-7.32-10-15.22"/><path id="ink-layer-124" data-name="ink-layer" class="cls-2" d="M286.5,379c.19-11.3,21.92-15.91,23.51-4.52,1.44,10.29-23.78,21.25-23.51,4.52"/><path id="ink-layer-125" data-name="ink-layer" class="cls-2" d="M582,983.9c1.57-5.68,2.24-12.53,9.34-13.27,8.14-.86,7.9,5.37,6.94,11.83-2.6,17.58-12.54,18.46-16.28,1.44"/><path id="ink-layer-126" data-name="ink-layer" class="cls-2" d="M238.9,513.5c-11.33,2.55-32.07-19.26-19.39-23.94,8.93-3.3,19.39,17.36,19.39,23.94"/><path id="ink-layer-127" data-name="ink-layer" class="cls-2" d="M383.37,682.93c-5.76,2.71-7.09,4.36-11.52-.1-3.85-3.88-3.68-14.68-.37-18.72,12.67-15.45,12.37,12.56,11.89,18.82"/><path id="ink-layer-128" data-name="ink-layer" class="cls-2" d="M430.41,651.59c6,.76,23.87,17.71,14.57,24.44-11.4,8.25-17.85-17.59-14.57-24.44"/><path id="ink-layer-129" data-name="ink-layer" class="cls-2" d="M560.48,656.05c-4.37,16.83-15.28,5.5-14.66-7.23,1-20.39,12.3-2.63,14.66,7.23"/><path id="ink-layer-130" data-name="ink-layer" class="cls-2" d="M626.81,926.28c7.39,3.06,17.43,31.32,6.87,32.83-11.87,1.7-7.92-27-6.87-32.83"/><path id="ink-layer-131" data-name="ink-layer" class="cls-2" d="M534.47,910.4c8.46-2.85,11.56,15,6.65,18.31-10.82,7.29-8.54-14.09-6.65-18.31"/><path id="ink-layer-132" data-name="ink-layer" class="cls-2" d="M454.26,861.79c-.1,2.36-.21,4.73-.32,7.09.11-2.38.21-4.73.32-7.09"/><path id="ink-layer-133" data-name="ink-layer" class="cls-2" d="M737.48,971.77l-.27,7.28c.08-2.43.17-4.85.27-7.28"/><path id="ink-layer-134" data-name="ink-layer" class="cls-2" d="M589.2,867.41l-.15,6.17c.05-2.07.1-4.12.15-6.17"/><path id="ink-layer-135" data-name="ink-layer" class="cls-2" d="M1525,832c17.54-.56,37.11-7.16,54.35-5.06,4.74.58,15.66,1.77,8.06,8.81-3.64,3.36-21,1.62-26.31,2.74-32.2,6.82-68.76,11.21-101.78,10.64-15.46-.26-31-1.5-46.48-2.32s-17-7.09.41-9.08c18-2.07,36.56-1.3,54.7-1.33,19.06,0,38-3.13,57-4.4"/><path id="ink-layer-136" data-name="ink-layer" class="cls-2" d="M1563.48,789.7c-1.69,4.81-3.17,15.83-9.64,16.56-9.06,1-10.56-14.54-10.23-20.23.41-6.87,2.88-18.27,11.42-15.89,7.2,2,7.93,14.06,8.45,19.56"/><path id="ink-layer-137" data-name="ink-layer" class="cls-2" d="M1508.63,786.18c1.32-5.14,2-16.75,9.25-17.14,8.14-.44,10.46,11.65,10.41,17.44-.06,5.5-2.09,15.89-8.57,17.16-8.78,1.72-9.57-11.58-11.09-17.46"/><path id="ink-layer-138" data-name="ink-layer" class="cls-2" d="M1417.28,795.41c-2.64,6.19-4.38,14.71-12.54,10.49-6.3-3.26-7.18-16.42-6-22.44,1.23-6.24,3.84-13.39,11-10.59,8.27,3.24,7.43,15.73,7.52,22.54"/><path id="ink-layer-139" data-name="ink-layer" class="cls-2" d="M1486.46,789.7c-7.78,23.57-22,7.62-16.58-10,5.63-18.39,15.86-.53,16.58,10"/><path id="ink-layer-140" data-name="ink-layer" class="cls-2" d="M1448.57,790.87c-2.16,4.15-4.45,13.1-10.28,12.15-7.13-1.15-7.36-14.88-6.58-20,.69-4.47,2.7-11.93,8.67-11.83,8.63.14,8,14.3,8.19,19.68"/><path id="ink-layer-141" data-name="ink-layer" class="cls-2" d="M1603.67,795.39c-5.79,13-13.75,1.8-11.2-7.42,3.78-13.68,10.87-1.56,11.2,7.42"/><path id="ink-layer-142" data-name="ink-layer" class="cls-2" d="M1461.92,836.37l-19-.07c6.33-1.19,12.65-1.66,19,.07"/><path id="ink-layer-143" data-name="ink-layer" class="cls-2" d="M1587.54,826.83l-16.45.11a28.7,28.7,0,0,1,16.45-.11"/><path id="ink-layer-144" data-name="ink-layer" class="cls-2" d="M1525,832l-13.16.88L1525,832"/><path id="ink-layer-145" data-name="ink-layer" class="cls-2" d="M1417.28,795.41l-.12-9.44a10.43,10.43,0,0,1,.12,9.44"/><path id="ink-layer-146" data-name="ink-layer" class="cls-2" d="M1451.68,849l7.61.07-7.61-.07"/><path id="ink-layer-147" data-name="ink-layer" class="cls-2" d="M1408.94,846.76h0"/><path id="ink-layer-148" data-name="ink-layer" class="cls-2" d="M1430.08,836.64l-10.75.88,10.75-.88"/><path id="ink-layer-149" data-name="ink-layer" class="cls-2" d="M1478.53,836.33l-10.61,0a13.07,13.07,0,0,1,10.61,0"/><path id="ink-layer-150" data-name="ink-layer" class="cls-2" d="M1448.57,790.87q-.13-4.93-.25-9.85c.08,3.29.17,6.57.25,9.85"/><path id="ink-layer-151" data-name="ink-layer" class="cls-2" d="M1398.75,783.46c0,3.2,0,6.41-.07,9.6,0-3.21,0-6.4.07-9.6"/><path id="ink-layer-152" data-name="ink-layer" class="cls-2" d="M1545.08,830.76l-9.38.85,9.38-.85"/><path id="ink-layer-153" data-name="ink-layer" class="cls-2" d="M1603.67,795.39l-.3-8.39.3,8.39"/><path id="ink-layer-154" data-name="ink-layer" class="cls-2" d="M1470.58,849.11l6.51-.12-6.51.12"/><path id="ink-layer-155" data-name="ink-layer" class="cls-2" d="M1563.48,789.7l-.57-6c.19,2,.38,4,.57,6"/><path id="ink-layer-156" data-name="ink-layer" class="cls-2" d="M1486.46,789.7c-.14-2.06-.29-4.13-.43-6.19q.23,3.11.43,6.19"/><path id="ink-layer-157" data-name="ink-layer" class="cls-2" d="M363.53,183.17c-8.56-2.25-10.17-14.28-8.79-21.67l4.68-10.69-1.83-3.95c.78-7.33-1.22-10.52,7.21-7.55,15.66,5.52,18.17,43.29-1.27,43.86"/><path id="ink-layer-158" data-name="ink-layer" class="cls-2" d="M490.3,159.9c7.05-.55,19.87,7.66,12.84,15.61-4.35,4.92-18.68,2.59-24.53,3.62-7.76,1.37-15.85,3.23-11.66-8.39,3.3-9.12,15.07-11.08,23.35-10.84"/><path id="ink-layer-159" data-name="ink-layer" class="cls-2" d="M482.87,214.55c-7.16-5.75-4-31.92,6.94-27.21,11.22,4.84-1,23.43-6.94,27.21"/><path id="ink-layer-160" data-name="ink-layer" class="cls-2" d="M354.74,161.5c0,2.75,0,5.51,0,8.25a8.22,8.22,0,0,1,0-8.25"/><path id="ink-layer-161" data-name="ink-layer" class="cls-2" d="M363.53,183.17l4.36-.12-4.36.12"/><path id="ink-layer-162" data-name="ink-layer" class="cls-2" d="M1248.38,936.86c-.67,11.91-13.45,3.1-12.55-4.86,1.65-14.45,9.82-.17,12.55,4.86"/></g></g></g></g></g></svg>