<svg xmlns="http://www.w3.org/2000/svg" viewBox="0 0 1444.8 1332.14"><defs><style>.cls-1{fill:#6b6b6b;}.cls-1,.cls-2{fill-rule:evenodd;}</style></defs><g id="Layer_2" data-name="Layer 2"><g id="Layer_1-2" data-name="Layer 1"><g id="Character_sitting" data-name="Character/sitting"><path id="Accent" class="cls-1" d="M1169.52,1137.81q-.35-115.2-4.3-230.4c-1.92-56.89-4.39-113.83-9.16-170.56-1.89-22.48-4.09-45-7.55-67.27-2.14-13.8-4.11-28.84-9.94-41.7-1.91-4.2-3.75-6.94-7.81-9.09-15-8-35.58-9.13-52.13-10.81a673.8,673.8,0,0,0-81.86-3q2.4,44,4.79,87.93l3.69,67.73c.77,14.25,2.65,28.9,2.35,43.18-.24,11.62-13.92,22.75-20.87,31.83l-25.59-78.23c-4.51,11.63-9.33,23.17-14.57,34.5-3.46,7.47-7,15.16-11.57,22-4.2,6.28-5.42,7.16-12.71,6.09-8.77-1.29-15.43-3.89-20.61,2.63-4.59,5.78-8.87,11.67-13.86,17.15-55.06,60.52-139.9,98.11-218.52,115.12-46.3,10-93,18.14-139.3,28.35-70.67,15.59-143.26,31-210.76,57.61-10.58,4.18-21.27,8.67-30.92,14.74-10.64,6.7-18.24,16.84-25.61,26.87-18,24.52-39.08,64.74-11.33,90.34,21.27,19.62,54.52,21.59,82.15,23.79,28.57,2.29,57.24,3.4,85.88,4.33,78,2.54,156.1,3.08,234.14,3.16,71.31,0,142.63-.35,213.92-1.71,32.35-.62,63.51.13,94.81-8.17,64-17,127.92-34.65,191.82-52.2l15.42-4.24"/><g id="Ink"><path id="ink-2" data-name="ink" class="cls-2" d="M518.62,466.56c3,3.1-1.86,5.5-4,6.18.35-3,1.79-4.36,4-6.18Zm410.15,584.29c1.16-2.72,2.88-4.95,6-3.67,5.2,2.12-5.32,3.64-6,3.67ZM476.51,612.77c-2.15.27-10.95-.28-8.23-5.06,3.15-5.55,7.49,3.35,8.23,5.06Zm157.7-49c-4.63-4-8.77-10-8.82-16.31,4.36,2.89,6.69,11.84,8.82,16.31ZM523.34,484.2c-3.85.2-.32-5.22-.36-6.3-.08-2.31-2.25-4.3-1.9-7,0-.11,3.9-8.8,4.92-9.35,2.88-1.55,4.56,1.29,7.14,2.17,3.83,1.3,5.7.15,9.81.55,3.62.36,6.67,2.12,10.46,2.12.9,0,1.9-1.91,2.93-1.8,1.61.16,1.76,2.21,2.9,2.32,4,.35,4.23-1.24,8-2.73,6.2-2.48,10.55,3.29,10.41,10.11-.18,9-9.61,12.73-16.83,14.8-9.32,2.68-14.5,4.29-24,2.61-2.74-.49-5.52.38-7.68-1.51-2.9-2.54-1.36-7.89-4.68-10.36-.37,1.47-.75,3-1.13,4.42ZM851.1,843.61c-.77,5.91.85,8.95-4.88,12.9-3.38,2.34-7.63,3.88-11.22,6.22-5.19,3.39-13,5.56-17.56,9.46-2.93,2.48-3.45,9.48-7.5,10.33-3.45.72-7.56-5.5-8.74-8.31-1.31-3.1-.43-5.66-1-8.76-.35-2.09-1.91-2.52-1.64-5s2.78-3.92,3.86-6c1-1.83,1.26-4.42,2-5.86,1.79-3.39,5.76-10.59,9.31-12.83,3,7.83,5.24-.11,9.38-2.4,1.55-.05,3.09-.06,4.64,0,.8-.77,1.61-1.51,2.44-2.24,1.91-.18,5,.84,6.77,1.37a15.57,15.57,0,0,1,2.88-.38c1.29.38,1.8,1.1,1.53,2.15-.56-.25,2.56,1.64,2.85,1.84,6.16,4.18,11.8,5.85,12.94,14.73-2-2.41-4.07-4.84-6.11-7.26Zm-48-317.34c6.58-17,4.49-32.06,3.86-49.9-.15-4.19-1.05-13.17,3.33-15.95,5.47-3.47,10,4.37,12.87,7.62,4.9,5.56,11.74,10.68,14.25,17.9,2.21,6.38-.07,14.2-1.76,20.52-1.83,6.8-4.08,15.95-10.28,19.72-6.62,4-15.6,3.63-22.27.09ZM571.19,888.71c.95-13.06,19.13-8.49,27.3-4.46,6.11,3,9.53,7.61,13.38,13.07,4.37,6.19,5.8,7.93,5.46,15.3-.32,6.72,0,13.48-1.64,20.17-.85,3.4-1,4-3.3,6.33,0,0-3.9,3.89-2.81,3.27-5.05,2.88-12.57,3.36-18.49,3.81-8.47.63-10.51.75-13.94-7.3-.66,1.4-1.33,2.8-2,4.2-.22-1-2.57-12.74-2-12.62,1,.2,2,2.94,2.44,3.63-.3-5.41-4.15-9.46-6-14.28-1.72-4.44-2.42-9.47-3.75-14.06-1.28-4.44-2.72-10.62-1.48-15.23,1.65-6.13,2.17-4.38,6.86-1.83ZM461.45,600.77c-2.95,2.79-.32,7.28-.7,10.73-4-2.46-2.62-3.78-4.18-7.78-1-2.58-3.95-7.51-6.53-3.29-1.08,1.78,2.5,4.22.08,5.26-1.43.61-5.22-4.16-5.92-4.91-4.78-5.17-7.84-10.47-8.24-17.53-.11-1.93-.08-6.75.61-7.86,2-3.2,7.27-1.31,6.82-7.16l-6.32,3.14c-.65-6.59,6.46-10.48,9.43-15.71,3.39-5.95,5.59-10.28,11.1-15.41,2.55-2.36,6.69-7.23,10-8.37,2.57-.89,3.61.42,6.2.44,5.43.06,13.57-1.41,5.5,4.6,1.64.77,3.8,1.25,5.2,2.46,1,.9,1.42,3.47,2.63,4.08,2.63,1.32,4.59-1.26,7.55,1.68,3.11,3.1-.08,5.05.62,6.42,2,3.92,4.74,2,4.65,8-.14,9.87-5.83,21.55-8.89,30.77-1.8,5.42-3.81,13.9-11.4,11.68.29,2.6.95,5.13-.75,7.46-1.58-1.86-2.15-5.95-3.21-8.14-1.58-3.22-4.14-6.33-5.95-9.46.27,4.95.81,6.33,4.17,10.08-4.43.54-9.88,4.09-12.47-1.14ZM785.6,744.2c-4.07-3.07,1.27-6.51-6.75-4.76-2,.45,0,2.83-3.07,2.92-1.17,0-4-2.83-4.84-3.51s-4.06-5.09-4.59-5.38c.89.48-4-1.42-2.5-.19-2.93-2.36-5.16-6.24-6.48-11-3.24-11.57-2.77-25.4,3.93-35.34,2.81-4.17,5.06-9.25,9.29-12.05,5.75-3.79,15.24-6,21.66-8.46l-2.08-5.05c17.61,8,29.76,26.54,31.25,45.41.53,6.79,2.46,15.41-1.67,21.43-4.32,6.28-15.21,12.88-21.22,5.9a8.3,8.3,0,0,1-5.88,9.54c-1.55.38-3-.75-3.71-.65-.87.13-2.72,1.28-3.34,1.15Zm161.69-394c11.84-1.41,10,20,7.78,26.37-1.79,5.18-8.2,12.38-11.6,16.89-4,5.37-9.44,9.38-15.17,12.81a28.59,28.59,0,0,1-5.11,2.21,3.11,3.11,0,0,0-2.16-.94,6.87,6.87,0,0,1-3.14,2.76c-4.31,1.34-11.43,1.14-15.71,1-6.89-.29-14.94-4.26-21.8-5.58-3.2-.62-5-.87-7.82-2.53-1.43-.84-4.22-7.29-4.62-.95-1.77-1.09-1.21-2.88-2.5-3.67s-5.18-1.5-6.65-3.17c-2-2.33-4.77-7.65-6.2-10.84-.92-2.05-2.86-7.32-2.71-9.45.33-4.51,1.78-3.47,5.64-5.34,2.57-1.24,4.06-2.29,6.63-3,.3-.08,1,1.46,1.52,1.33.88-.23,1.24-1.25,1.86-1.45,4.7-1.52,10.25-6,16.06-5.6,2.51.19,4.86,4,6.15,3.81,2-.3,1-4.36,2.38-5.84,3.53-3.75,15.3-3.15,19.87-3.8q18.63-2.65,37.3-5ZM532.69,675c-1.13-8.86-2.53-17.67,7.2-22,3.65-1.64,6.69-1,10.43-1.49,4.86-.58,4.16-2.67,7.77,2.54,2-2.56.67-3.39,3.93-3.7,1.35-.12,7.24,3.71,8.77,4.33,6.38,2.61,14.51,2.37,19.33,7.64,4.68,5.11,8.46,10,10.43,17,1,3.51,1.65,7.16,2.88,10.61,1.33,3.73,4.32,7,5.35,10.68,4.16,15.2-13.55,29.08-26,33.11a8.81,8.81,0,0,0-4.72.31,14.72,14.72,0,0,0-2.92,2.53c-3.92,1.23-4.85.83-8.83-1-6.57-3-14.24-4-19.21,3-1.54-8.06-7.13-3.27-9.82-8.46-1.49-2.86,1.76-10.79-.13-12.85-3.19-3.5-13.15,2.73-12.9-5.46.1-3,3.49-4,4.66-6.32,2.11-4.23.94-8.71-2-12.42-.28.64-1.34,4.85-2.74,3.74-3.73-3,2.4-7.63,3.73-9.25,2.21-2.66,4.21-4.7,3.72-8.42-.3-2.3-4-4.7-3.87-6.94.1-1.71,4.67,2.64,4.92,2.84Zm173.08,95.71c-.25,6.22,3.72,7,6.34,11.3.71,1.17.76,4,1.75,5.66,1.86,3.21,3.15,3.4,3.75,6.52a16.81,16.81,0,0,0-1,3.48c-.26,4.39,2.79,7.9,1.95,12.72-1.17,6.78-6.33,14.34-10,20-8.22,12.76-19.72,22.65-35.47,23.55-10.51.61-35.26-3.6-37.51-14.59a30.07,30.07,0,0,0,1.51-3.93,3.45,3.45,0,0,0-2.18-4,5.06,5.06,0,0,1-3-2.17,7.42,7.42,0,0,1,1.75-2.94c-.29-1.47-2.77-1.55-2.73-2.49.08-1.77,1.63-6.2,2.05-8.21.72-3.48,1.11-6.79,1.75-10.29.51-2.83,2.25-4.23,2.7-6.83.3-1.77-1.5-3.38-1.34-5.26a13.18,13.18,0,0,0,2.88-3.71,6.72,6.72,0,0,0-1.08-4.08c1.76-12.36,19.26-22.74,31.71-23,6.68-.16,18.1-.64,24.12,2.85,4,2.34,6.71,10.61,12.08,5.46ZM974.21,1206.3c8.79-4,16.66-8.18,26.07-10.1,6.8-1.39,12.63-5.21,19.46-6.45,15.13-2.76,31.47-5.3,46-10.6,15.56-5.69,32.5-7.72,48.45-12.45a95.08,95.08,0,0,1,22.82-4.3c7.91-.44,16-4.85,24-4.1,6.61.62,11.32,5.69,16.49,9.31a211.81,211.81,0,0,0,21.23,12.61c7.64,4.11,16.16,6.17,23.71,10.18,6.27,3.33,12.42,6.58,18.89,9.63,34.33,16.21,67.48,31.36,98.44,53.92-10,3-21.34,0-31.27-1.06-14.1-1.53-28.15-2.67-42.11-5.28-8.17-1.53-24.12-7.35-31.92-2.88-6.85,3.94-6.33,14-7.31,20.79-6.47-2.5-12.91-5.06-19.44-7.4-5.14-1.85-13.47-6.92-18.7-7.09-14.57-.5-13,20-11.56,29.33-8.52-2.89-16.62-4.91-24.87-8.49-6.62-2.87-13.93-3.51-20.35-6.93-16-8.51-33.69-13.84-50.79-19.88-19.3-6.81-38.55-13.76-57.68-21-7.86-3-15.61-6.93-23.65-9.36-8.66-2.61-17.53-4.57-25.83-8.37ZM783.85,426.8c1.22,11.5,0,23.09-.39,34.6-.41,13.48-.43,26.82-2.17,40.22C778.14,525.8,773.7,550,765,572.85c-7.88,20.84-21.19,35.57-43.72,40.07-20.25,4.05-40-2.89-52.86-19.06C655.1,577.1,651,555.93,643.17,536.5c-3.83-9.5-6.66-19.06-9.85-28.78-1.92-5.82-11.41-22.54-8.69-28.52s18.28-7.84,23.7-11.08c8.6-5.16,16.55-15.51,23.12-23.07,4.4-5.06,7-8.81,9.93-.77,3.57,9.65,1,20.81,4.31,30.17s10.42.13,11.15-5.87c1.41-11.53-.28-24.62-.83-36.21-1-21.58-2.43-46.55-21.9-59.86-18.46-12.61-38.5-16.54-48.75-38.32-4.1-8.73-8.93-17.87-6.37-27.64a301.43,301.43,0,0,1,11.68-33.9c8.3-20.81,21.29-38.93,32.65-58,1.53-2.58,1.85-5.88,5.21-6.61,3.79-.83,12.63,5.62,16.31,6.66,10,2.83,18.95-3,27.78,3.6,7.09,5.33,13.1,13,22.66,13.56,4.11.24,9.7-3.43,13.24-2.55,4.52,1.11,5.83,7.85,7.57,11.64,4,8.69,8.47,19.58,15.07,26.68,2.24,2.41,6.19,3.16,8.11,5.4,2.22,2.61,1,7.9,4.17,8.38,1.85.27,3.33-2.23,4.88-2.83a20,20,0,0,1,8.06-1.13,34.4,34.4,0,0,1,15.26,3.92c10.7,5.82,14.65,14.67,1.8,20a56.59,56.59,0,0,1-16.32,4.22c-6.12.54-12.3-1.37-18.35-.62-11.66,1.43-15.25,11.18-18.27,21.2-4.15,13.78-7.5,27.73-12.16,41.36-3.81,11.14-10.73,22.46-12.73,34.1-1.22,7.15.38,6.62,5.16,11,3.64,3.36,5.82,7.78,9.76,11.16,11,9.41,20.56,6.9,33.32,3ZM74.74,1096.05c.33-2.46,52.41,2.24,58.32,1.63,10.11-1,20.87,1.72,31.32,1.37,9.24-.31,22.57-3.9,30.2.58,2.82,1.67,2.89,3.63,7.36,2.78,4.15-.79,8.52-3.72,11.62-6.43,8.64-7.56,13.93-19.45,19.58-29.26,11.31-19.61,21-39.94,30.39-60.57,19.34-42.49,38-85.23,57.27-127.73,9.56-21,18.77-42.08,29.08-62.71,4.4-8.81,9.23-18.47,12.61-27.69,3.69-10.06,8.54-19.51,11.85-29.82,7-21.84,15.4-43.36,20.76-65.82,1.36-5.69,1.87-11.64,3.51-17.25,1.74-6,5.31-11.11,7.55-16.9s2.29-11.18,3.42-17.22,3.9-11.88,5.89-17.64c10.26,6.18,21.94,11.8,31.37,19.15s22.83,13.28,18.94,26.35c-3.53,11.88-9.79,22.81-13.51,34.68-4.18,13.31-9.31,26.33-13.34,39.68-8.65,28.65-16.22,57.64-24,86.55-3.64,13.58-8.18,27.19-10.85,41-1.39,7.19-1.16,13.62-3.78,20.58-2.55,6.8-5,13.46-7.07,20.43-3.73,12.4-7.3,24.82-11.43,37.1-2.23,6.64-4,13.35-5.61,20.18-1,4.12-4.24,12-3.32,16.32,2.65,12.29,18.92-.23,22.81-5.25,9-11.64,15.51-25.88,22.27-38.91C445.14,888.9,458.5,832.46,472.5,775.5c3.68-15,7.24-29.82,11.37-44.64,4.34-15.53,5.6-31.77,10.72-47.21,5.29-15.95,10.68-31.33,14.56-47.75,1.8-7.6,3.7-15.19,5.29-22.84.85-4.08.89-11.59,6.33-12.4-3.5,25.61-4.8,55.62-15,79.64-9.26,21.79-16.62,51.64-7.26,74.77,4.5,11.13,11.62,20.63,17,31.23,6,11.84,9.88,25.45,13.9,38.07,8.3,26.15,10.75,53.64,16.31,80.39,2.92,14,3,23.6.45,37.39-.82,4.44.62,8-3.12,10.82s-12.47,3.44-17.12,5.09c-14.12,5-26.26,8.65-41.22,10.28a185.5,185.5,0,0,0-40.84,9c-24.24,8.33-49.45,14.56-73.27,22.91-13,4.57-25.6,12.71-38.12,18.55-13,6.07-26.85,10-39.14,17.62-13.23,8.16-26.31,17.65-38.85,26.8-11.62,8.48-17.18,19-22,32.21-9.19,25.08-32.36,57.63-11,82.94-7.5,3.26-16.09,4.55-23.28,8-2.48,1.21-3.22,2.38-6,3.07-3.69.91-8.44.19-12.22.43-5.47.36-17,4.29-22.32,2.7-5-1.49-5.2-8.71-8.78-12.28-5.31-5.28-10.4-1.87-16.89-2.46-9.62-.87-19.21-2.13-28.83-3-19.42-1.7-38.78-2.09-58.27-2,10.15-11.25,47.45,9.23,48.36-11.15,1.06-23.59-27.74-16.51-41.74-23.31,12.73.37,25.45.49,38.15,1.5,7.71.61,22.53,4.3,26.88-4.17,4.69-9.1-2.85-19.62-9.91-24.38-9.76-6.57-21-10.77-31.85-15.26ZM1136.07,781.59c2.33,4.65-1.28,6.52-2.92,10.27-2.26,5.18,0,4.15.43,9,.3,3.26-.59,4.81-.41,7.87.08,1.3,1.93,3,2.15,4.51.39,2.66-1,3.89-.89,5.82.08,1-1.16,1.13-.91,2.52.22,1.21,3,2.06,3.18,2.83.94,4.41-1.71,2.2-2.11,4.3-.68,3.49,1.29,4.09,2.41,7.31,1.93,5.54.06,8.13-1.13,13.33-1,4.38.49,4.41,1.06,8.6.34,2.54-.39,2.85-.38,5.21,0,8.16,1.86,16.64,1.94,25.28.18,20.45,1.91,40.61,2.17,61,.25,20,1.71,40.35,2.59,60.65.43,9.89,1.43,19.76,1.87,29.66.5,11.49-.62,22.93.34,34.38.88,10.41.36,20.85.79,31.29.2,5,2.75,19.93-.5,23.26-4.23,4.32-21.35-.28-26.89,0-10.41.57-21.39,2.66-31.59,4.81-24.18,5.09-48.41,11.57-72.59,16.13-20.17,3.81-39.09,13.49-57.86,21.69,1.72-17.24,4.75-34.05,5.32-51.42.5-15.62-1-31.15-.63-46.74.74-33.27,2.63-66.17,1.89-99.44a879.1,879.1,0,0,0-8.2-101.87c-2.17-15.4-3.86-31.8-9.37-46.43-2.49-6.62-6.56-11.48-4.87-18.77,1.83-7.9,5.44-16.15,8.11-23.81,2,12.47,8.88,95.57,37.31,70.59,11.1-9.75,16.24-30.89,18.72-44.73,3.35-18.72,2.15-38.4,2.06-57.34-.17-38.59-4.42-78-8.31-116.35-.78-7.66-4.65-14.52,5.19-14.15,9.22.35,18.7,2.53,27.88,3.6,7.94.93,15.91-1.33,23.48-.32,3.47.47,6.53,2.52,10,3,4.42.66,9-.3,13.49-.3,7.5,0,16.19,0,22.42,4.64a41.61,41.61,0,0,1,14.34,20.84c2.2,7.84,1.61,16.66,3,24.5,1.17,6.6,1.42,14.74,2.51,22.24,4.75-5.95,4.45,2.63,4.5,5.17.06,3.06,3.35,9.26,2.5,11-.55,1.16-4.23.55-4.54,1.46-.64,1.87,1.58,2.66,1.62,4.06.15,5.45-.16,11.09-.15,16.59l3.87-3c.68,1.48.89,3.39,1.53,4.88.3.68,3,.49,3.14,1.82.17,1.74-3.63,5.09-4.37,7-1.31,3.4-2.15,2.06.08,5.71,2.56,4.21,6.76,4.45,6.09,10.57a18,18,0,0,1-3.56-3.63c-.63,3.65,1,6.87,1.15,10.51.13,2.38-2.77,11.87-.59,13.46.92.67,3.38-3,3.6-3.24ZM944.27,482.1c0-8,11.69-20.34,15.71-27a210.79,210.79,0,0,1,21.49-29.84c8.2-9.5,16.95-18.56,24.91-28.26,3.29-4,5.73-8.7,9.09-12.64,4.19-4.9,5.07-3.39,10.27-3.26,4,.1,6.53-.58,10.18.6,1.93.62,3.19,1.54,5.27,2.12,1.31.36,3-.91,4.78-.3,4.32,1.51,5.8,5.37,11,5.29.62,0,2.63-1.5,2.92-1.41a13.36,13.36,0,0,1,1.92,1.32c.35.08.25,2.54,1.17,3,1.59.72,2.71-1.72,4.16-1.56,3.64.4,6.36,4.16,10.39,5.07,5.18,1.17,9.67-.54,14.62,1.88,3.95,1.92,5.95,6.3,9.24,1.77,3,6.32,8.46,4.41,13.94,7.07,7.64,3.72,15.92,5.6,24.05,8.41,16.74,5.77,33.59,11.68,49.9,18.63,33.84,14.42,66.61,30.4,99.7,45.89,32.35,15.16,62.27,35.26,91.39,55.48,14.28,9.92,28.47,20.34,39.61,33.92,3.37,4.11,9,10.5,6.73,16.29-2.4,6.12-12.57,9.92-18.32,11.1-7.54,1.54-15.83,2.06-23.51,2.57-8.29.56-17.19.83-25.39.72-16.17-.23-32-1.8-48.26-2.16-18.48-.41-36.59-4.3-55-4.53-20.27-.25-40.3-2.79-60.6-2-39.13,1.53-78.22,2.66-117.46,2.85-4.88,0-9.67-.57-14.47.28-3.89.69-6.7,2-10.87,1.75-3.89-.27-7.49-2-11.45-2.18-5.2-.27-10.53.59-15.76.48C1008,593,987,591.41,970,597c-6.76,2.22-15.25,8.68-11.13,17s14.48,1.53,20.92,5.29c6,3.5,2.67,13.06,2.25,18.77-.8,10.83-.94,21.61-.66,32.46.63,24,2.09,47.9,2.37,71.87.14,11.65,0,23.29-.65,34.92-.54,10.26-.18,21.43-3.69,31.23-4.89-12.23-5.48-25.73-7.42-38.62q-3.15-20.93-6.15-41.85c-1.19-8.29-2.42-58.09-18.65-51.59-17.26,6.91-11.26,45.23-12.05,59-.73,13-2.06,26-5,38.66-1.37,5.91-5.14,31-12.72,32.6-5.55-26.24-11.42-52.44-15.51-79-1.8-11.71-3.39-23.5-4.11-35.33-.38-6.16.08-21-8.82-21.67-26.18-2.11-8.62,108.11-28.17,122-7.24-14.38-10.07-29.38-12-45.32-.89-7.26-2.8-15.43-1.67-22.71,1.48-9.52,3.09-15.36,1.1-25.2-1.63-8.06-2.8-16.33-4.68-24.31-1.36-5.76-4.9-8.57-6.77-13.76-5.26-14.61-4.92-33.11-7-48.45-2.13-15.53-4.37-30.8-1.61-46.48,2.72-15.52,14.08-20.45,27-26.86s25.57-13.55,39.86-16.39c16-3.2,30.77-6.3,47.19-7.15,29-1.49,57.39.24,86.24,1.61,32.08,1.53,64.2-.37,96.26-.81,15.59-.22,31.47-.52,47-.26,7.8.13,15.36,1.48,23.21,1.28,6.69-.17,19.76,1.89,25.61-1.66,4.59-2.79,4.59-9,.71-12.37s-11.38-3.55-16.17-4.6c-15.34-3.32-30.62-5.23-46.06-7.9a108.93,108.93,0,0,0-25.26-1.62c-8.66.43-17.48-2-26.23-2.46-18.55-.89-37.2-1.77-55.75-2.06-36-.56-71.5-3.3-107.49-3.21ZM925.51,833.61c2.89,1.12,2.16,14.93,2.42,17.69.78,8.26,1.64,16.51,2.37,24.77,1.7,19.08,3,38.2,4,57.32s2.28,38.32,2.22,57.48c0,8.15-.39,16.3-.23,24.46.12,6.09,2.81,17.5-2.4,21.83-3.49,2.91-10.33,1.6-14.41,1.33-8.06-.53-16.14-1.06-24.23-1.12-9.33-.08-18.61.93-27.95.68-3.58-.09-7.59-.69-11.13,0-2.58.49-5.38,2.71-7.79,2.8-1.78.08-4.07-1.68-6-2-3.06-.54-6.64.08-9.74,0-2.21,0-7.54-1-9.57.28s-1.22,4.16-3,4.8c-.69.25-4.62-4.42-5.29-4.71-3-1.32-7.4-.3-10.57-.26-9.14.1-18.27-.47-27.41-.39a233,233,0,0,0-26,2.16c-5.66.68-12.15-1-18.15-1.54a280.21,280.21,0,0,0-28.84-.46c-4.83.1-9.66.17-14.49.29-1.14,0-3.4-.41-4.5-.08-4.43,1.33-1.62,1.4-4.75,3.42,4.1-2.65-9.19-4.38-10-4.38-6,0-11.56,2.91-16.58,2.33-5.44-.62-11-4-17-2.94-2.8.49-5.12,3.61-7.2,4-3.36.58-4.51-1.84-7.59-3.06-6.15-2.42-13.28-.31-19.7-.73-9-.59-17.69-.61-26.73-.73-16.5-.22-33-.49-49.5-.33-15.2.15-27.4,6.24-42.52,5.91-7.92-.17-16-.86-23.9-.67-6.79.16-10.26,5.22-5.13,11.17,3.48,4,9.85,4.45,14.75,5.18,7.27,1.1,14.41,2.67,21.66,3.88,17.22,2.89,35.25,2.8,52.68,3.32,71.06,2.14,142.14,8.45,213.25,9.12,31.23.3,62.78,2.92,93.91,1.7,17.36-.69,34.33,3,51.83.36,7.38-1.13,14.63-1.81,22.07-2.35,1-.06,6.65-1.16,7.72-.67,3.17,1.44,1.4.12,2.73,3.78,2.18,6,1.27,15.61,1.26,22,0,10.21-.52,20.44-.86,30.64-.33,9.77-.88,19.54-1.46,29.3-.24,4,1.35,19.23-1.77,22.25-2.41,2.33-13.69,1.23-16.74.57-3.67-.78-4-1-8-.51a24.17,24.17,0,0,1-6.9,0c-8.38-.91-18-1.07-26.4.44-6.54,1.18-13.4-1.92-15.9,4.95-4.23-5.17-4.13-2.19-8.78-1.16s-3.32-2-7.37-2.44c-2.86-.3-5.41,2-8.5,2-5.11,0-9.7-1.32-15.16-.64-24.1,3-48.55,5.71-72.85,5.93-10.09.1-20,.25-30.08.56-5.12.15-10,.69-15,1.29-4.74.57-8.47-.57-13.4-.82-10.9-.55-22.33,1.11-33.24,1.7-5.12.28-11.54-.6-16.46.07s-5.31,4.43-9.24,6.6c-.62-12.17-26.09-4.37-32.71-4.36-2.61,0-5.79-1.1-8.93-.9-5.2.34-10.43.42-15.64.61-8.31.29-16.33.79-24.22-.21-10.3-1.32-21.5.08-31.91,0-11.33-.07-22.67-.23-34-.6s-22.93-1.08-34.41-1.44c-10-.33-20.54.48-30.37-.25-2.55-.19-5-2.06-7.26-2.15-3.16-.14-6.69,1.22-10.34.91-11.48-1-22.18-1.14-33.79-1.1-19.91.06-40.6-3.61-59.69-8.88-8.8-2.43-17.94-2.56-26.68-5.17-10.09-3-19.32-8.26-28.6-13.11-7.27-3.8-17.49-5.57-14.53-15.19,3.15-10.27,8.2-20.23,12-30.31,3.27-8.77,5.35-17.32,12.44-23.91s15.95-10.9,23.41-16.91c16.26-13.1,33.23-20.93,52.49-28.69s37.11-19.35,57.5-24.55c18.93-4.82,37.17-11.3,55.72-16.25,20.29-5.41,41.22-7.37,61.69-12.18,19.62-4.62,38.88-11.4,58.75-14.91,21.51-3.8,43.21-5.75,64.64-10.39,18.16-3.93,35.5-11.63,53.76-14.7,5.33-.89,11.1-1.44,16.26-3.12,4.83-1.57,8.28-4.74,13.16-6,11.27-3,21.06-7,31.73-11.83,4.48-2,7-4.53,10.85-7,4.64-3,10.58-4.06,15.78-5.71,10-3.19,20-6.31,29-11.9a291.43,291.43,0,0,0,26.47-19.1c3.63-2.86,7.52-5.74,11.24-8.42,4.59-3.3,9.3-3.9,14.44-6,22.31-9.36,32.08-31.32,44.23-50.43,1.14,15.48,16,22.66,25.08,7.94Zm-317-271.07c-1.54-6.93-3.73-16.87,4.91-17.26a43.29,43.29,0,0,1,6.88,1.78c2.94,1.9,4,8.21,5.18,11.27,1,2.71,1.67,6.31,3.87,8.35s4.43,2.07,6.46,4.48c6.16,7.35,10.74,20,14.47,28.86-5.06-1.22-1.38,2.17-3.53,4.1-3.36,3-2.31,2.47-7.09,2.93-8.31.82-12.11-1.4-18.61-6.57-5.51-4.39-7.28-7.27-10.46-13.61-4.53-9-2.32-14.82-2.07-24.33l-6.83,6.28c.71-2.74,1.42-5.49,2.12-8.23ZM847.67,15.26C843.25.14,835-1,823.9,9.88,822.14,6,820.05,0,814.94,0c-3.63,0-4.27,3-6.7,4.93a16.9,16.9,0,0,1-9,3.87c-8.14,1.39-15.69.91-23.35,4.55-7,3.31-10.28,8.14-15.65,13.09-5,4.64-8.69,1.64-14.42,4C739.49,33,736.64,40.75,735.41,47c-1.51,7.65.06,10.09-5.26,15.65a30.85,30.85,0,0,0-8.29,19.12c-.57,6.81.93,14.9,4.87,20.64,4.42,6.47,9,4.68,3.25,12.37-2.9,3.87-3.23,12.11-6.72,14.59-6.11,4.33-14-2.66-19.38-4.42-7.33-2.39-5.7,1.61-8.91,6.43-4.75,7.13-7.58-.23-14.05,1.2-2.39.52-3.08,3.09-3.92,3.4-3,1.1.18.69-3.2-.53-2.25-.81-.71-5.17-5.23-2.68-3.15,1.73-.78,4.81-2.21,7-2.81,4.38-7,1.83-9.06,7.48s-4.86,13.09-6,19.25c-1.4,7.47,1.89,14,1.41,21.05-.51,7.39-7.83,12.37-12.38,17.54-22.34,25.38-31.8,58.77-39.09,91-6.77,30,5.15,63.94,28.56,84.26,11.86,10.3,26.69,14.72,38.08,26.06,5.06,5,5,6.63-1,10.75-4.94,3.38-9.47,7.69-14.7,10.36a152.3,152.3,0,0,1-41.58,14.64c-7.57,1.46-15.46.88-23.12.6-8-.28-17,.85-24.78-.12-6.89-.86-12.33-6.42-19.54-5.83-2.83.23-4.56,1.31-7.44,1.06-3.78-.34-7-2.34-11-2.23-6.11.15-12.15.25-18.06.48-6.71.25-14.59-1.59-21.27-.43-6.33,1.1-13.87,6.79-19.38,10.11-6.79,4.1-14.94,8.83-21,13.83-5.74,4.73-9.79,12.25-14.27,18.12-4.74,6.2-10.23,11.75-15,17.93-18.76,24.33-38.52,54.3-44.39,84.93a69.76,69.76,0,0,0-.29,23.2c1,7,7.53,9.59,7.73,17.07.41,15.13-6.85,32.67-11.06,47a283.66,283.66,0,0,1-16.87,44c-2.66,5.5-6,10-7.72,15.74-2,7-5.16,13.55-7.44,20.57C316,808.91,285.38,865.4,263.09,925.17c-12,32.11-24.64,64-37.7,95.66C219,1036.44,212,1051.57,205,1066.94c-.92,2-1.57,5.91-3.17,7.3-2.7,2.35-.32,1-4.1.61-3.27-.34-6.66-1.83-9.95-2.38-8-1.34-16.1-1.56-24.12-2.36a173.34,173.34,0,0,0-26.55-.93c-8.59.41-17-2.14-25.58-2.7-18.31-1.21-36.37-.58-54.67-.23-14.26.26-32.51-1.43-45.71,5.19s-8.65,21.89,2.55,27.7c13.44,7,29.25,8,42.6,15.06-10,3.09-20.85,2.29-31,4.7-6.58,1.55-16.75,2.69-21.7,7.49-4.8,4.65-4.32,12.66-1.15,18.11,4,6.79,11.54,8,18.37,10.31-3.08,4.08-7.87,3.76-10.63,9.13-3.68,7.15-1.38,14.78,3.12,21,9.78,13.41,29.14,14.54,44.26,16.45a237.52,237.52,0,0,0,45.4,1.31c8.52-.58,16.93-1,25.34-2.2,9.68-1.38,8.75,5.4,12.2,12.33,3.34,6.72,8.15,9.6,15.6,9.18a232.08,232.08,0,0,0,24.95-2.34c7.63-1.29,14.24-5.23,21.56-6.87,6.59-1.48,11.82-3.87,18.09-7.08,7.19-3.67,11-9.83,17.3-14,6.46-4.34,13.21,2.47,19.56,5.87,15.44,8.24,32.38,11.88,49.26,15.93,17.21,4.14,34,9.42,51.48,12.29,8.15,1.32,15.89,1.15,24,2,9.35,1,17.45,4.56,27,4.58,33.7.07,67.62,6.15,101.34,7.28,33.37,1.11,67.29-1.65,100.63.59,17,1.14,33.55-1.15,50.5-.27,17.49.91,35.6,0,53-1.35,36.22-2.77,71.31-2,107.14-3.84a518.4,518.4,0,0,0,56.06-5.65c18-2.9,38.47.44,51.23-15.25,1.41,6.15,1.79,12.53,6.29,17.38,4.73,5.1,12.35,7.16,18.69,9.49,16.17,5.93,32.51,11.56,48.8,17.19,15.43,5.34,31,11.12,46.52,16,16.35,5.14,31.91,11.37,48,17.41,14.57,5.46,29.66,9.78,43.69,16.38,5.79,2.71,11.86,2.94,17.39,5.48,6.84,3.13,13.19,6.14,20.51,8.4,6.29,1.94,12,3.34,18.11,5.86s14.55,6.83,20.85,3.51c4.43-2.33,6.16-7.69,7.53-12.17,1.7-5.6.25-15.31,6.88-15.06s15.8,6.55,22.23,8.69c7.68,2.56,15.55,6.84,23.46,8.29s14.17,1,18.33-6.35c4.68-8.29,3.9-17.07,2.5-26.09,13.49,0,26,1.23,39.59,1.7,7.5.25,14.79.58,22.26-.24,6.75-.75,16.78,1.37,22.64-1.72,11.89-6.27,10.12-24,4.12-33.74-3.33-5.39-8.55-9-13.86-12.29-6.66-4.1-11.54-8.75-17.37-14,3.8-2.62,8.75-1.35,12.48-4.47,2.89-2.42,4.7-6.45,6-9.9,2.46-6.42-.71-21.15,4.85-24.79,3-2,8.23-1.12,11.62-2.68a20,20,0,0,0,9.89-10.72c4.5-10.52.64-21.48-3.74-31.31,16.62-2.83,41-4,45.75-23.2,1.52-6.15,1.73-13.27-.36-19.31-3.11-9-10.34-9.45-18.36-12.08-33.53-11-64.94-28.87-101.07-31.51-19.35-1.42-38.84-2.17-58.17-4.18s-38.13-5.57-57.67-3.15c-8.31,1-17.94.11-25.89,1.61-7.69,1.45-8.66,10.52-2.78,15.75,5.71,5.08,14,1.83,20.8,2.4,9.63.81,17.76,5.37,26.76,8.24a363.65,363.65,0,0,0,69.31,14.57c12.36,1.36,24,1.54,36.14,4.84,11,3,21.88,6.39,32.91,9.26-12,3.22-35.4,2.86-39.41,17.54-1.89,6.9.2,16.46,6.28,20.73,3.53,2.48,11.23,1.35,13.45,5.06-9.49,1.16-20.31-6.14-25.52,4.3-6,11.91-.13,21.31,7.48,30.15-6.72-1.11-13.63.16-20.42-.7-5.24-.67-10.13-2.24-15.11-.61-2.49.83-2.17,3-5.32,3.06-2.29,0-5.72-2.48-7.71-3.44-7.57-3.65-15.24-6.62-23.06-9.66a218.83,218.83,0,0,0-28-8.88c-13.11-3.22-26.26-11.47-39-16.13-5.42-2-12.38-4-15.07-9.64-2.78-5.81-.65-14.33-.48-20.48.48-17.3.27-34.63.17-51.94-.09-14.55-.44-28.83-1.74-43.33-1.55-17.35-.16-34.64-.82-52-.61-16,.82-31.87.38-47.83-.48-17.77-1.37-35.47-1.56-53.26-.32-32-1.4-63.88-2-95.83a502.74,502.74,0,0,0-11.13-97.74A272.2,272.2,0,0,0,1143.42,634c-1.74-4.33-3.55-4.58.61-7,2.47-1.46,5.53.17,8,.5a74.13,74.13,0,0,0,14.83.67c29.73-1.74,60.52-.33,90.14,2.34,15.41,1.39,30.9,2.72,46.37,3.27s30.85,2.94,46.28,1.81c25.86-1.89,55.34,1.06,77.5-15.58,23.64-17.76,21.42-49.22,6.15-72-16.85-25.09-45-39.38-68.49-57-23.09-17.27-50.22-29.94-75.4-43.85-53.9-29.78-111.83-57.34-169.86-77.92-59-20.93-118.29-45-182.59-40.91-32.58,2.07-69,3.28-97.77,20.58-15.35,9.25-30.22,18.89-43.41,31.1-6.21,5.75-11.69,12.84-18.3,18.1-6.15,4.88-12.19,1.54-19.21-.26l14.93-48.17a31.16,31.16,0,0,0,25.28,5.47c10.85-2.29,10-6.92,9-16.2-.45-4.31-1.63-3.57,2.11-6.29,3.06-2.23,8.66-3,12.19-4.89,8.8-4.82,16.43-11.9,19.68-21.62s.94-18.62-1.17-28.21c-2.54-11.53,3.73-6.71,10.9-12.07,3.16-2.36,4.29-4.41,3.75-8.3-.44-3.17-6.7-7.72-6.42-10.84.34-3.75,2.43-3.33,5.4-5.59a20.63,20.63,0,0,0,7.08-9.49c3.06-8.33-3.18-13.47-5.79-21.15a31.18,31.18,0,0,0-5-10c-4.41-5.55-6.12-5.43-12.27-5.38-5.18,0-5.13-.38-9-5.06a64.59,64.59,0,0,1-4.31-5.6c-2.23-3.38-2.85-2.92-.46-5.57,7.28-8.06,10.61,4.53,17.08,3.77C848.66,181.82,850,170,854.7,166c3.28-2.77,7-1.72,10.62-3.59,4.39-2.29,5.27-6.66,8.12-10.31,4.63-5.94,11.35-7,14.44-14.52,1.75-4.27,2-8.68,2.34-13.21.51-6.45,2.2-11.55,4.08-17.69s1.44-10.8-1.67-16.56c-3.21-5.94-3.59-7.94-2.78-14.64.62-5.1.8-9.63-1.86-14.18-2.87-4.91-3.47-7.47-4.4-13-.82-4.9-2.38-8.43-7.12-10.46-3.22-1.39-6.72.16-9-3s-1.67-8.2-4-11.68c-3.81-5.67-9.55-6.56-15.79-7.84Z"/><path id="ink-3" data-name="ink" class="cls-2" d="M658.88,267.55c2.21-5.2,9.63-29.21-2.57-29.33-9.68-.1-6.62,20.73-6.74,25.85-.22,9.57-10.24,10.93-14,19.61-4.37,10.13-1.35,22.22,5.46,30.47,5.21,6.3,15.22,13.51,22.37,5.8,8-8.58.31-13.39-5.26-18.74-8.06-7.74,7.36-10,11.37-16.27,6.8-10.67-.67-16.22-10.64-17.39"/><path id="ink-4" data-name="ink" class="cls-2" d="M693.82,273c1.12,4.94.78,16.23,6.15,18.89,9,4.47,11.09-17.08,11-21.83-.08-5.06-1.83-17-9.29-15.47-8.38,1.74-3.63,17.24-7.88,18.41"/><path id="ink-5" data-name="ink" class="cls-2" d="M660.12,335.55c-13.32.41-12.57,16.29.2,16.84,11.89.52,11.6-17.21-.2-16.84"/><path id="ink-6" data-name="ink" class="cls-2" d="M631.79,572.21a24.12,24.12,0,0,0,8.5,13.61c-1-2.09-5.48-14.56-8.5-13.61"/></g></g></g></g></svg>