<svg xmlns="http://www.w3.org/2000/svg" viewBox="0 0 21.72 22.38"><defs><style>.cls-1{fill:#2e3192;}</style></defs><g id="Layer_2" data-name="Layer 2"><g id="Layer_1-2" data-name="Layer 1"><path class="cls-1" d="M21.22,1.09A11.2,11.2,0,0,1,17,5.63,12.56,12.56,0,0,1,10.7,7.09a11.7,11.7,0,0,1-4.53-.82A9.24,9.24,0,0,1,2.83,4,9.18,9.18,0,0,1,.75.58,2.41,2.41,0,0,1,.58,0H7.09a3.86,3.86,0,0,0,1,1.27,4.23,4.23,0,0,0,1.5.92,5.43,5.43,0,0,0,1.6.23,5.55,5.55,0,0,0,1.57-.2,5.26,5.26,0,0,0,1.29-.72A11,11,0,0,0,15.19.28c.07-.1.14-.17.21-.28h6.32Z"/><path class="cls-1" d="M21.36,21a21.63,21.63,0,0,0-.54-4.81A12.09,12.09,0,0,0,19,12.13,9.39,9.39,0,0,0,15.7,9.31a11.06,11.06,0,0,0-5-1,9.94,9.94,0,0,0-7.84,3.13C1,13.55,0,16.51,0,20.44a11.47,11.47,0,0,0,.17,1.94H6.51a8,8,0,0,1-.11-1.29ZM6.85,15.23a5,5,0,0,1,1-1.29,3.81,3.81,0,0,1,1.33-.75,4.19,4.19,0,0,1,1.4-.27,5.36,5.36,0,0,1,1.43.2,3.57,3.57,0,0,1,1.36.72,4,4,0,0,1,1.06,1.29,5.37,5.37,0,0,1,.51,2H6.3A5.76,5.76,0,0,1,6.85,15.23Z"/></g></g></svg>