<svg xmlns="http://www.w3.org/2000/svg" viewBox="0 0 100 22.89"><g id="Layer_2" data-name="Layer 2"><g id="Layer_1-2" data-name="Layer 1"><path d="M0,.57H6.38V2.49a5.44,5.44,0,0,1,1.39-1.2A7.56,7.56,0,0,1,9.4.53,9.76,9.76,0,0,1,11.1.12,11.1,11.1,0,0,1,12.67,0a8.6,8.6,0,0,1,3.19.51,5.2,5.2,0,0,1,2,1.39A5.22,5.22,0,0,1,19,3.9a9.12,9.12,0,0,1,.31,2.35V22.32H12.88V8.71a4.63,4.63,0,0,0-.64-2.58,2.73,2.73,0,0,0-2.47-1A3,3,0,0,0,7.11,6.23a4.47,4.47,0,0,0-.73,2.56V22.32H0Z"/><path d="M46.28.57H52.9l2.91,15.37h.08L59.08.57H66l2.87,15.37h.08L72.32.57H79L71.75,22.32H65.5L62.39,8.13H62.3L59.08,22.32h-6.3Z"/><path d="M95.87,7a4.79,4.79,0,0,0-1.21-1,9,9,0,0,0-1.53-.74,9.68,9.68,0,0,0-1.68-.45,10.27,10.27,0,0,0-1.59-.14,4,4,0,0,0-2,.43,1.35,1.35,0,0,0-.78,1.25,1.47,1.47,0,0,0,1,1.39,10.6,10.6,0,0,0,2.39.73l3.09.61a14,14,0,0,1,3.09,1A6.48,6.48,0,0,1,99,11.9a5,5,0,0,1,1,3.23,6.78,6.78,0,0,1-3.13,6,9.84,9.84,0,0,1-3.17,1.32,15,15,0,0,1-3.51.41A17.53,17.53,0,0,1,87,22.63a13.7,13.7,0,0,1-2.68-.78,11.5,11.5,0,0,1-2.39-1.33,22.46,22.46,0,0,1-2.33-1.92l4-3.43a13.11,13.11,0,0,0,3.07,2.25,8.29,8.29,0,0,0,3.8.81c.27,0,.61,0,1-.06a3.57,3.57,0,0,0,1.15-.31,2.65,2.65,0,0,0,.94-.67A1.67,1.67,0,0,0,93.86,16a1.33,1.33,0,0,0-1-1.26,12.68,12.68,0,0,0-2.4-.7l-3.08-.61a14.13,14.13,0,0,1-3.09-1A6.74,6.74,0,0,1,82,10.67,4.62,4.62,0,0,1,81,7.6a7.06,7.06,0,0,1,.81-3.49,7.16,7.16,0,0,1,2.13-2.37A8.64,8.64,0,0,1,86.87.41,13.84,13.84,0,0,1,90.19,0a15.07,15.07,0,0,1,5,.84,20.1,20.1,0,0,1,4.64,2.31Z"/><path d="M43.13,1.65a11.22,11.22,0,0,1-4.25,4.54,12.56,12.56,0,0,1-6.27,1.46,11.66,11.66,0,0,1-4.53-.82,9.22,9.22,0,0,1-3.34-2.24,9.33,9.33,0,0,1-2.08-3.45,2.46,2.46,0,0,1-.17-.58H29A4,4,0,0,0,30,1.83a4.12,4.12,0,0,0,1.5.92,5.34,5.34,0,0,0,1.6.23,5.39,5.39,0,0,0,1.57-.2,5.34,5.34,0,0,0,1.29-.72A10.67,10.67,0,0,0,37.1.84c.07-.1.14-.17.21-.28h6.32Z"/><path d="M43.27,21.59a22.15,22.15,0,0,0-.54-4.81,12,12,0,0,0-1.84-4.09,9.43,9.43,0,0,0-3.28-2.82,11,11,0,0,0-5-1A9.94,9.94,0,0,0,24.77,12c-1.91,2.11-2.86,5.07-2.86,9a12,12,0,0,0,.17,1.94h6.34a7.47,7.47,0,0,1-.11-1.29Zm-14.51-5.8a4.82,4.82,0,0,1,1-1.29,3.76,3.76,0,0,1,1.33-.75,4.28,4.28,0,0,1,1.4-.27,5.42,5.42,0,0,1,1.43.2,3.57,3.57,0,0,1,1.36.72,4.08,4.08,0,0,1,1.06,1.29,5.3,5.3,0,0,1,.51,2H28.21A5.83,5.83,0,0,1,28.76,15.79Z"/></g></g></svg>