<svg xmlns="http://www.w3.org/2000/svg" viewBox="0 0 100.01 30.51"><defs><style>.cls-1{fill:#fff;}</style></defs><g id="Layer_2" data-name="Layer 2"><g id="Layer_1-2" data-name="Layer 1"><rect class="cls-1" x="56.9" y="28.02" width="43.1" height="0.53"/><g id="Layer_1-2-2" data-name="Layer 1-2"><path class="cls-1" d="M0,.57H6.38V2.49a5.52,5.52,0,0,1,1.39-1.2A8.06,8.06,0,0,1,9.4.53,10.8,10.8,0,0,1,11.1.12,13.65,13.65,0,0,1,12.67,0a8.64,8.64,0,0,1,3.19.51,5.27,5.27,0,0,1,2,1.39A5.4,5.4,0,0,1,19,3.9a8.92,8.92,0,0,1,.31,2.35V22.32H12.88V8.71a4.68,4.68,0,0,0-.64-2.58,2.75,2.75,0,0,0-2.47-1,3,3,0,0,0-2.66,1.1,4.49,4.49,0,0,0-.73,2.56V22.32H0Z"/><path class="cls-1" d="M46.28.57H52.9l2.91,15.37h.08L59.08.57H66l2.87,15.37H69L72.32.57H79L71.75,22.32H65.5L62.39,8.13H62.3L59.08,22.32h-6.3Z"/><path class="cls-1" d="M95.87,7a5.08,5.08,0,0,0-1.21-1,9.8,9.8,0,0,0-1.53-.74,9.93,9.93,0,0,0-1.68-.45,12.19,12.19,0,0,0-1.59-.14,4.08,4.08,0,0,0-2,.43,1.37,1.37,0,0,0-.78,1.25,1.46,1.46,0,0,0,1,1.39,10.15,10.15,0,0,0,2.39.73l3.09.61a14.49,14.49,0,0,1,3.09,1A6.54,6.54,0,0,1,99,11.9a5,5,0,0,1,1,3.23,6.77,6.77,0,0,1-3.13,6,9.61,9.61,0,0,1-3.17,1.32,14.33,14.33,0,0,1-3.51.41A17,17,0,0,1,87,22.63a13.07,13.07,0,0,1-2.68-.78,11,11,0,0,1-2.39-1.33A20.31,20.31,0,0,1,79.6,18.6l4-3.43a12.78,12.78,0,0,0,3.07,2.25,8.18,8.18,0,0,0,3.8.81,6.3,6.3,0,0,0,1-.06,3.28,3.28,0,0,0,1.15-.31,2.61,2.61,0,0,0,.94-.67,1.68,1.68,0,0,0,.3-1.19,1.33,1.33,0,0,0-1-1.26,13.22,13.22,0,0,0-2.4-.7l-3.08-.61a14,14,0,0,1-3.09-1A6.67,6.67,0,0,1,82,10.67,4.61,4.61,0,0,1,81,7.6a7.09,7.09,0,0,1,.81-3.49,7.12,7.12,0,0,1,2.13-2.37A8.74,8.74,0,0,1,86.87.41,14.3,14.3,0,0,1,90.19,0a15.21,15.21,0,0,1,5,.84,20.52,20.52,0,0,1,4.64,2.31Z"/><path class="cls-1" d="M43.13,1.65a11.13,11.13,0,0,1-4.25,4.54,12.46,12.46,0,0,1-6.27,1.46,11.51,11.51,0,0,1-4.53-.82,9.11,9.11,0,0,1-3.34-2.24,9.18,9.18,0,0,1-2.08-3.45,2.28,2.28,0,0,1-.17-.58H29a3.86,3.86,0,0,0,1,1.27,4,4,0,0,0,1.5.92A5.12,5.12,0,0,0,33.1,3a5.21,5.21,0,0,0,1.57-.2A5.26,5.26,0,0,0,36,2.06,10.16,10.16,0,0,0,37.1.84c.07-.1.14-.17.21-.28h6.32Z"/><path class="cls-1" d="M43.27,21.59a21.69,21.69,0,0,0-.54-4.81,12.18,12.18,0,0,0-1.84-4.09,9.49,9.49,0,0,0-3.28-2.82,11.06,11.06,0,0,0-5-1A10,10,0,0,0,24.77,12c-1.91,2.11-2.86,5.07-2.86,9a11.47,11.47,0,0,0,.17,1.94h6.34a7.83,7.83,0,0,1-.11-1.29Zm-14.51-5.8a5,5,0,0,1,1-1.29,4,4,0,0,1,1.33-.75,4.76,4.76,0,0,1,1.4-.27,5.8,5.8,0,0,1,1.43.2,3.72,3.72,0,0,1,1.36.72,4.23,4.23,0,0,1,1.06,1.29,5.37,5.37,0,0,1,.51,2H28.21A5.76,5.76,0,0,1,28.76,15.79Z"/></g><path class="cls-1" d="M29.15,30.47h-.72l-2.16-3.26v3.26h-.71V26.1h.71l2.16,3.25V26.1h.72Z"/><path class="cls-1" d="M35.33,26.68V28h1.51v.58H35.33v1.34H37v.59H34.62V26.1H37v.58Z"/><path class="cls-1" d="M47.32,26.1,46,30.47h-.81l-.92-3.31-1,3.31h-.81L41.28,26.1H42l.9,3.56,1-3.56h.81l.91,3.54.91-3.54Z"/><path class="cls-1" d="M52,30.36a1.3,1.3,0,0,1-.56-.44,1.14,1.14,0,0,1-.2-.66H52a.67.67,0,0,0,.22.47.8.8,0,0,0,.56.18.83.83,0,0,0,.57-.18.57.57,0,0,0,.21-.46.48.48,0,0,0-.13-.36.81.81,0,0,0-.32-.21,4.2,4.2,0,0,0-.53-.17,4.26,4.26,0,0,1-.69-.23,1.14,1.14,0,0,1-.46-.36,1.07,1.07,0,0,1-.19-.65,1.22,1.22,0,0,1,.19-.66A1.19,1.19,0,0,1,52,26.2a1.94,1.94,0,0,1,.78-.16,1.68,1.68,0,0,1,1,.32,1.13,1.13,0,0,1,.44.87h-.79a.6.6,0,0,0-.22-.41.86.86,0,0,0-.55-.17.79.79,0,0,0-.5.16.56.56,0,0,0-.2.45.45.45,0,0,0,.12.33.89.89,0,0,0,.32.21,4.58,4.58,0,0,0,.51.16,5.26,5.26,0,0,1,.71.24,1.16,1.16,0,0,1,.46.37,1,1,0,0,1,.19.66,1.19,1.19,0,0,1-.7,1.1,1.66,1.66,0,0,1-.8.18A2,2,0,0,1,52,30.36Z"/><path class="cls-1" d="M3.73,30.47H3L.86,27.21v3.26H.14V26.1H.86L3,29.35V26.1h.72Z"/><path class="cls-1" d="M9.29,30.23a2.22,2.22,0,0,1-.81-.8,2.37,2.37,0,0,1,0-2.31,2.19,2.19,0,0,1,.81-.79A2.25,2.25,0,0,1,10.41,26a2.32,2.32,0,0,1,1.13.29,2.09,2.09,0,0,1,.8.79,2.37,2.37,0,0,1,0,2.31,2.12,2.12,0,0,1-.8.8,2.31,2.31,0,0,1-1.13.28A2.24,2.24,0,0,1,9.29,30.23Zm1.89-.54a1.36,1.36,0,0,0,.53-.56,1.82,1.82,0,0,0,.19-.86,1.74,1.74,0,0,0-.19-.84,1.31,1.31,0,0,0-.53-.56,1.52,1.52,0,0,0-.77-.2,1.56,1.56,0,0,0-.78.2,1.37,1.37,0,0,0-.53.56,1.86,1.86,0,0,0-.19.84,1.94,1.94,0,0,0,.19.86,1.43,1.43,0,0,0,.53.56,1.56,1.56,0,0,0,.78.2A1.52,1.52,0,0,0,11.18,29.69Z"/><path class="cls-1" d="M21.9,26.1l-1.3,4.37h-.81l-.91-3.31-1,3.31h-.8L15.86,26.1h.76l.91,3.56,1-3.56h.8l.91,3.54.91-3.54Z"/></g></g></svg>