<svg xmlns="http://www.w3.org/2000/svg" viewBox="0 0 100.02 30.6"><g id="Layer_2" data-name="Layer 2"><g id="Layer_1-2" data-name="Layer 1"><g id="Layer_2-2" data-name="Layer 2"><g id="Layer_1-2-2" data-name="Layer 1-2"><rect x="56.9" y="28" width="43.1" height="0.5"/><g id="Layer_1-2-2-2" data-name="Layer 1-2-2"><path d="M0,.6H6.4V2.5A4.07,4.07,0,0,1,7.8,1.3,8,8,0,0,1,9.4.5,10.46,10.46,0,0,1,11.1.1,8.08,8.08,0,0,1,12.7,0a8.59,8.59,0,0,1,3.2.5,4.83,4.83,0,0,1,2,1.4,5.64,5.64,0,0,1,1.1,2,9.69,9.69,0,0,1,.3,2.3V22.3H12.9V8.7a5.83,5.83,0,0,0-.6-2.6,2.88,2.88,0,0,0-2.5-1A3.17,3.17,0,0,0,7.1,6.2a4.84,4.84,0,0,0-.7,2.6V22.3H0Z"/><path d="M46.3.6h6.6L55.8,16h.1L59.1.6H66L68.9,16H69L72.3.6H79L71.8,22.4H65.6L62.4,8.1h-.1L59.1,22.3H52.8Z"/><path d="M95.9,7a5.8,5.8,0,0,0-1.2-1,10.09,10.09,0,0,0-1.5-.7,8.47,8.47,0,0,0-1.7-.4,8.6,8.6,0,0,0-1.6-.1,4.48,4.48,0,0,0-2,.4,1.3,1.3,0,0,0-.8,1.2,1.5,1.5,0,0,0,1,1.4,10.88,10.88,0,0,0,2.4.7l3.1.6a16,16,0,0,1,3.1,1A5.78,5.78,0,0,1,99,11.9a4.71,4.71,0,0,1,1,3.2,6.86,6.86,0,0,1-3.1,6,9,9,0,0,1-3.2,1.3,13.42,13.42,0,0,1-3.5.4c-1.1,0-2.1-.1-3.2-.2a13.82,13.82,0,0,1-2.7-.8,11.15,11.15,0,0,1-2.4-1.3,21.1,21.1,0,0,1-2.3-1.9l4-3.4a9.73,9.73,0,0,0,3.1,2.2,8.38,8.38,0,0,0,3.8.8,3.4,3.4,0,0,0,1-.1,2.66,2.66,0,0,0,1.2-.3,2.18,2.18,0,0,0,.9-.7,1.68,1.68,0,0,0,.3-1.2,1.38,1.38,0,0,0-1-1.3,21.72,21.72,0,0,0-2.4-.7l-3.1-.6a11.24,11.24,0,0,1-3.1-1A5.78,5.78,0,0,1,82,10.5a5,5,0,0,1-1-3.1,7.19,7.19,0,0,1,.8-3.5,8.09,8.09,0,0,1,2.1-2.4A8.37,8.37,0,0,1,86.8.2C88,.1,89.1,0,90.2,0a16.87,16.87,0,0,1,5,.8,19.8,19.8,0,0,1,4.6,2.3Z"/><path d="M43.1,1.6a10.76,10.76,0,0,1-4.2,4.5,13.61,13.61,0,0,1-6.3,1.5,11.56,11.56,0,0,1-4.5-.8,9.55,9.55,0,0,1-3.3-2.2,9.63,9.63,0,0,1-2.1-3.5c-.1-.2-.1-.4-.2-.6H29a4.12,4.12,0,0,0,1,1.3,3.77,3.77,0,0,0,1.5.9,4.53,4.53,0,0,0,1.6.3,8.75,8.75,0,0,0,1.6-.2A5.39,5.39,0,0,0,36,2.1,12,12,0,0,0,37.1.9c.1-.1.1-.2.2-.3h6.3Z"/><path d="M43.3,21.6a26.07,26.07,0,0,0-.5-4.8A13.81,13.81,0,0,0,41,12.7a9.87,9.87,0,0,0-3.3-2.8,10.93,10.93,0,0,0-5-1A10,10,0,0,0,24.9,12C23,14.1,22,17.1,22,21a11.08,11.08,0,0,0,.2,1.9h6.3a5.7,5.7,0,0,1-.1-1.3ZM28.8,15.8a6.42,6.42,0,0,1,1-1.3,5.67,5.67,0,0,1,1.3-.8,3.53,3.53,0,0,1,1.4-.3,5.9,5.9,0,0,1,1.4.2,3.69,3.69,0,0,1,1.4.7,6.89,6.89,0,0,1,1.1,1.3,4.55,4.55,0,0,1,.5,2H28.3A4.07,4.07,0,0,1,28.8,15.8Z"/></g><path d="M29.1,30.5h-.7l-2.2-3.3v3.3h-.7V26.1h.7l2.2,3.2V26.1h.7Z"/><path d="M35.3,26.7V28h1.5v.6H35.3v1.3H37v.6H34.6V26.1H37v.6Z"/><path d="M47.3,26.1,46,30.5h-.8l-.9-3.3-1,3.3h-.8l-1.2-4.4H42l.9,3.6,1-3.6h.8l.9,3.5.9-3.5Z"/><path d="M52,30.4a2.09,2.09,0,0,1-.6-.4,1.45,1.45,0,0,1-.2-.7H52c0,.2.1.3.2.5a1,1,0,0,0,1.2,0,.76.76,0,0,0,.2-.5.6.6,0,0,0-.1-.4c-.1-.1-.2-.2-.3-.2s-.3-.1-.5-.2-.5-.1-.7-.2a1.76,1.76,0,0,1-.5-.4,1.42,1.42,0,0,1-.2-.6,1.85,1.85,0,0,1,.2-.7.92.92,0,0,1,.6-.4,1.88,1.88,0,0,1,.8-.2,1.69,1.69,0,0,1,1,.3,1,1,0,0,1,.4.9h-.8a.52.52,0,0,0-.2-.4,1.69,1.69,0,0,0-.5-.2.76.76,0,0,0-.5.2c-.3.1-.3.3-.3.5a.37.37,0,0,0,.1.3c.1.1.2.2.3.2s.3.1.5.2.5.1.7.2a1.76,1.76,0,0,1,.5.4,1.45,1.45,0,0,1,.2.7,1.23,1.23,0,0,1-.7,1.1,1.88,1.88,0,0,1-.8.2C52.5,30.5,52.2,30.5,52,30.4Z"/><path d="M3.7,30.5H3L.9,27.2v3.3H.1V26.1H.8L3,29.4V26.2h.7Z"/><path d="M9.3,30.2a2,2,0,0,1-.8-.8,2.35,2.35,0,0,1,0-2.3,3,3,0,0,1,.8-.8,2.17,2.17,0,0,1,2.2,0,3,3,0,0,1,.8.8,2.35,2.35,0,0,1,0,2.3,3,3,0,0,1-.8.8,2.17,2.17,0,0,1-2.2,0Zm1.9-.5a1,1,0,0,0,.5-.6,2.92,2.92,0,0,0,.2-.9,1.88,1.88,0,0,0-.2-.8,2.65,2.65,0,0,0-.5-.6,1.88,1.88,0,0,0-.8-.2,2.35,2.35,0,0,0-.8.2,1,1,0,0,0-.5.6,2.92,2.92,0,0,0-.2.9,2.92,2.92,0,0,0,.2.9,2.65,2.65,0,0,0,.5.6,1.88,1.88,0,0,0,.8.2C10.7,29.9,10.9,29.8,11.2,29.7Z"/><path d="M21.9,26.1l-1.3,4.4h-.8l-.9-3.3-1,3.3h-.8l-1.2-4.4h.8l.9,3.6,1-3.6h.8l.9,3.5.9-3.5Z"/></g></g></g></g></svg>