<?xml version="1.0" encoding="utf-8"?>
<!-- Generator: Adobe Illustrator 25.2.1, SVG Export Plug-In . SVG Version: 6.00 Build 0)  -->
<svg version="1.1" id="Layer_1" xmlns="http://www.w3.org/2000/svg" xmlns:xlink="http://www.w3.org/1999/xlink" x="0px" y="0px"
	 viewBox="0 0 100 30.5" style="enable-background:new 0 0 100 30.5;" xml:space="preserve">
<style type="text/css">
	.st0{fill:#FFFFFF;}
</style>
<g id="Layer_2_1_">
	<g id="Layer_1-2">
		<rect x="56.9" y="28" class="st0" width="43.1" height="0.5"/>
		<g id="Layer_1-2-2">
			<path class="st0" d="M0,0.6h6.4v1.9C6.8,2,7.2,1.6,7.8,1.3c0.5-0.3,1-0.6,1.6-0.8c0.6-0.2,1.1-0.3,1.7-0.4C11.6,0,12.1,0,12.7,0
				c1.1,0,2.2,0.1,3.2,0.5c0.8,0.3,1.5,0.8,2,1.4s0.9,1.3,1.1,2c0.2,0.8,0.3,1.6,0.3,2.3v16.1h-6.4V8.7c0-0.9-0.2-1.8-0.6-2.6
				c-0.6-0.7-1.5-1.1-2.5-1c-1-0.1-2,0.3-2.7,1.1C6.6,7,6.4,7.9,6.4,8.8v13.5H0V0.6z"/>
			<path class="st0" d="M46.3,0.6h6.6L55.8,16h0.1l3.2-15.4H66L68.9,16H69l3.3-15.4H79l-7.2,21.8h-6.2L62.4,8.1h-0.1l-3.2,14.2h-6.3
				L46.3,0.6z"/>
			<path class="st0" d="M95.9,7c-0.3-0.4-0.8-0.7-1.2-1c-0.5-0.3-1-0.5-1.5-0.7S92.1,5,91.5,4.9c-0.5-0.1-1.1-0.1-1.6-0.1
				c-0.7,0-1.4,0.1-2,0.4c-0.5,0.2-0.8,0.7-0.8,1.2c0,0.6,0.4,1.2,1,1.4c0.8,0.3,1.6,0.6,2.4,0.7l3.1,0.6c1.1,0.2,2.1,0.6,3.1,1
				c0.9,0.4,1.7,1,2.3,1.8c0.7,0.9,1.1,2.1,1,3.2c0.1,2.4-1.1,4.7-3.1,6c-1,0.6-2,1.1-3.2,1.3c-1.1,0.3-2.3,0.4-3.5,0.4
				c-1.1,0-2.1-0.1-3.2-0.2c-0.9-0.2-1.8-0.4-2.7-0.8c-0.8-0.3-1.7-0.8-2.4-1.3c-0.8-0.6-1.6-1.2-2.3-1.9l4-3.4
				c0.9,0.9,1.9,1.7,3.1,2.2c1.2,0.6,2.5,0.8,3.8,0.8c0.3,0,0.7,0,1-0.1c0.4,0,0.8-0.1,1.2-0.3c0.4-0.2,0.7-0.4,0.9-0.7
				c0.2-0.3,0.4-0.8,0.3-1.2c0-0.6-0.4-1.1-1-1.3c-0.8-0.3-1.6-0.5-2.4-0.7l-3.1-0.6c-1.1-0.2-2.1-0.5-3.1-1c-0.9-0.4-1.7-1-2.3-1.8
				c-0.7-0.9-1-2-1-3.1c0-1.2,0.2-2.4,0.8-3.5c0.5-0.9,1.3-1.8,2.1-2.4c0.9-0.6,1.9-1.1,2.9-1.3C88,0.1,89.1,0,90.2,0
				c1.7,0,3.4,0.3,5,0.8c1.6,0.6,3.2,1.3,4.6,2.3L95.9,7z"/>
			<path class="st0" d="M43.1,1.6c-1,1.9-2.4,3.5-4.2,4.5c-1.9,1-4.1,1.5-6.3,1.5c-1.5,0-3.1-0.2-4.5-0.8c-1.3-0.5-2.4-1.3-3.3-2.2
				c-0.9-1-1.7-2.2-2.1-3.5c-0.1-0.2-0.1-0.4-0.2-0.6H29c0.2,0.5,0.6,0.9,1,1.3s0.9,0.7,1.5,0.9C32,2.9,32.6,3,33.1,3
				s1.1-0.1,1.6-0.2c0.5-0.2,0.9-0.4,1.3-0.7c0.4-0.4,0.8-0.8,1.1-1.2c0.1-0.1,0.1-0.2,0.2-0.3h6.3L43.1,1.6z"/>
			<path class="st0" d="M43.3,21.6c0-1.6-0.2-3.2-0.5-4.8c-0.4-1.5-1-2.9-1.8-4.1c-0.9-1.2-2-2.1-3.3-2.8c-1.6-0.7-3.3-1.1-5-1
				c-2.9-0.2-5.8,1-7.8,3.1C23,14.1,22,17.1,22,21c0,0.7,0.1,1.3,0.2,1.9h6.3c-0.1-0.4-0.1-0.9-0.1-1.3L43.3,21.6z M28.8,15.8
				c0.3-0.5,0.6-0.9,1-1.3c0.4-0.3,0.8-0.6,1.3-0.8s0.9-0.3,1.4-0.3c0.5,0,1,0.1,1.4,0.2c0.5,0.1,1,0.4,1.4,0.7
				c0.4,0.4,0.8,0.8,1.1,1.3c0.3,0.6,0.5,1.3,0.5,2h-8.6C28.3,17,28.5,16.4,28.8,15.8z"/>
		</g>
		<path class="st0" d="M29.1,30.5h-0.7l-2.2-3.3v3.3h-0.7v-4.4h0.7l2.2,3.2v-3.2h0.7V30.5z"/>
		<path class="st0" d="M35.3,26.7V28h1.5v0.6h-1.5v1.3H37v0.6h-2.4v-4.4H37v0.6H35.3z"/>
		<path class="st0" d="M47.3,26.1L46,30.5h-0.8l-0.9-3.3l-1,3.3h-0.8l-1.2-4.4H42l0.9,3.6l1-3.6h0.8l0.9,3.5l0.9-3.5H47.3z"/>
		<path class="st0" d="M52,30.4c-0.2-0.1-0.4-0.2-0.6-0.4c-0.1-0.2-0.2-0.4-0.2-0.7H52c0,0.2,0.1,0.3,0.2,0.5
			c0.2,0.1,0.4,0.2,0.6,0.2c0.2,0,0.4-0.1,0.6-0.2c0.1-0.1,0.2-0.3,0.2-0.5c0-0.1,0-0.3-0.1-0.4s-0.2-0.2-0.3-0.2
			c-0.2-0.1-0.3-0.1-0.5-0.2s-0.5-0.1-0.7-0.2s-0.3-0.2-0.5-0.4c-0.1-0.2-0.2-0.4-0.2-0.6s0.1-0.5,0.2-0.7c0.1-0.2,0.3-0.3,0.6-0.4
			c0.2-0.1,0.5-0.2,0.8-0.2c0.4,0,0.7,0.1,1,0.3c0.3,0.2,0.4,0.5,0.4,0.9h-0.8c0-0.2-0.1-0.3-0.2-0.4c-0.2-0.1-0.4-0.2-0.5-0.2
			c-0.2,0-0.4,0.1-0.5,0.2C52,26.9,52,27.1,52,27.3c0,0.1,0,0.2,0.1,0.3c0.1,0.1,0.2,0.2,0.3,0.2c0.2,0.1,0.3,0.1,0.5,0.2
			s0.5,0.1,0.7,0.2s0.3,0.2,0.5,0.4c0.1,0.2,0.2,0.4,0.2,0.7c0,0.5-0.3,0.9-0.7,1.1c-0.2,0.1-0.5,0.2-0.8,0.2
			C52.5,30.5,52.2,30.5,52,30.4z"/>
		<path class="st0" d="M3.7,30.5H3l-2.1-3.3v3.3H0.1v-4.4h0.7L3,29.4v-3.2h0.7V30.5z"/>
		<path class="st0" d="M9.3,30.2C9,30,8.7,29.8,8.5,29.4c-0.4-0.7-0.4-1.6,0-2.3c0.2-0.3,0.5-0.6,0.8-0.8C9.6,26.1,10,26,10.4,26
			s0.8,0.1,1.1,0.3c0.3,0.2,0.6,0.5,0.8,0.8c0.4,0.7,0.4,1.6,0,2.3c-0.2,0.3-0.5,0.6-0.8,0.8c-0.3,0.2-0.7,0.3-1.1,0.3
			C10,30.5,9.6,30.4,9.3,30.2z M11.2,29.7c0.2-0.1,0.4-0.3,0.5-0.6c0.1-0.3,0.2-0.6,0.2-0.9s-0.1-0.6-0.2-0.8
			c-0.1-0.2-0.3-0.4-0.5-0.6c-0.2-0.1-0.5-0.2-0.8-0.2s-0.5,0.1-0.8,0.2c-0.2,0.1-0.4,0.3-0.5,0.6C9,27.7,8.9,28,8.9,28.3
			s0.1,0.6,0.2,0.9c0.1,0.2,0.3,0.4,0.5,0.6c0.2,0.1,0.5,0.2,0.8,0.2C10.7,29.9,10.9,29.8,11.2,29.7z"/>
		<path class="st0" d="M21.9,26.1l-1.3,4.4h-0.8l-0.9-3.3l-1,3.3h-0.8l-1.2-4.4h0.8l0.9,3.6l1-3.6h0.8l0.9,3.5l0.9-3.5H21.9z"/>
	</g>
</g>
</svg>
