<svg xmlns="http://www.w3.org/2000/svg" viewBox="0 0 2758 2068"><defs><style>.cls-1{fill:none;}.cls-2{fill-rule:evenodd;}</style></defs><g id="Layer_2" data-name="Layer 2"><g id="Layer_1-2" data-name="Layer 1"><g id="composition-17"><g id="character_clumsy" data-name="character/clumsy"><rect id="Background" class="cls-1" width="2758" height="2068"/><g id="Accent"><path id="Fill-1" class="cls-2" d="M1497.2,909c-3-4.45-8.49-6.68-12.81-9.62,1.93,4.44,2.1,5.78.14,10-1.51,3.26-2.52,6.73-4,10-1,2.26-2.6,4.53-3.23,6.85-.75,2.7-.36,5.45-1.36,8.13,11.8-3.18,22.28-10.64,32.32-17.57-1.87-.27-6.82-.18-8.4-1.55-1.29-1.12-1.55-4.63-2.68-6.27"/><path id="Fill-3" class="cls-2" d="M1781.09,869.2c5.15,4.1,5.15,4.1,5.33,11.06-4.33-2.63-5.77-5.86-5.33-11.06M1531.8,887.48c-2.38.19-3-6.68-3.48-8.69l2.34-.33c1.07,1.15,5.3,8.67,1.14,9m357.61,70.32a499.86,499.86,0,0,1,12.94-55.35c2.68-8.89,5.68-17.7,8.92-26.4,2.81-7.54,8.16-15.72,9.1-23.62-8.52,7.69-15.45,17.31-22.79,26.11-7,8.43-14.37,16.69-21,25.42-2.69,3.56-5.13,7.64-5.3,12.21-.18,5,2.69,8.07,4.75,12.29a68,68,0,0,1,4.68,14.61c1.17,5.22-.67,7.76-2.45,12.49-3.84-1.89-7.13-2.93-9.93-6.35-3-3.63-5.48-7.7-8.29-11.46-6.12-8.18-12.3-16.32-18.38-24.53a343.47,343.47,0,0,1-32-51.45c-9.27-18.56-17.57-37.62-26.6-56.3-1.91-3.93-2.69-8.24-7.76-8.24-3.75,0-6.94,2.34-10.46,3.26a12,12,0,0,1-2.67.46,6.56,6.56,0,0,1-.44,2.6c-.92,1.13-1.26.67-2.55.6-1.49-.08-2.57-1-4.2-.9-2.27.15-4.47,1.65-6.6,2.32V800.4c-6.76,3.47-23.14,15.09-26.7,1.92-.3,2.4.34,6.72-2,8.26-1.55,1-3.52-.05-5.21.17-2.11.27-4,1.79-5.94,2.52-.14-3.55-2.84-3.15-5.47-3.62-3.4-.62-6.38-2.51-9.88-1.9s-6,2.16-9.52.28c-2.36-1.26-4.55-3-6.92-4.36s-2.84-2.3-3.87-4.7c-1.14-2.66-.94-2.06-3.65-1.3-5.82,1.61-8.08-5.4-9.11-10.15a39.48,39.48,0,0,1,8-33.4c9.87-11.68,20.32-23.13,33.22-31.56,11.92-7.79,24.59-17.42,38.5-21.2-11.11-24.85-26.94-48-41-71.27-4,.93-6.46,3.12-10.77,2.44-3.41-.54-3.26-.28-4.52,3.26-1.12,3.16-1.74,3.62-4.76,4.59s-.65-1-3,1.52c-1,1.09-1.61,2.29-2.91,3.2-4.74,3.31-10.94,1.4-16.09,3.47-3.55,1.43-1.8,3.25-3.62,5.71-1.93,2.61-5.2,1.25-7.87.83-5.57-.87-7.25,1-8.42,6.24-.87,3.88-1.45,5.89-5.62,6.71-2.36.47-6-1.42-7.54.1-.58.59-.34,2.22-.61,3a10.52,10.52,0,0,1-2.31,3.55,21.54,21.54,0,0,1-7.38,5.05c-2.55,1.08-5.25.48-7.68,1.41-3.83,1.47-2.9,5.53-2.77,8.75-2.16-.52-2.67-.46-4-2.09-.6-.74-.27-2-1.44-2.32-1-.27-6.44,3.07-7.21,4-2.25,2.79,0,6.73-.55,10s-3.2,5.67-5.27,8l-2-5.89c-1,1.31-2.43,2.25-2.86,3.9-.23.85.47,2,.08,2.87-1.1,2.43-2.19.89-4.23,1-1.8.07-6.63,1.44-5.78,4.25.57,1.9,4.31,1.46,3.87,4-.54,3.13-4.6,1.08-6.25,1.74-2.15.85-1.3,2.68-2,4.55-1.29,3.27-3.9,3.57-6.61,5.17s-3.71,3.52-4.93,6.24c-1.53,3.4-1.37,2.49-4.66,2.19-2-.19-3.09.22-3.89,2.09-.66,1.53.46,3.41-.11,4.81-.71,1.73-4.37,3.7-5.64,5.46-3.44,4.77-4.92,10.67-7.73,15.8a55.7,55.7,0,0,1-4.23,6.54c-2.09,2.78-3.39,2.25-6.2,3.74-4.56,2.42-3.23,8.8-3.73,13a9.71,9.71,0,0,1-2.35,5.83c-.93,1-4.21,2.1-3.56,4,.78,2.37,3.4-.16,2.91,3.53-.4,2.94-3.75,5.35-4.49,8.29-.52,2,.16,4-.36,6-.58,2.23-2.32,3.92-3.16,6s.48,4.76-.24,6.36c-.84,1.87-3.93,1.39-4.76,3.81-.91,2.64,1.21,6.8,1.59,9.51.25,1.72,1.16,3.6-.3,5-1.24,1.21-4.19,1-2.92,4,.59,1.39,2.79,1.1,3,3.19.18,1.62-1.68,4.07-2.69,5.16-2.7,2.91-7.79,5.33-4.12,9,.63.63,1.41.33,2,1.2s.8,2.81,1.19,4a31.17,31.17,0,0,0,4,7.75c6.46,9.09,17.14,13.37,24.25,21.63,8.67-8.63,17.54-17,25.71-26.16,6.92-7.73,13.62-15.73,21.55-22.49,4.09-3.5,8.77-6.31,12.17-10.54,3.25-4,4.45-9.12,6.92-13.61,4.86-8.81,11.86-16.21,17.07-24.8,10.21,6.66,6,23.64,3,33.17a86.75,86.75,0,0,1-7.33,16.73c-2.53,4.5-6.08,9-7.3,14.09-1,4.14.46,7.62,2.86,11,3.45,4.83,7.47,9.35,11.1,14.06q13.23,17.19,26.47,34.36c3.2-4.61,8.47-1.59,12.72-.7,6.22,1.3,12.64.84,18.94,1.43,6.6.62,13.28,1.72,19.83,2.78,5.86.95,2,3.67,4.8,6.9,6-10.8,17.45-4,26.81-3,5.88.6,12.11.29,17.87,1s11.56,2.73,17.58,3.3c11.36,1.09,21.62,5,32.76,7,5.89,1.08,11.83,1.83,17.71,2.92,2.09.38,5.77.57,6.94,2.72,1.38,2.55-1.43,7.94-2.19,10.24-1.14,3.43-1.94,8.68-4.24,11.54-1.79,2.21-2.25.86-4.55.77-2.66-.12-1.57.46-3.41,2.51-2.27,2.55-5.46,2.56-8.61,2.85-1.44.13-4.32-.13-5.43.87-1.57,1.4-.21,1.5-.34,3.65-.2,3.77-5.41,6.58-8.46,8.06a12.41,12.41,0,0,1-6.24,1.56c-1.39-.1-3-1.43-4.42-.88-2,.79-1.82,4.51-3,6.08-2.11,2.91-5,.75-7.72,2.22-3.32,1.76-5.2,6-8.36,8-6.25,4.11-13.44,4.56-16.55-3.14-1.24,2.58-4.18,6.58-3.08,9.17,1,2.31,4.07,4,6.15,5.14,6.1,3.31,12.08,6.62,17.93,10.39,13.44,8.67,26.37,18.16,40.74,25.31,14.15,7,29,14.61,44.64,17.69a78.64,78.64,0,0,0,47.33-5.48c-2.23-4.44-2.57-7.3-2.7-12.36q-.19-7.18-.29-14.36c-.12-9.56-.07-19.12.27-28.67a398.91,398.91,0,0,1,6.16-57"/><path id="Fill-13" class="cls-2" d="M2058.84,944.11c-1.45-5.14-3.09-10.5-3.41-15.85-.23-3.85,1.2-9.58-1.1-12.94-1-1.43-2.72-1.93-3.29-3.64-.45-1.38.24-4.14.06-5.66-.48-3.94-2-7.62-3.49-11.29-3.28-8.33-3.37-17.07-6.11-25.5-1.5-4.62-4.31-8.57-6-13.12a55,55,0,0,1-2.73-12.87c-.51-4.65-.5-9.26-1.62-13.84-1-4.26-2.34-8.43-3.29-12.73a235.41,235.41,0,0,0-8.42-30c-1.36-3.72-2.34-10-5.64-12.46-2.4-1.81-5.55-1.34-8.34-1.16-3.17.22-5.77.37-7.88,3-2.69,3.38-4.41,7-7.53,10.23s-7.14,6-10,9.52c-2.25,2.76-1,3.7,1.45,6-3.13.41-5.7-.45-8,1.91s-4.07,6.4-5.54,9.35c-3.31,6.66-3.69,12.65-4.68,19.85q-1.32-2.05-2.63-4.11c-1.12,3-2.74,6.18-6,7.43-3.94,1.53-3.82,1-3.83,5.45,0,6.34-5.28,10.32-8.6,15.12a46.87,46.87,0,0,0-4.88,8.78c-1.57,3.87-.57,6.42-.2,10.38.56,5.93-5.15,10.47-8.6,14.68a10.75,10.75,0,0,0-2.28,3.55c-.44,1.19.17,1.94-.72,3.21-1.62,2.29-5,1.67-6.3,4.49-1.22,2.63.47,5.29.74,7.89.42,4.17-2.09,8-3.46,11.8a60.41,60.41,0,0,0-3.18,12.75,46.59,46.59,0,0,0-.35,7.56c0,1.17.94,4.11.17,5.17-1,1.37-3.16-.2-4.06,1.32-1.86,3.13,5.08,4.13,6.43,4.62-1.6,1-3.72,1.72-5,3.16-1.73,1.9-.66,3-1.38,5.17-.78,2.33-3.58,3-4.45,5s.85,2.56,1.76,4.31c2.23,4.28.23,10.68-.65,15.07-.36,1.76-.19,6.34-1.29,7.7-.71.87-2.28.55-2.9,1.31-1.29,1.6.07,2.25.6,4.09a13.31,13.31,0,0,1-.07,7.11c-.59,2.2-2,4.23-2.42,6.46-.44,2.46.78,3.29,1.62,5.57,1.87,5.08.56,11.36-.08,16.53-.74,6,1.37,11.71-.2,17.29l-5-2.17q.81,4,1.6,8l.78,3.92c-.32,1.7.25,2.37,1.71,2,2.88.83,7.33-3.71,9.7-5,7.14-4,14.85-6.92,22.26-10.4,7.7-3.62,14.14-8.5,21.2-13.11,7.26-4.75,14.93-8.82,22-13.84,30.64-21.75,63.86-40.08,95.81-59.86-9,1-10.57-10.84-12.35-17.15"/><path id="Fill-17" class="cls-2" d="M2096.74,696.78c4.79,1.39,3.7,5.45,1.87,9-1.84-1.74-5.09-3.79-6-6.28-1.06-3.09,1.33-3.51,4.09-2.7m134,120.12c-.25,1.23-.53,6.27-1.47,7.05s-5.28-.29-6.45-.35c-3.7-.2-6.53.55-10,1.42-6,1.49-7.11-2.26-7.14-7.87-4.63,9.15-12.35,13.72-22.21,15.49a104.48,104.48,0,0,1-13.6,1.92,50.34,50.34,0,0,1-10.39-.73c-2.09-.36-4-1.64-6-2-4.32-.8-.43,2.31-3.55,3.14-.8.21-3.83-1.1-5-1.17-1.91-.11-3.83.2-5.74.1-4.33-.22-5.75-2.63-9.18-4.49-1.8-1-3-.83-5-.56-2.12.3-.51,1-3,.56a16.58,16.58,0,0,1-2.89-1.33c-4.69-2.1-8.35-4-12-7.62-2.64-2.66-6-4.46-8.62-7.1-.95-1-1.46-2.12-2.3-3.11-1.09-1.28-1.17-1-2.54-1.91-1.56-1.08-2.77-1.69-3.72-3.41-1.63-2.93-1.56-7-1.82-10.23a53.56,53.56,0,0,1,6.39-30.73c5.71-10.6,10.46-21.82,17.15-31.88,6-9.1,13.65-17.64,21.1-25.62a46.54,46.54,0,0,1,7-6.65c1.66-1.14,3.82-1.66,5.39-2.91,3.72-3,1.91-8.43,1.91-12.56,1.18,2.08,3,5.19,5.83,4.5,1.86-.45,1.92-2.53,3.26-3.34,1-.63,2.24-.32,3.39-.43a544.78,544.78,0,0,0-17.55-65.74c-19.82,19.44-39.65,39-58.89,59-9.92,10.33-19.09,21.35-29,31.72-10.38,10.9-21,21.58-31.5,32.36,2.86,2.76,6.13,4.64,8.08,8.19a46.16,46.16,0,0,0,6.31,8.55c5.58,6.32,8.24,15.74,11.69,23.36a4.79,4.79,0,0,1,.68,3.3c-.11.83-1,1.56-1,2.56a4.7,4.7,0,0,0,1.35,3.1c.71.91,2.8,1.94,3,3.12.21,1.42-1.24,2.36-1.72,3.68-2.13,5.82,4.86,9.94,7.22,14.51,1.3,2.5,1.91,5,.24,7.54-1.37,2-4.38,2.85-2.78,6,1,1.95,3.78.88,3.37,3.6-.23,1.46-3,2.82-.41,4.42,2.13,1.29,4.66-1,3.67,3-.44,1.78-2.83,3.58-2.15,5.58s4.15,2.26,5.53,3.78c1.75,1.92,2.54,5.14,2.88,7.64,1.18,8.51,3.14,16.25,5.09,24.62,1.31,5.6-2.06,5.7-7,5.74,3.36,4.71,6.66,9.43,10.25,14s4.41,11.33,6.06,16.71q3,9.69,5.82,19.41c.88,3,1.48,5.83.31,8.79-1.34,3.42-1.32,3.43-.7,7,15.54-8.91,30.21-18.82,45-29,7.07-4.88,14.15-9.74,21.14-14.73,5.5-3.93,10.92-8.2,14.46-14.06,8.22-13.62,20.3-24.3,31.29-35.79,5.58-5.84,10.79-13.1,17.62-17.53,6.6-4.3,13.61-8.1,20.27-12.37l-7.4-10.15"/><path id="Fill-35" class="cls-2" d="M1739,999.86c6.33-3,12.17-7.07,18.33-10.42,5.34-2.91,10.19-4.32,14.78-8.36,1.92-1.69,3.72-2.32,6-3.44,2.86-1.41,5-3.92,7.58-5.8-6.49-2.53-12.85-6.43-20-6.52-3.18,0-6.11,1.1-9.29.51s-5.76-2.26-8.33-4.17c-4.67-3.46-6.74-2.94-11.79-.08-1.21.68-2.86,2.21-4.33,2.16-2.38-.07-2-1.53-3-3.16s.25-1.65-1.46-1.7c-1,0-1.5,1.4-2.66,1.63-2.18.42-6.32-1.72-8.51-2.12-3.68-.66-6.52.13-10.16.36a28.4,28.4,0,0,1-11-1.84c-3.24-1.1-6.35-2.65-9.62-3.64-4.26-1.28-5.12.38-9.06,1.29-6,1.38-11.81-7.25-17.3-2.69,8.05,11.72,19.07,21.62,29.24,31.58a221.33,221.33,0,0,0,17,15.37c2.71,2.15,5.47,4.24,8.23,6.33l3.75,2.86c2.23,1.73,2,2.25,4.15,1.25,2.86-1.33,5.06-4.16,8.19-5.52s6.29-2.43,9.33-3.88"/><path id="Fill-37" class="cls-2" d="M1743,742.94c.23,5.27,3.5,9.6-1.12,14.06-.14-2.62-.27-5.24-.41-7.86s-1.52-5.69,1.53-6.2m-5.16-23a8.09,8.09,0,0,1-4,5.12c-3.12,1.67-7.45-1-9.63,1.34s-1.93,8-4.79,10c-.91.63-1.92.19-3,1-.93.7-1,2.36-1.92,3.09-1.56,1.2-2.89,0-4.36.68-1.65.78-1.92,2.66-2.36,4.31s-.42,3.7-1.6,5c-1.45,1.54-4.79,2.63-6.56,3.72l-19,11.85c1.88,1.91,6.06,4.09,6.54,6.91.33,1.92-1,2.13.59,3.65.73.68,3.29,1.42,4.16,1.85a47,47,0,0,0,11.18,4.25c4.68,1,9.37.54,14,1.65a57.61,57.61,0,0,0,14.77,2c4.32-.1,8.39-1.3,12.67-1.67,8-.69,18.4,0,24.94-5.61-.65-5.8-1.3-10.21-3.45-15.73q-3-7.62-6-15.17a281.35,281.35,0,0,0-13.63-29.62c-1.07,6.74-3.65-2.13-6.19-2.2-1.87,0-1.89,2.34-2.35,3.69"/><path id="Fill-45" class="cls-2" d="M2181.62,793.16c3.53.87,6.36,1.32,9.67,2.84,2.44,1.12,3.37,1.72,5.51-.2,1.15-1,1.37-2.6,2.86-3.37s3.46-.52,5-.6c4-.21,8-.3,11.94-.44l-13.73-13.2c-.71,1.22-2.62,5.72-4,6-.42.08-1.73-1.32-2.43-1.38a3.8,3.8,0,0,0-2,.58c-1.69.75-2.44,2.48-4.33,3s-4-.41-5.84-.45c-.52,1.77-1.84,5-2.7,7.26"/><path id="Fill-47" class="cls-2" d="M2176,736.08c.8-3.29-.92-6.69-.4-10-.37-.57-.75-1.13-1.13-1.7a38.33,38.33,0,0,1-2.65,5.75c-1,1.52-2.56,2.81-3.24,4.55-1.23,3.15.31,5.75,1.86,8.55,2.07-2.31,4.8-4,5.56-7.11"/><path id="Fill-51" class="cls-2" d="M2148.8,743.19c-2.78.06-1.72,1.36-2.1,3.43a10,10,0,0,1-1.6,3.58c-1.42,2.21-4.85,4.44-2.9,7.43,1.67,2.55,1.76-.63,3.15.62s-8.15,11.1-9.59,11.64c-.78.29-1.64-.6-2.37,0s.23,6.21.2,7.36c-.07,3-.27,6.26,2.19,8.42,2.85,2.51,7.55,2.6,10.93,4,2.31,1,4.48,2.37,6.92,3s4.79-.74,7-.41c1.66.25,4.92,2.95,6.6,3.76,2.27,1.08,2.71,1.25,4.91.41,1.22-.46,3.59-1.36,4.41-2.42,1.25-1.59.29-1.57.46-3.74.3-4,4.45-3.5,7.29-4.62-5.63-1.69-8.75-7.75-11.52-12.69-1.23-2.18-3.71-4.78-4.37-7.22-.83-3.06,1.45-5,2.82-7.59-1.86.76-9.19,4.13-5.66.15,1.09-1.23,7.89-3.25,5.12-6.47-1.66-1.94-3.83,2-5.76,1.63-2.23-.44-4.88-4.19-6.75-5.42-2.25-1.49-6.65-5-9.39-4.93"/><path id="Fill-5" class="cls-2" d="M1472.62,856.41a101.18,101.18,0,0,1,4.41-27.85c5.62-18.53,17.54-34.77,21.38-53.89,1.84-9.2,1.25-18.53,3-27.75,1.86-9.71,1.79-19.66,2.14-29.51s.7-19.43.58-29.14c0-3.49-1-8.34-.14-11.71.74-2.83,1.87-1.77,4.27-2.79-1.67-1-5.09-1.53-5.45-3.67-.25-1.46,1.18-3.07,1.11-4.68a16.48,16.48,0,0,0-1.08-3.9c-2.1-6.8-5.1-17.27-1.22-23.8-2.33-.39-3.28-1.11-5.43-.13-2.34,1.06-4.65,3.43-6.67,5a126.58,126.58,0,0,0-11.62,10.08c-6.79,6.89-12.37,14.83-18.29,22.45s-12,15.12-18.06,22.59c-4.72,5.8-12.2,14.63-18.78,6.82-2,2.62-3.22,5.26-6.45,6.53-3.94,1.55-5.62,3.16-8.47,6.5-.57.67-2.27,3.53-3,3.8-1.5.54-.64-.47-1.81-1.23-1.84-1.19-2.72-2-3.38,1.29-.29,1.46.49,2.83-.22,4.27s-2.71,2.68-4,3.41c-2.89,1.7-6.18,1.54-9.28,2.58-5.12,1.72-8.38,9.48-14,5.76-2-1.35-3.65-3.46-6.32-2-2,1.07-2.32,3.72-5.18,2.67-1.5-.55-2.72-2.51-4.46-3.15a16.79,16.79,0,0,0-3.84-.78c-2.86-.35-5.76-.22-8.53-1.11-6-1.94-10.17-7.28-14.27-11.79-3.07-3.36-2.12-5.46-1.27-9.74.73-3.63,1.48-7.26,2.38-10.85a91.57,91.57,0,0,1,7.49-20.71c4-7.59,9.81-14,15.13-20.62,11.07-13.84,21.52-28.43,33.53-41.47,2.26-2.45,6.12-5.11,5.71-8.84-.45-4.1-5.1-2.11-8-1.4-7.66,1.91-14.7,5.62-22,8.48-4,1.59-9.45,4.69-13.78,2.65-4.08-1.92-10.55-7.07-8.26-11.78,1.75-3.62,3.65-6.25,4.57-10.34.84-3.66,1.35-7.38,2.11-11,1.8-8.71,4.12-17.31,6.71-25.82,5-16.24,11-32.11,16.44-48.19-22.34,2-42.7,8.51-63.7,16,1,2,2.86,5,2.11,7.36-.92,3-4.9,2-5.89,4-1.16,2.39,2.37,3.77,1.33,6.84-.89,2.58-3.42,5.56-4.88,7.88,6.87,4.43,4.2-4.77,9-5.4,1.34,7.32-1.75,10.77-4.6,16.93-2.54,5.49,3.3,5,4.49,9.07-3.35.56-5.65-1-7.12,3-.62,1.69.32,7.85-1.69,8-1.48.13-1-2.57-2.21-2.82-1.49-.32-5.31,5-6.24,6.06a23.17,23.17,0,0,1,10.13,2c-2.49,2.44-5,4.83-7.6,7.16,2.37,1,6.4,1.21,7.62,3.85,1.12,2.45-.59,6.89-.83,9.44,1-1.52,2.49-5.13,4.07-6.11,2.06-1.29,2.66,0,2.53,2.82-.24,5.19-7,4.86-8,9s4.93,1.25,5.08,5.32c.09,2.32-2.62,4.31-1.28,6.76-3-1.68-3.37-2.67-5-6-1.14,4.15-3.62,10.73-2.26,15,1.12,3.52,3.44,2.66.78,6.07-1,1.26-2.36,2.25-2.39,4-.08,4,5.61,7.06,1.19,10.6-1.72,1.37-3.57,1.53-4.44,3.91-.76,2.07,0,4.82-.6,7.07-1.21,4.47-4.45,7.78-7.69,10.9-2.9,2.79-5.54,6-8.7,8.45a13.06,13.06,0,0,0-3.51,3.8c-.5.73.11,1.42-.56,2.1s-2.76.71-3.81.91c-3.45.68-7.64,2.07-8.8,5.91-4.21-3.19-8.5.68-12.58,1.94a7,7,0,0,1-5.83-.28c-3.06-1.71-2.92-2-6.6-1.43-10.24,1.48-18.69-9.2-24.39-16.37-4.15-5.23-6.44-11.73-7.52-18.25-1.28-7.67-2.6-15.28-3.31-23-1.47-16.24-.91-32.23-.33-48.5-18.94,10-36.67,23-53.63,36s-31.38,29.19-46.58,44.13c3.86.25,7.59,1.62,11.47,1.7a12.67,12.67,0,0,0,5.54-1,11.45,11.45,0,0,0,2.64-1.7q1.05-2.12,2.94-.73c3.81-.32,7.33-1.1,11.14-1.65,4.84-.7,10,.76,14.72,1.58,8.87,1.53,18.29.51,26.86,3.27,7.5,2.41,15.31,5.86,22.54,9,6.94,3,13,9.58,18.93,14.28,3.4,2.71,7.14,3.86,10.72,6.08s6.08,6.81,8.53,10c5.9,7.64,12.48,14.69,18.39,22.28a42.33,42.33,0,0,1,6.53,11.12c.77,2.07.83,4.39,1.57,6.41.66,1.81,1.91,2.85,3,4.38,3.62-9.75,7.13-19.53,10.87-29.23,1.45-3.73,7.88-21.62,12.92-14.76,4.34,5.91,1.88,18,.53,24.63-1.82,8.83-3.83,17.63-5.81,26.43-3.92,17.46-7.52,35.08-12.51,52.27a18.8,18.8,0,0,0-1,3.61c-.15,2-.84.87.53,2.26.7.71,2.37.5,3,1.35,1.22,1.56.8,7,.71,8.85-.17,3.59-2.17,5.17-3.11,8.36-.82,2.8.57,5.67.6,8.48.07,7-3.56,14.57-4.81,21.48-.81,4.38,1.72,11.32-4.44,12.16,1.53,2.58-.28,3.68-1.62,5.58-1.67,2.36-1.78,4.75-2.84,7.47-.93,2.4-2.38,4.06-2.64,6.44-.23,2.17.73,4.25,0,6.45-.88,2.59-2.53,2.89-4.72,4s-1.49-.18-2.23,2c-.32.94.11,3.1-.09,4.18-1,5.11-5,8.53-8.43,12.1-1.27,1.34-2.91,4.45-4.47,5.28-2.28,1.21-5.69-.89-7.78.23-1.92,1-3.93,9.2-4.63,11.19-1.5,4.23-2.92,8.5-4.35,12.75-5.24,15.58-10.39,31.19-15.56,46.8,2.47-.06,6.6-2.79,9-1.67,2.75,1.27,1,5,2,7.1.74,1.47,5,1.24,7.05,1.35,3.37.18,4.89-.78,7.92-1.66,5.22-1.51,11.78-1,17.22-1.57,12-1.31,24.43-1.68,36.27-4.32,11.33-2.53,22.2-6.73,33.32-10-5.19-2.73-6.16-9.47-7.65-14.59-.82-2.83-1.13-5.08-2.72-7.65a47,47,0,0,1-4.61-9.32c-4.55-12.9-4.75-28.89-3.22-42.34a175,175,0,0,1,28-76.25,199,199,0,0,1,24.79-30.58c9.43-9.57,19.11-20,30.17-27.77,5-3.5,10.87-4.73,15.25-8.89,3.36-3.2,8.75-3.9,12.88-6.16,5.76-3.16,10.65-5.64,17.13-7,4.77-1,10.13-3.41,15.1-2.8,3.4.43,2.12,2,4.12,3.58,2.64,2.07,1.69-.85,3.64-1.58,1.65-.62,2.69,1,4.06,1.46a12.09,12.09,0,0,0,3.28.09c1.52.92,1.26,4.16,2.13,5.69s2.3,2.76,2.88,4.63a8.13,8.13,0,0,1-.81,6.53c-1.16,2.35-2.91,3.5-.11,5.78-7,4.6-2.68,13.85-7.94,19.42-1.79,1.89-5.81,4.54-5.75,7.48.06,3.17,5.76,4.43,2.83,7.6-2.67,2.87-8.42,1.51-11.51,4.08s-2.08,7-2.36,10.59c-.21,2.72-2.86,6-1.76,8.63.72,1.73,2,1.47,2,3.35,0,1.53-1.22,3.55-1.63,5l-3.5-1.53c-.56,2.05-1.51,4-1.77,6.17-.3,2.49.72,3.69,1.24,5.92s-.68,6.1-.9,8.77c-.26,3.06-.56,6.26-2.73,8.63-1.29,1.41-3,1.62-4.44,2.71s-1.69,2.37-2.57,3.72l6-1.77c-.81,3.83-2.25,5.38-4.81,8.4l-1.26-6.64c-.73,2.32-2.05,4.17-1.92,6.68.11,2.14,1.07,4.19,1.08,6.4,0,4.3-3.16,7.12-1.86,11.26,1.57,5,1.89,7.63.34,12.75-1.36,4.49-3.26,9-3.6,13.69-.37,5.34,2,9.93,1.54,15.35-.23,2.51-1.28,4.28,1.52,4.56,2.49.25,5.2-1.81,7.36-2.84,10.66-5.07,21.27-10.23,31.9-15.36-2-2.75-1.49-2.84-.26-6.23.94-2.56,1.86-5.12,2.79-7.67,2-5.44,3.94-10.87,6-16.28,3.77-10.07,8.83-20,10.67-30.69,1.67-9.63.81-19.23.95-28.92"/><path id="Fill-7" class="cls-2" d="M822.29,1630.76l-10.55-6.65,6.15-4.7c2.22-1.69,3.22-3.27,4.54.06,1.37,3.5-.27,7.66-.14,11.29m-4.47-25.55c4.95,5.78-4.3,7.46-7.87,8.18.58-2.78,2.64-14.29,7.87-8.18m108.48-20.35c-1.61-4.92-4.21-18.51-11.63-17.67-1.78.21-3.38,2-5.49,2.13a34.47,34.47,0,0,1-5.35-.51A30.32,30.32,0,0,0,892,1570c-4.34,1.45-7.55,3.51-12.27,3.82-3.38.21-6.93-.07-10.22.89-5.64,1.63-5.26,6.64-4.47,11.6a17.88,17.88,0,0,1-2.73-3.18c-.78-1.44-.79-3-2-4.31-2.41-2.5-5.18-1.31-8.16-1.1-3.37.24-7.69-2-10.92-.74-1.43.55-2.28,2.16-3.78,2.83a14.36,14.36,0,0,1-4.2.87c-3.18.37-6.44,1.43-9.31,1.37-4.08-.09-7.53-.35-11.58.74-3.77,1-7.38,2.57-11.15,3.61-4.19,1.15-8.52,1.26-12.77,2.09-8.48,1.66-16.83,5.47-25.49,6a131.57,131.57,0,0,0-13.44,1c-1.39.22-4.54.15-5.68.93s-2.13,4.49-2.85,6c-7.77,16-13.4,33.09-19.6,49.77q-9.68,26-19.34,52c-3,8.15-6.94,16.28-9.47,24.6-2.33,7.68,6.74,13.1,11.57,17.94,11.82,11.84,23.77,23.54,37.19,33.6s28.79,16.93,44.17,23.72c15.78,7,32.36,10.94,49.41,13.34,8.76,1.24,17.57,2.08,26.39,2.79s16.33-.51,25-1.63c-.86-2-3.67-5.53-3.34-7.77.1-.63,1.38-1.67,1.69-2.41a8.73,8.73,0,0,0,.4-3.13c.12-5.07-1.87-10,4.63-11.8q.33,4.15.65,8.31c3.15-4.73,1.16-9.8-.74-14.56l-6.63,5.52c.46-1.34,4.16-9.88,3.13-10.68s-2.86,1.33-4,.31c-.9-.84.1-2.82-.18-3.89-.45-1.72-2.32-3-2.3-4.93,0-2.51,3.25-4.45,4.77-6.06,2.23-2.37,3.14-4.06,3.13-7.3,0-4.47,2.08-4.22,5.34-7.21,5.28-4.82,5.6-11.45,2.88-17.8l7-.54c-2.17-5.44-4.39-10.88-6.52-16.34s.77-8.23,2.18-13.27l9.62,9.52c.9-10.25,3.62-20.59,2.34-30.93-.4-3.2-1-3,.47-5.41,1.06-1.71,2.55-3,3.48-4.92,1.83-3.67,2.37-7.78,2.74-11.81.34-3.74.18-7.86,1.24-11.49.8-2.75,3.43-4.29,4.07-7.33,1.09-5.28-7.34-14.5-2.43-18.41,2.49-2,5.6-.08,7.41-3.34,1.55-2.8,2.15-6.66,3.05-9.68,1.45-4.83,2.13-8.58.38-13.43-1.53-4.27-3.15-8.48-4.56-12.79"/><path id="Fill-11" class="cls-2" d="M1003.69,1337.62c-1.24-2.81-3.16-3.32-6.08-3.88-12.55-2.42-25.21-2.43-37.88-3.59a70.42,70.42,0,0,1-10.69-1.72c-2.94-.73-5.72-2.37-8.61-3.06-5.75-1.37-11.46,2.44-17.21,2.16-2.94-.15-5.43-1.9-8.23-2.63-2.3-.61-4.39-.14-6.73,0a82.88,82.88,0,0,1-13.64-.41,103.71,103.71,0,0,1-16.5-3c-3.58-1-9-2-11.63-4.75a192.43,192.43,0,0,0-15.46,29c-4.25,9.84-9.9,19.14-15.08,28.52-10.55,19.11-18.11,39.63-25.25,60.19,3.94-1.81,6.79-3.65,9.75.43,2.78,3.86,6.09,2.6,10.6,3.33,7.24,1.17,8,9.18,9.61,15.16q3.51-4.37,7-8.74c1.87,2.09,4.89,3.18,6.43,5.58,1,1.54.42,3,1,4.44s1.92,1.92,3,2.88c7.17-9.16,13.9,8.08,14.77,14,.89-2.29,1.79-4.57,2.69-6.86,1.27,1.38,3,2.56,4,4.18.62,1,.59,2.79,1.25,3.63,1,1.24,1.64.7,3.06,1,2.28.55,1.84.42,3.17,2.19,4,5.32,9.93,9.41,13.3,15.14,4.22,7.2,10,14.61,12.52,22.57,1.46,4.56,2.09,8.84,4.47,13.08,1.24,2.23,3.41,4.14,4.53,6.32,1.4,2.71-1.07,3.83-.79,6.26s4.33,4.82,6.35,5.57c3.16,1.2,6.92.82,10.26.92,4.3.12,9.4,0,13.57-1.27,3.64-1.08,3.36-3,4.36-6.16,1.18-3.8,3.25-7.44,4.9-11.06,2.45-5.38,3.64-9-3.7-10.58,4.21-.71,11.1-2,9.76-7.59-.65-2.71-3.09-4.54-2.71-7.53s2.73-4.07,5-5.66c4.26-3,7.32-8.59,8.87-13.44a11,11,0,0,0,.18-7.5,47.65,47.65,0,0,1-2.54-12.29l5.83.62a20.41,20.41,0,0,0-1.28-4.67c-.25-.52-1.6-.92-1.53-1.65.14-1.26,1.85-1.23,2.59-2.12,1.93-2.27,2.49-7.59,3.29-10.34s1.16-5.8,2.59-8.16c2.66-4.38,5.94,1.8,5.28-4.41-.34-3.16-.58-7.82-4.51-8.28-4.68-.54-6,1.3-5.58-4.3.3-4-.76-12.48,3.49-14.61,2-1,5.36-.89,7.62-1.08,2.71-.23,4.84,1.21,7.32,1.12,4.18-.14,3.94-6.09,4.42-9.12,2.12-13.45,3.18-27.14,1.87-40.73-.51-5.36-.85-12.11-3-17.15"/><path id="Fill-15" class="cls-2" d="M1112.48,806.65c-.28-9.81-.28-9.81,5.17-13.53,1.44,6.24-2.14,9.38-5.17,13.53m99,25.06c1.18-2.34,6-1.65,8.07-1.63-1,2-4.28,6.8-5.3,10.48-1.13-2.13-3.92-6.57-2.77-8.85m-12.73,69.54c2.13-1.69,1.64-1.61,2.65-3.64.79-1.58.6-2.41,2.29-3.45,3.41-2.12,3.94-2.11,4.82-6.63.76-3.94.45-9.55,2.18-13.19,1.23-2.62,5.32-2.86,5.4-6.14.13-6.37-11.39-9.61-9.19-16,.65-1.91,2.73-2.51,3.61-4.15.54-1,.17-2.32.35-3.39.4-2.4,1.06-2.92,3.27-3.55a4.21,4.21,0,0,0,.12,2.8c1.46,2.82,7.25-.56,8.57-2.5,2.72-4,.21-10.66-.69-14.84-1.22-5.68-1-10-.58-15.7L1229,819c1.35-4.1,1.58-6.31,5.34-8.87a21.2,21.2,0,0,0,7.09-7.49c.85-1.34,1.43-2.82,3.11-3.3s4.37,1.32,5.76.64c.86-.43,1.78-4.88,2.07-5.67l2.78-7.56c-5.29-13.34-9.61-27.48-17.5-39.62-7.24-11.11-17.71-20.1-28.3-28-5.28-3.94-10.62-8-16.17-11.52s-11.58-4.88-17.52-7.55-12.8-5.46-19.4-5.8c-3.36-.17-6.61.62-10,.17-3.73-.49-7.3-1.75-11-2.37,0,19.33-7,38.94-13.63,56.93-3,8.19-7.3,15.74-10.44,23.86s-6.29,16.33-9.73,24.39c-7.1,16.62-13.58,33.95-22.72,49.58-.81,1.38-1.74,2.37-1.25,3.6.14.35,1.3,1.06,1.6,1.37a14.73,14.73,0,0,1,2.32,3.22c1.5,2.73,2.19,5.8,3.3,8.69,2.54,6.61,7.07,13.1,10.58,19.29a81.92,81.92,0,0,0,15.27,18.85c2.77,2.63,6.88,5.06,8.55,8.55,1.31,2.73,1.36,5.95,2.28,8.81.33-2.29.65-4.57,1-6.86,2.43,5.15,8.68,5.62,13.21,8.19,5.72,3.25,10.7,7.25,16.81,9.88a82.13,82.13,0,0,0,19.2,5.86,49.68,49.68,0,0,0,10.11.79c3.43-.15,5.89-1.81,9-3-9.74-8.39-6.2-23-.64-32.63l5.13,11.28c1.13-2.67,5-5.19,3.26-8.34-1-1.9-2.38-1.41-2.68-3.61-.23-1.67.89-4,1.71-5.38a24.83,24.83,0,0,1,1.3,5.93"/><path id="Fill-19" class="cls-2" d="M1170.37,963.86c-2.19-4.83-11.21-6-15.73-6.88-7.48-1.54-14.64-6-21.36-9.47-6.44-3.37-11.88-6.51-17.09-11.53-2.43-2.34-4.45-2.84-7.45-4.19s-4.85-3.3-6.93-5.61c-4.35-4.83-10-8.49-13.35-14.16s-8-9.44-12.1-14.62c-4.81-6.07-8.22-13.09-12.41-19.58-7.5,8.08-9.54,20.69-14.09,30.5-5.67,12.22-11.09,24.56-16.41,36.93-9.55,22.2-18.82,44.54-27.13,67.24-.31.84-1.94,3.61-1.66,4.5s2.39,1.84,3.06,2.55c1.75,1.87,2.86,4.15,4.27,6.28a84.18,84.18,0,0,0,8.73,10.93,108.17,108.17,0,0,0,24.76,20.1c4,2.27,9.66,6.76,14.22,6.37,5.87-.5,10.33-.89,16.23.44,5.75,1.29,10.77,2.42,16.69,2.26,2.31-.06,4.71-.37,6.92.54,1.59.65,2.71,2.46,4.5,2.54,2.24.1,3.59-2,5.66-2.78a14.09,14.09,0,0,1,5.66-.67c2.79.13,9.29,2.65,11.53.49,2.41-2.32,1.49-9,6-9.92,3.35-.66,10.15,5.48,12.89,7.2-1.19-3.57-5.26-10.54-3-14.28,1-1.63,2.29-1.91,4.21-1.53,2.23.46,2.42,2,4.19,3,9.62,5.4,8.76-20.28,8.44-24.21l-7.33-.42c0,2.25.71,7.3-.81,8.22-1.24.76-5.78,0-7.36,0,3.34,3.18,4.91,5.9-.14,8.61a5.41,5.41,0,0,1-8-4.43c-.38-4.43,6.52-5.1,5.26-9.47-1.7-5.87-6.87,4.07-7.81,5.8a14.34,14.34,0,0,1,2.9-13.77c4-4.77,8.64-5.06,14.38-3.55.54-2.41,1.78-4.07,2.44-6.27.79-2.63-.41-2-1.57-4.28-1.88-3.71,1.89-5,2.6-8.19.42-1.9-.36-3.57-1.29-5.16-1-1.77-3-3-.07-4,2.2-.72,4.8,1.39,6.88-.51,2.25-2.06,1.42-6.35,2.64-8.92,1.84-3.86,3.89-1.48,6.88-.39,2.24.82,2.91.74,3.18-1.74a3.74,3.74,0,0,0-1-3.34c-1.55-1.43-3.69-.41-5.44-.89-2.37-.65-2.49-2.15-3.39-4.29,4.13-.36,4.19,1,7.94,2.54a12.58,12.58,0,0,0,9.25,0c-2.08-.75-4.62-.94-6.48-2.23-2.36-1.65-1.82-3.57-2.84-5.81"/><path id="Fill-21" class="cls-2" d="M1428.14,824c4.09-7.56,7.79-15.3,11.47-23.06,2.23-4.72,7.06-11.23,1.33-15.12-3.87-2.62-10.93-6.3-15.81-4.32-4.15,1.68-6.42,11.48-12.13,5-1,3-4.58,2.48-6.7,4.09-1.57,1.19-1.43,2.4-2.38,3.93s-2.66,2.67-3.88,4.05a32.08,32.08,0,0,0-3.7-5.74c-1.3,2.19-1,3.52-1.71,5.72-.41,1.28-.78,2.16-2.11,2.65-3,1.14-6-2.59-7.59-4.65.92,3.21,1.39,7-.81,9.76-1.7,2.17-4.48,2.59-6.08,4.87-1.79,2.54-1.91,4.48-5.13,5.52a18.81,18.81,0,0,1-3.45.75c-.71,0-1.06-1.24-1.36-1.24-1,0-2.65,1.24-3.56,1.66,2,2.53,1.23,3.58-.94,5.23-2.63,2-2.48,2.2-3.77,5.26a6.75,6.75,0,0,1-2.77,3.57c-1.45.81-3.37.12-4.57,1-2.43,1.69-2.16,6.09-4.08,8.23-2.58,2.89-5.84,4.89-8.22,8.12a73.88,73.88,0,0,0-6.17,10.43c-3.57,7-8.35,13.48-8.83,21.41-.2,3.26.07,7.61-1.43,10.64s-4.81,4.3-6.08,7.86a48.17,48.17,0,0,0-2.11,9.95c-.46,3.82,1.93,6.72.26,10.43-1.59,3.54-1.9,6.08-2.21,10-.29,3.63-3.14,6.09-1.39,9.18s3.46,5.21,3.94,8.83c.52,3.92-.11,5.35-3.51,7,2.06,3.5,4.31,6.21,5.45,10.16a29.69,29.69,0,0,0,4.92,10.24c4.76,6.25,10.77,9.55,10.67,18.26l64.83-21.68c-8.34-1.57-4.08-16.18-3.54-21.64,1-10,2.08-20,3.52-30,1.25-8.56,3.68-16.86,5-25.41a126.89,126.89,0,0,1,2.51-13.23c1-3.77,3.14-7.32,4-11,1.93-8.41,3.12-16.23,6.63-24.28,3.35-7.7,7.5-15,11.5-22.4"/><path id="Fill-23" class="cls-2" d="M798.7,1568.82c1.7-1.19,3.3-1,5.28-1.17a81.37,81.37,0,0,0,14.51-3.15,167.9,167.9,0,0,1,18.46-3.82c5.87-1,11.83-.78,17.57-2.5s10.34-3.34,16.38-3.57c6.6-.26,10.49-3.34,15.89,2.18,4.85-6.76,11.85-6.72,19.57-7.79,2.76-.38,6,0,6.6-3.31.58-3.08-1.87-7.15-3.21-9.65-7.09-13.25-13.09-27.27-22.53-39.08-9.25-11.58-21.24-24.42-34.31-31.66-7.09-3.92-15.27-6.08-22.78-9C822,1453.07,814,1449.44,806,1446c-4.18,4.48-4.53,9.89-6.62,15.56-2,5.29-5.3,10-7.08,15.31-3.56,10.74-6.6,21.38-11,31.83-9.41,22.09-18.54,44.1-27.09,66.55,13.46-2.09,26.57-3.4,40.16-4.25,2.66-.16,2.48-.82,4.4-2.16"/><path id="Fill-25" class="cls-2" d="M1511,743.86c3.86.41,8.42,1.41,10.86,4.71,10.46-15.13,23-28.65,36.08-41.55,12.69-12.53,25.57-24.92,39.48-36.11,28.14-22.64,59.21-40.81,91.35-57.1-10.19-11.73-20.21-23.63-30.47-35.29-9.58-10.88-20.86-20.06-32-29.21-.9,9.08-2.48,18.37-2.39,27.51s1.34,18.35,1.46,27.55c.1,7.48-.13,15.45-2.06,22.7-1.48,5.62-4.83,13.83-11,15.62-8.37,2.45-22.57-1.7-28.83-7.58-5.39-5.06-8.25-12.62-12.53-18.54-2.93-4.06-6-5.79-11-4.18-7.4,2.41-14.52,6.8-21.46,10.27-7.85,3.93-15.67,7.91-23.52,11.84.53.38,3.73,2,3.87,2.75,0,.22-1.79,4-1.85,4.76-.21,2.94,1.21,5.76,2.1,8.48a26.08,26.08,0,0,1,1.57,9c-.13,3.26-1.93,5.5-2.58,8.5s1.65,4.27,2.85,7a15,15,0,0,1,.75,8.85c-.43,2.43-1.92,4.94-1.9,7.4,0,1.32,1.14,2.79.75,4.15s-2,2.12-2.93,3c4.24,2.78,5,2.37,3.35,6.92-1.21,3.27-.78,6.5-.25,9.85.29,1.83,2.18,6.68.91,8.53-1.17,1.68-5,.36-6.75.3.65,3.4,1.57,3.05,3.17,5.87,1,1.83.94,4.22.83,6.26-.28,5.3-3.54,5.89-7.89,7.7"/><path id="Fill-27" class="cls-2" d="M887.64,1304.92a78.86,78.86,0,0,0,17.09,3.3c5.13.35,10.43.49,15.2,2.67,1.75.8,3.66,3,5.56,2.93,2.28,0,1.57-1.59,3.17-2.59s2.65.11,4.15.52a29.37,29.37,0,0,0,6.76.66c6.38.21,12.76.34,19.15.5,5.74.14,11.31,1.08,17,1.11,6,0,12.07,0,18.11,0-4.75-9.13-8.74-18.71-16.16-26-3.76-3.7-6.91-7.85-10.47-11.73s-7.88-6.6-11.8-10c-4.12-3.58-7.47-7.31-12.28-10.06a34.81,34.81,0,0,0-6.39-3.29c-1.79-.55-3.56-.32-5.21-1.29-1.95-1.15-3.68-3.52-5.56-4.88a62.4,62.4,0,0,0-6.18-3.84c-4.24-2.36-8.65-4.38-12.76-7-12.65,23.38-24,47-34.39,71.47,4.61-3.67,9.5-4.11,15-2.5"/><path id="Fill-29" class="cls-2" d="M1218.27,589.31a21.17,21.17,0,0,1,3.3,4.47c.91,1.92.38,3.77.93,5.61.68,2.26,3.3,3.27,1.71,6.12-1.08,1.93-3.67,2.39-4.42,4.66-1.34,4.06,3.31,7.81,5.16,11a8.78,8.78,0,0,1,1.43,6.14c-.27,1.35-1.45,2.35-1.76,3.55-.54,2.09,0,0,.24,2.1s1.16,4.52,1.32,6.84-.67,5-.22,7.35c1,5.12,4.69,12.22,7.66,16.53,2.58,3.73,4.71,5.06,8.94,3.39,22.63-8.93,27.2-33.43,31.78-54.36a179.29,179.29,0,0,0,4.39-37.05c.15-13.27,1.18-26.56.2-39.82-3.74,1.07-8.43,1.46-11,4.68-1.39,1.72-1.42,3.88-2.74,5.44-1.83,2.15-5.61,4-8,5.73l-35.57,26.6-5,3.71c-1.7,1.27-2.17,1.07-1.89,2.92.21,1.45,2.58,3.29,3.49,4.38"/><path id="Fill-31" class="cls-2" d="M1377.11,663.24c-2.13,2.77-6.17,3.4-8.76,6a23.44,23.44,0,0,0-5.15,8.87c-1.6,4.3-3.32,7.41-3.43,12.07-.1,4.33-1.48,8.3-2.13,12.52-.44,2.87-.29,3.75,2.61,4.59,4,1.16,8.9,1.06,13,.64,19.76-2,35.35-17.32,47.35-31.64,13.74-16.4,24.67-34.78,36.49-52.52-5.66-3.2-11.8-5.58-17.2-9.22-5.08-3.43-9.62-7.73-14.62-11.34-.68,2.08-.68,4.45-1.54,6.47-1,2.29-2.34,2.67-4.42,4a30.56,30.56,0,0,0-9.2,9.23c-2.21,3.36-3.3,7.65-6,10.62-2.49,2.79-6.1,3.9-8.93,6.12-4.16,3.28-7.59,9.13-10.94,13.22-2.74,3.34-4.64,7.1-7.19,10.43"/><path id="Fill-33" class="cls-2" d="M1008.56,843.27c.76,2.07,2.35,5,1.19,7.19-2.12,4-4.22-1.91-6.3-2.88a86.39,86.39,0,0,0,1.76,10.27c.6,2.27,1.4,4.58,1,7-.45,2.56-2.55,4-2.57,6.58,0,2.42,1.24,4.89,1.6,7.27-4-.47-4.83-1-7.23,2,1,.3,3.43.51,4.21,1.15,1.15.94.55.49.81,2.23.35,2.33-.09,6.18-.17,8.68-.09,2.89-1.74,2.36-3,4.34-.87,1.38-.65,4-.43,5.58.3,2.11,2.06,4.43,1.8,6.55-.31,2.56-2.74,2.71-3.94,4.63-1.58,2.52-.19,4.37.52,7,1,3.54.82,7.25,1.28,10.87,17.34-34.92,30.91-71.6,50.33-105.43.48-.82.94-1.65,1.41-2.48-.58-.33-1.15-.67-1.72-1-.26-1.7-.19-3.81-.34-5.7-.33-4.08-1.46-8-2-12.1-.58-4.53.43-8.88,0-13.38-.15-1.55-.51-3.09-.55-4.66,0-2.36,1.24-4.1,1.43-6.19s-1.07-5-1.08-7.28a37.33,37.33,0,0,1,.45-5.39c.69-4.78,2.12-9.41,2.84-14.18,1.48-9.8,1.58-19.76,3.25-29.54-2.61,3.85-5.56,7.46-8.16,11.33s-4.25,8.11-6.59,12.09a63,63,0,0,1-6.95,9.37c-2.14,2.45-2.11,2.29-1.26,5.33a10.45,10.45,0,0,1,.66,4.21c-.9,5.93-9.78,3.93-8.49,10.4.65,3.26,3.11,6.26,1.78,9.76-1.2,3.13-4.79,4.73-6.15,7.84-1.5,3.42.51,5.78.64,9.11a9.32,9.32,0,0,1-3.17,7.13c-2.72,2.72-2.59,4.51-3.29,8.36a30.25,30.25,0,0,1-3.59,9.68c-1.72,3-3.85,3.85-2.94,7.18.66,2.41,2.09,4.78,3,7.14"/><path id="Fill-39" class="cls-2" d="M967.28,896.73A113.65,113.65,0,0,0,981.11,929c1.07-5.77,2.76-11.33,3.06-17.24s.48-11.64,1.12-17.46c1.21-10.9,3.23-21.69,5.46-32.41,4.68-22.5,9.11-45,13.87-67.52Q994,811.18,983.5,828.06q-5.1,8.25-10.19,16.5c-2.78,4.5-7.84,10.12-8.62,15.47-.88,6-.29,13.15-.08,19.27a79,79,0,0,0,2.67,17.43"/><path id="Fill-41" class="cls-2" d="M1066.59,761.9c.12,1.55,1.2,3.25,1.51,4.83a34.34,34.34,0,0,1,.38,5.73c.12,4.6.31,9.2.47,13.81,9.3-12.81,14.28-28,22.67-41.4,3.63-5.78,7.64-11.37,10.3-17.68,2.93-6.94,5.63-13.84,9-20.58,1.84-3.68,3.74-7.34,5.56-11,.88-1.77,1.8-2.6.86-4.33a4.86,4.86,0,0,0-2.46-1.86c-2.42-.51-3.82,2.34-5.74,3.31-2.61,1.32-5.89.87-8.63,1.79-6.31,2.13-12.36,6.06-18.55,8.64-2,.82-3.38,1.14-3.23,3.5.14,2.1,2.3,1.67.08,3.5-1.21,1-2.78.52-4.17.39,0,4.52.93,7.26-1.28,11.3-1.76,3.23-1,5.69-1.25,9.11-.24,3.91-1.76,8-3.22,11.55-1.38,3.38-3.42,6-1.43,9.55,1.1,1.94,3.47,3.36,2.09,5.58-1.23,2-3.21,1.25-3,4.29"/><path id="Fill-43" class="cls-2" d="M1039.79,1361c-6.7-4-.35-8,0-11.74Zm-10.25-22.72c-1,0-4.46.42-5.09,1.47-.27.46.27,4.79.27,5.44,0,3.31-.35,6.61-.17,9.92s1.88,6.5,2,9.75c.14,3.06-1.79,4.69-2.7,7.41-1.2,3.59.39,13.46,4.39,14.46.09-.84.27-7.39.86-7.66,1.91-.91,2.84,4,3.38,5.39,5.3-5.24,6.87-12.43,9.35-19.45q4.29-12.13,8.56-24.26c-3.5-.35-7-.57-10.52-1s-6.91-1.6-10.35-1.44Z"/><path id="Fill-49" class="cls-2" d="M936.81,1567.73c-3,1.25-2.12,4.83-2,8,.13,4.31,1.57,7.81,5.36,10.29,1.4-3.73,6.43-11.9,5-15.79-1.18-3.14-5.56-3.66-8.3-2.49"/><path id="Fill-106" class="cls-2" d="M1511,670.48c2-1.78,5-2.94,5.36-5.85s-2.35-7.66-3.21-10.3q-1.08,8.07-2.15,16.15"/><path id="Fill-9" class="cls-2" d="M1076.3,1224c-5.09,0,.42-10.61,1.23-13,1.61,2.74,5.45,13.07-1.23,13m42.43-133.91c2-1.2,5.79-2.6,6.88-4.86,1.27-2.63-1.33-2.6-3.61-2.76a37,37,0,0,0-8.87.15c-2.7.52-3.86,1.14-6.39-.45-1.43-.91-2.79-3.15-4.44-3.48s-3.69,1.47-5.17,2.16c-5.17,2.39-10.66.84-16.14,1.1-2.07.1-3.79.59-5.71-.3-2.46-1.14-3-2.66-6-2.45-4.89.33-8.64,1.82-13.65.48-3.11-.82-7.39-4.11-10.74-3.1-3.11,1-4.73,5.83-7.19,7.9-.83-4.26-1.28-9-4.54-12.16-3.66-3.59-9.59-4.87-13.83-7.81-9.57-6.65-16.51-16.2-23.8-25.1a107.77,107.77,0,0,0-11,21.24c-3,7.49-5.83,15-8.78,22.5-6,15.08-12.3,30-18.82,44.86-13.24,30.15-28.11,59.47-41.13,89.72,8.91.22,17.61,4.6,25.28,8.79,2,1.1,2.1,1.54,3.38,3.27.63.84,1.47,2.88,2.61,3.16.66.16,2.77-1,3.82-.86,1.57.23,2.67,1.25,3.85,2.19,7.5,5.9,15,12.12,22.1,18.5a37.14,37.14,0,0,1,7.7,9.46,34.23,34.23,0,0,0,8.81,9.84c6,4.9,9.47,13.49,13.67,20a92.55,92.55,0,0,1,6.61,11.67c1.67,3.69,2.25,8.12,5.29,11,6.41,6.1,16.46,2.6,24.24,3.61,3.05.39,3.79,1.26,6.55,0,0-1.08.44-1.47,1.23-1.16a6.64,6.64,0,0,1,2.48,1.23c2,1.1,4,2.43,5.92,3.64,1.15-2.82,2.29-5.65,3.43-8.47-1.28,0-5.93.54-6.66-1.4-.61-1.63,2-2.09,2.91-3.09s1.69-4.77,3.77-4.69c1.7.06,1.61,1.55,1.58,3,3.67.08,3.64-3.12,4.26-5.84.42-1.83,1-3.64,1.49-5.46.32-1.23,2.38-6.26,1.86-7.32-1.31-2.63-9.71-2.47-4.36-5.67,1.71-1,5.72-.7,7-2.14,1.06-1.16,1.15-5.9,1.46-7.49-2.5.18-5.5,1.69-7-.54-2.22-3.21,1-8.12,2.65-10.8,2.11,1.66,3.43,3.48,5.84,1.55a20.82,20.82,0,0,0,5.9-8.87c-2.79-.09-2.29.47-3.71-1.71-.81-1.24-1-3.4-1.44-4.79-.82-2.86-2.48-5,1-5.81,2.16-.48,2.7,0,3.33,2.08.83,2.7.53,7.33.85,10.22,3.38-4.26,6.85-8.85,5.58-14.63-2.16,2.14-2.38,1.56-5-.1s-5.14-3.39-7.71-5.09c3.25-3,8.4-.09,11.6-2.51,2.18-1.65,1.06-6.69,1.21-9,.19-2.85,1.43-5.73,1.26-8.59-.18-3.09-3.72-4.44-1.85-7.28,1.32-2,4.38-1.68,5-4.65s-2.44-4.78-4.68-6.08c3.32-1.08,9.7-2.23,6.7-6.68-1.42-2.1-3.14-2.28-3.11-5.27,0-2.16,1.45-4.49,2.37-6.36,1.25,2.85,3.08,9.53,7,9.31,3.22-.19,6.08-3.09,5.15-6-2.85-9-11-9.65-18.9-11.34,1.48-5.44,5.38-5.13,9.32-2.36,2.34,1.63,3.8,3,6.77,1.32s1.6-2.41.23-4.93c-2.78-5.13,1.07-8.07,4.85-11.07,2.18-1.72,3.23-3.88,5.09-5.75s5-2.33,7.39-3.45c-2.88-1.41-5.48-2.87-8.69-1.78-2.12.73-3.68,2.16-6.11.93-5.44-2.75,1.62-3.46,2.35-5.73.41-1.29-1-3.92-.46-5.75a19.85,19.85,0,0,1,2.75-5.08c2.2-3.43,4.62-6.9,3.3-11.18,2.66,3.06,3.56,3.73,3.77,8a75.22,75.22,0,0,0,1,11.42c.17-5.55,5.26-9.25,6.12-14.58.26-1.67-1.09-5.75.5-6.64,1.23-.69,3.77,1.08,5.08,1.09-.91-5.07-1.06-10.41-2.78-15.31s-6-6.64-9.7-9.78"/></g><g id="Ink"><path id="Fill-53" class="cls-2" d="M2514.77,550.69c-6.75,1.41-13.26,3.59-20.07,4.88-8.06,1.53-16.14,2.94-24.26,4.12-5.46.79-10.4,2-14,6.59-6.67,8.49-13.39,23.13-4.2,32.14,4.32,4.24,11.89,2.9,17.45,4.66,6.18,2,11.94,4.15,18.42,5,30.23,3.93,60.29,11.23,89.85,18.5a302,302,0,0,1,39.86,13.08,100.42,100.42,0,0,1,19,9.73c5,3.41,10.81,6.78,14.88,11.36a155.88,155.88,0,0,1-50.5.32c-8.11-1.38-16.28-1-24.46-1.61s-16.4-1.2-24.59-1.92c-7.94-.7-15.84-1.58-23.73-2.77a32,32,0,0,0-8.84-.48c-1.71.22-2.8.74-4.37.39-1.31-.3-2.72-1.33-4-1.77-6.06-2-12.52-1.63-18.8-2-4.7-.27-9.72-1.68-14.43-.64-8.29,1.83-12.06,13.45-14,20.58-1.19,4.49-.24,10.08,1.22,14.51,1.66,5.1,4.73,5,8.84,7.31,5.86,3.3,11,6.92,17.33,9.49,5.3,2.17,10.72,4,16,6.34,11.55,5.06,24.06,9.44,34.94,15.82,5.9,3.46,11.48,6.92,17.66,9.92a120,120,0,0,1,16,9.31,122.39,122.39,0,0,1,27.1,26.13c-3.57,0-6.48.46-9.9-.75-4.2-1.48-8.12-3.66-12.38-5-8.1-2.56-16-5-24.05-7.89s-16.2-5.8-24.37-8.21c-4.19-1.24-8.42-1.79-12.67-2.7-3.75-.8-7.07-2.49-10.61-3.91-17-6.82-35.19-10.1-52.77-15-17.12-4.8-34-9.78-51.52-13.15-8.13-1.58-16.29-3.06-24.5-4.19-8-1.1-15,0-22.81,2.07-8.18,2.17-15.6,4.18-23.4,7.62-5.59,2.45-13.86,4.6-18.21,8.84-2.6,2.53-4.3,5-7.61,6.9a53.07,53.07,0,0,1-8,3.37c-6.13,2.22-11.94,5.14-18,7.44a41.2,41.2,0,0,1-11.91,2.85c-3.93.26-5.3,1.21-8.82,2.92-5.5,2.68-11.54,3.94-17.35,5.77s-12.35,6.64-18.61,4.44c-6.08-2.13-10-10-13.61-14.82-9.55-12.78-17.76-25.44-23.08-40.55-5.63-16-11-32.15-16.46-48.24q-4.24-12.56-8.57-25.08c-1.61-4.63-4.94-9.62-1.31-13.9,4.21-5,5.71-12.78,10.07-18.34s9.2-10.6,13.79-15.91c2.68-3.09,5.3-6.25,7.68-9.59,2-2.73,3.41-6.07,5.58-8.61,2-2.3,4.87-3.65,7-5.78,2.35-2.31,4.45-5,6.6-7.55,5.67-6.56,11-13.51,17.09-19.73,5-5.13,10.67-9.7,15.79-14.75,11.09-11,22.87-21.16,34.37-31.67,11.18-10.24,22.63-20.14,33.52-30.61,10.24-9.85,22.52-17.81,34-26,12.57-9,24.62-18.54,38.16-26.14,12.94-7.28,26-9.47,40.43-11.63-1.43,2.81-2.45,5.78-4.34,8.31-2.8,3.74-6.46,7.08-9.62,10.52q-9.65,10.5-19.41,20.89c-12.67,13.49-25.93,26.43-38.23,40.26-9.79,11-17.41,22.28-21.45,36.6-2.14,7.55-3.2,15.65,1.39,22.59,3.5,5.3,9.26,4.89,15.08,4.37,15-1.34,29.83-6.44,44.65-9.09,16.48-2.94,33.33-3.66,50-5.43,8.35-.89,16.6-3.19,25-3.82,3.76-.28,7.48.49,11.24.17s7.5-1.22,11.19-1.9c7.75-1.44,14.79-2.26,22.64-1.22s15.26.23,23.07-.41c16.48-1.36,33.38.42,49.77,2.2,15.7,1.7,31.26,3.59,46.59,7.33-16.05,4.08-32.08,8.27-48.22,12-16.48,3.8-33.5,6.35-49.68,11.26-7,2.13-14.27,2.44-21.44,3.94ZM1244,890.75c1.76-6.39,3.54-13.25,5.77-19.62a13,13,0,0,1,2.15-3.71,34.93,34.93,0,0,0-3.61,8.42c-1.5,4.95-2.87,9.94-4.31,14.91Zm-3.52,6.53c.37-.81.77-1.6,1.21-2.37-.44.77-.84,1.56-1.21,2.37Zm-1.28,3.16c.28-.79.59-1.56.91-2.33-.32.77-.63,1.54-.91,2.33Zm4.45-8.47a26,26,0,0,0-1.65,2.43,27.5,27.5,0,0,1,1.65-2.44Zm982.67-59.58c-6.41,4.07-12.63,6.65-17.88,12.3-11.82,12.73-24.56,24.78-35.93,37.9-4.58,5.27-6.88,11.8-12,16.7-5.81,5.58-12.89,9.91-19.46,14.51C2126.45,924,2112,935,2096.61,944c-3.45,2-7,4.08-10.51,5.88-2.34,1.18-5.3,1.81-7.35,3.48s-2.74,3.95-4.87,5.5c-1.57,1.14-3.46,2.07-5.1,3.11q-20.25,12.83-40.78,25.22c-13.37,8.07-26.73,16.26-39.82,24.79-7,4.53-13.52,9.63-20.51,14.1-5.69,3.64-11.64,6.88-17.22,10.7-5.92,4-11.44,8.18-17.92,11.35-6.26,3.07-12.78,5.6-19,8.73-3.68,1.83-7,4.07-10.5,6.18-2.3,1.38-4.21,1.18-6.71,2-7.26,2.49-13.77,6.79-21.17,9.08-30.78,9.54-60.53-4.07-87.36-18.53-13.52-7.29-25.83-16.62-38.78-24.84-5.66-3.59-12.73-6.2-17.91-10.41-2.61-2.13-3.61-4.36-6.66-6a56.79,56.79,0,0,1-7.76-5A353.19,353.19,0,0,1,1682,978.9c-6-6-12-12.1-17.8-18.28-4.57-4.85-8.13-10.73-12.35-15.93-10.15-12.49-20-25.17-29.79-37.94-4.75-6.2-9.45-12.45-14.22-18.64-3.17-4.13-8-8.21-9.06-13.55-1-4.92,1.88-9.63,4.26-13.69,3.57-6.1,7-12.17,9.38-18.86,3.61-10.06,9.11-29.33-1.9-36.55-4,6.72-9.17,12.7-13.53,19.21s-6.29,14.83-11.56,20.67c-5.54,6.13-12.92,10.58-18.72,16.55s-11.09,12.37-16.7,18.5c-5.88,6.41-12.11,12.48-18.29,18.59-5.81,5.75-12.45,10.37-19,15.25a230.69,230.69,0,0,1-21.26,14c-3.18,1.88-6.46,4.18-9.94,5.44-3.72,1.33-7,2.13-10.55,4-14.53,7.52-29.19,14.74-44,21.8-4,1.9-8.14,4.54-12.39,5.59-1.63.41-2.57,0-4.37.61s-3.78,1.67-5.6,2.47c-7.57,3.35-15.3,5.92-23.15,8.55-16.32,5.47-32.9,10.46-49,16.43-15.11,5.59-29.81,11.64-45.38,16-15.35,4.26-31.55,5-47.35,6.52-4.24.42-9.23,0-13.31,1.17-3.66,1.06-5.69,1.84-9.67,1.52-7.06-.56-13.65.78-20.65,1.85,10.66-21,16.19-44.86,23.91-67.07,2-5.88,4.52-11.36,6.21-17.33a74.86,74.86,0,0,1,6.36-15.35c3.23-5.94,4.23-12.82,6.38-19.2-1.67,5-2.58,10.35-4.18,15.37,2.22-4.22,4.6-8.36,6.71-12.64,2.21-4.46,2.18-7.13,2.21-11.94,5.72.66,5.94-5.22,6.82-9.42,1.34-6.38,2.76-12.75,4.13-19.12.7-1.48.46-3.89.83-5.49a48.44,48.44,0,0,1,1.81-5.54c5-14.16,10.48-28.07,14.11-42.66,4-16.09,7.5-32.34,11.1-48.52,1.91-8.59,4.45-17.35,5.28-26.13.4-4.2,2.54-17.77-3.41-19.66-4.61-1.46-9.54,12.57-10.74,15.65-2.92,7.51-5.68,15.07-8.46,22.63-2.48,6.76-4.41,13.59-7.18,20.25s-3.78,13.74-6.27,20.57c-1.45,4-3.8,7-5.4,10.8-1.17,2.8-1.61,5.85-2.56,8.72-2,6-5.08,11.77-7.33,17.7-2.87,7.56-6.4,14.85-9.55,22.3-2.88,6.82-4.52,14-7.23,20.84-2.6,6.57-6.64,12.43-9.22,19.05-2.85,7.28-5.43,14.66-8.25,21.95-5.8,15-11.68,30-16.22,45.45-1.14,3.88-3.08,7.68-4,11.13-.85,3.13-2.38,5.61-3.61,8.72-2.21,5.58-3.13,11.86-4.25,17.74h0l.34-1.9c-2.32.09-4.81.6-6.43-1.48-1.84-2.36-1.33-6.94-1.68-9.78-2.72.36-1.66,1.59-1.36,4.06l.45,3.82,1.15,9.54c.87-.51,2.7-3.48,3.45-3.56,1.14-.13,2.38,3,2.91,4.5a12.78,12.78,0,0,1-.72,1.69,30,30,0,0,0-2,3.93,60.82,60.82,0,0,1-3.26,8.48,21.64,21.64,0,0,1-2.49,3.73c-.73.85-3.1,2.26-3.5,3.16-1,2.24.52,7.84.38,10.45a26.92,26.92,0,0,1-2.21,10.13c-.62,1.31-1.76,2.09-2.34,3.22a9.9,9.9,0,0,0-1.06,4.45c-.67,7.31-3.47,14.16-6,21-2.84,7.66-5,15.52-7.63,23.26-2.44,7.33-5.56,14.38-8.14,21.65-3,8.47-5.68,17-8.49,25.57-2.11,6.39-5.33,12.06-7.59,18.34s-5.57,12.2-6.7,18.89c-1.25,7.39-5.14,14.8-8,21.72-2.35,5.78-7.21,11.93-8.18,18.09-.45,2.89.26,5.59-.69,8.47-.82,2.49-2.41,4.62-3.46,7-1.45,3.29-.37,6.33-1.36,9.68-.87,2.92-2.84,5-4.44,7.47-2.81,4.4-1.85,9.5-4.74,14.09-4.08,6.48-5.52,13.73-7.7,21.09-1.08,3.61-1.87,7.33-2.83,11-.39,1.45-.58,4.34-1.35,5.68-1,1.68-2.61,1-3.44,2s-.88,3.55-1.2,4.63a92.73,92.73,0,0,1-3.84,10c-3,7.06-6.42,13.93-9,21.15l-8.13,22.65c-1.29,3.59-2.54,7.2-3.93,10.75s-2.79,4.56-5.08,7.22-3.19,6.31-5.3,9.09a20.43,20.43,0,0,0-4.18,7.77c-1.63,6.11-2.84,12.24-5.39,18.08-6.44,14.76-14.48,28.8-21,43.58-6.78,15.48-13.22,31.13-19.09,47-5.51,14.89-9,30.31-14.68,45.14-5.57,14.68-10.37,29.58-15.87,44.3-5.71,15.29-11.45,30.56-16.56,46a158.78,158.78,0,0,0-4.28,16.78c.37-2.54.73-5,1.16-7.35-5.44,9.1-10.45,19-8.06,29.91a28.92,28.92,0,0,0,3.53-7,22.77,22.77,0,0,1-1.26,3.71c-1.53,3.23-3,5.7-4,9.29-2.29,8-4.62,15.89-6.87,23.84-1.09,3.83-2.1,7.7-3.38,11.48-1.14,3.36-3.6,6.27-4.64,9.55-1.17,3.67-.77,8.16-1.67,12a35.46,35.46,0,0,1-3.66,9.63c-1.34,2.33-3.25,4.36-4.31,6.85-1.29,3-.52,6-.87,9.23-.44,4-1.86,7.75-2.4,11.7s1.25,6.17,1.93,9.8c.7,3.8-.73,6.31-1.86,9.78-1,2.95-1.53,6.09-2.22,9.12-.3,1.29-.51,5.34-1.43,6.2-.67.63-4.52.73-5.49.9a63.88,63.88,0,0,1-10.94,1.34c-7.76,0-15.71-1.13-23.41-2-15.6-1.67-31.29-4.14-46.25-9-14.18-4.59-28.48-11.3-41.65-18.29s-25-16.72-36.13-26.78c-6-5.47-11.75-11.24-17.49-17-2.75-2.77-5.5-5.54-8.3-8.27-2.22-2.19-5.11-4.27-5.33-7.64-.25-3.8,2.49-8.16,3.83-11.59,1.2-3.07,2.37-6.14,3.54-9.22,2.84-7.52,5.63-15.06,8.43-22.59q8.7-23.42,17.37-46.83c5.84-15.7,11.84-31.06,18.89-46.24,6.76-14.54,12.91-29.2,18.53-44.22,5.3-14.18,11.61-27.85,17.63-41.74,3.22-7.45,6.28-15,8.75-22.74,2.07-6.48,3.6-12.6,6.75-18.69a64.82,64.82,0,0,0,4.91-12c1.06-3.67,1.66-6.81,4-9.79,5-6.27,7.81-13.35,10.39-20.9a339,339,0,0,1,17.9-43.46c7.13-14.06,15-27.55,21.52-41.93s15.44-27.47,21.56-42.16c12.62-30.3,30-58.2,42.81-88.43,12.6-29.77,27.61-58.37,40.48-88,6.72-15.49,13.21-31.08,19.34-46.82,2.92-7.52,5.81-15,8.84-22.51,2.73-6.74,7.45-11.91,9.4-18.87,2-7.13,5.17-12.62,8.55-19,3.48-6.62,5.29-14.62,8-21.59,6-15.26,12.31-30.41,18.75-45.49,6.62-15.52,13.69-30.81,20.56-46.2,2.6-5.82,4.05-12.08,6.73-17.86,1.33-2.88,4-5.32,5.22-8.07.55-1.28.42-3.06.88-4.42a49,49,0,0,1,2.62-5.41c6.89-14.11,14.53-27.68,20.82-42.08,6.42-14.73,13-29.45,18.65-44.49,5.58-14.87,12.64-28.89,17.44-44.08,2.29-7.24,4.57-14.51,6.32-21.91,1.53-6.44,4.4-15.95,3-22.56-.9-4.08-5.64-12.38-10.43-8.62-4.42,3.46-7.08,10.31-9.49,15.17-3.62,7.32-7.47,14.54-10.57,22.1-2.48,6-4.71,11.86-8.14,17.44-8.27,13.45-14.85,27.54-22.3,41.45a47.68,47.68,0,0,1-6,8.47c-2.22,2.62-1.59,3.87-2.5,7.19-1.63,5.95-6.57,10.75-9.08,16.37-3.34,7.49-6.23,14.54-10.4,21.65-3.6,6.11-6.9,12.3-9.88,18.74-6.79,14.71-13.31,29.54-19.89,44.35-3.5,7.85-6.88,15.76-10.71,23.45-1.69,3.38-3.33,6.81-5.16,10.11-1.18,2.15-3.33,3.9-4.33,6.09-1.14,2.47.11,4.57-.86,7-1.13,2.8-2.36,3.94-4.8,2.31-5.46-3.66-6.55-11.48-9.48-17.06-6.92-13.18-13.52-25.57-16.1-40.49-1.43-8.26-.86-16.68-.81-25,0-7.4,4.45-12.43,8.31-18.55,9.09-14.39,18.18-28.77,27.42-43,4.06-6.29,7.61-12.9,11.77-19.11,4-6,9.38-10.43,13.8-16,2.46-3.1,4.26-6.5,6.89-9.49a67.39,67.39,0,0,0,6.13-8c3.45-5.39,5.8-11.21,9.58-16.43,8.92-12.32,18-24.58,27.4-36.54,5-6.38,10.92-10.34,17.11-15.42s11.51-10.66,17.1-16.16c10.78-10.59,20.94-21.65,32.93-30.85,12.27-9.42,24.94-18.42,37.93-26.82,6.4-4.14,14.35-7.26,19.49-12.86a31.73,31.73,0,0,1,7-6.08c2.61-1.55,5.65-2,8.19-3.38,7.19-4,13.81-10.57,20.35-15.58l19.55-15c2.74-2.1,7.9-4.58,9.9-7.28,1.13-1.52,1-3.63,2.26-5.23,2.88-3.61,8.57-3.95,12.6-5.5,7.75-3,15.66-4.59,23.79-6.16,7.17-1.39,14-4.46,20.9-6.87a192.58,192.58,0,0,1,46.56-9.88c-7.14,21.06-15.25,41.81-20.71,63.41-2.21,8.75-2.59,19-6.28,27.21-1.32,3-4.87,5.79-3.1,9.15,1.32,2.49,5,5.19,7.37,6.73,4.89,3.18,10.94-.35,15.74-2.27,8.11-3.24,16-7.41,24.66-8.9,9-1.54,16.6-10.09,26-10,3.91.06,7.09,1.93,10,4.36s6.44,4.53,9.37,7.17a74,74,0,0,0,22,14c2.82,1.11,5.23.54,7.85,2.7,1.94,1.61,3.49,3.93,6.1,4.53-12.37,13.21-24.36,26.29-34.83,41.11a84.12,84.12,0,0,0-11.76,22.81c-1.33,4-2.56,7,0,10.9,1.41,2.14,3.66,3.9,6.29,3.49,6.37-1,12-9.57,15.55-14.28,4.1-5.46,8.6-10.52,12.86-15.85,8.86-11.07,16.73-22.69,27.76-31.79,3.29-2.71,6.61-5.78,10.25-8,2.91-1.78,5-.42,8.17-1,8.06-1.41,15.29-5.63,22.48-9.26,7.8-3.95,15.59-7.89,23.45-11.71,4.11-2,10.16-6.24,15-4.21,5.39,2.26,8.45,10.71,11.41,15.23,2.84,4.34,5.4,8.11,10.06,10.58,7.65,4.06,22.51,9,29.22,1.18,9.48-11.05,8.52-29.16,7.7-42.71-.5-8.31-1.52-16.68-.88-25,.56-7.32,1.42-14.63,2.14-21.94,13.49,11,26.23,22.27,37.41,35.71,5.94,7.15,12.1,14.11,18.24,21.1,3.07,3.5,5.84,6.56,7.93,10.68a43.66,43.66,0,0,0,7.07,9.53c5.62,6.08,9.46,14.15,13.74,21.25q6.21,10.27,12.25,20.68c7.85,13.56,15.2,26.91,21.2,41.4,3.12,7.53,7.36,14.36,10.54,21.86s6.28,14.88,9.32,22.37c1.75,4.32,3.86,8.67,5.22,13.13.95,3.1.11,7,1.25,9.89s3.7,5.18,4.86,8.14,1.86,6.18,3,9.18c5.85,14.67,13.87,28.67,20.42,43,6.79,14.93,13.57,29.88,21.7,44.15,8.25,14.48,18.64,27.76,28.59,41.09,5.21,7,10.6,13.85,15.59,21,1.8,2.57,3.41,5.52,5.81,7.59s5.14,2.73,7.78,4c1.45-3.87,3.44-6.41,2.81-10.71-.52-3.66-1.89-7.25-3-10.74-2.19-6.76-7.93-12.8-6.49-20.3,1.34-7,7.06-12.52,11.39-17.8q8.58-10.46,17.23-20.87c19.35-23.33,39.89-45.68,59.93-68.46,10.2-11.6,20.2-23.39,30.75-34.68,4.73-5.06,10.21-9.17,15.25-13.89,4.13-3.87,6.86-8.75,10.75-12.77,2.89-3,6.32-5.15,9.26-8.16q3.59-3.68,7.16-7.34,7.89-8.07,15.71-16.18c10.42-10.85,20.15-22.3,30.42-33.29,19.81-21.23,40.77-41.61,61.46-62,6,17.64,10.91,36,15.19,54.16,1,4.46,1.49,9.1,3.07,13.39s3.59,8.27,5.23,12.46c3.64,9.32,6.42,19.26,11,28.14,8.59,16.85,16.15,36.41,28.53,50.92,6.16,7.22,14.6,13.4,21.78,19.61q11.61,10,23.2,20.06c-7,5.23-13.86,10.49-21.21,15.18Zm-640.39,112a6.31,6.31,0,0,0-2-2.83,4.47,4.47,0,0,1,1.63,2,61.22,61.22,0,0,1,3.09,8.23c-.85-2.5-1.71-5-2.75-7.42ZM1399,1078c5.34,6,11,11.68,16.4,17.6,5,5.45,9,11.44,13.47,17.3q14.47,19,30.23,36.89c10.09,11.52,21,22.39,30.61,34.31s16.89,24.7,24.11,38.14a105.39,105.39,0,0,0,11.66,17.66c2.11,2.54,4.94,4.77,6.27,7.83,1.48,3.39,1.92,7.48,2.76,11.06,7.51,32,15.18,64,22.42,96.12,3.5,15.55,5.85,31.32,9.23,46.89,3.44,15.76,8.58,31.08,11.82,46.9,6.57,32,11.06,64.5,18.12,96.43,6.88,31.09,18.81,60.65,25.3,91.87.91,4.39,2.22,8.39,1.2,12.82a49.89,49.89,0,0,0-1.55,10.75c-.12,6.58-.75,11.76-4.56,17.37-7.52,11.07-18,20.7-30.17,26.22-6.52,3-12.72,7-19.76,8.62-3.39.8-6.69.27-10,.77s-6.23,2.87-9.36,4.16c-12.54,5.15-28.55,3.61-41.86,3.62-14.67,0-29.4-1-42.95-7.11-1.11-.5-2.2-1-3.28-1.59q-2.74-.42-1-2.46c0-1.49.85-3.18.92-4.75.14-3.34-.86-6.55-1.7-9.73q-3-11.36-5.58-22.8c-7.18-31.64-10.58-63.77-15-95.87-2.27-16.55-5.58-33-8.43-49.42-2.74-15.8-4.38-31.67-6.45-47.56s-4.26-31.66-6.4-47.48c-1.16-8.66-3.67-17.17-4.78-25.8-.83-6.53.9-12.7-.58-19.25-3.49-15.42-3.63-31.41-7.56-46.74-4-15.78-9.91-31.3-15.36-46.64q-4.23-11.93-8.45-23.86c-1.66-4.7-3.57-9.75-8.41-12-2.68-1.24-5.33-1.1-7.74-3-3-2.29-5.5-5.4-8.13-8-5.67-5.7-11.3-11.44-17-17.12-22.13-22.11-43.58-45.29-68-64.88-11.36-9.1-21.88-19.37-34.46-26.78-13.48-7.94-26.77-16.2-40.25-24.13a149.83,149.83,0,0,0-20.63-10.12c-6.33-2.54-2.47-8.59-.64-13.49,2.82-7.57,5.27-15.26,7.63-23,1.79-5.84,2.76-13.41,8.75-16.58,3.91-2.07,5.62.34,9.37,1.51a24.12,24.12,0,0,0,8.24.84c6.26-.27,13.47-3.08,19.65-2.1a25.68,25.68,0,0,0,10.37,0,111.33,111.33,0,0,1,11.41-1c7-.52,14.14-.61,21-1.82a285.82,285.82,0,0,0,44.78-11.18c15.47-5.42,30.21-12.94,45-19.87,1,6.83,2,13.76,4.49,20.23,2,5.17,5.35,12.08,10.29,14.82,10.81,6,16.46,16.35,24.48,25.32Zm226.12,650.16c4.69-2.55,5.58,1,8.37,4.88q11.42,15.78,23,31.47,11.22,15.29,22.48,30.55c7,9.55,14.78,18.66,21.22,28.6,6.63,10.21,11.88,21.42,17,32.45,4.32,9.39,10.6,19.16,6.06,29.62-4.22,9.71-16.21,13.81-24.93,18.43-11,5.84-19.71,10-32.18,5.53-23.74-8.45-47-19.43-69.47-30.73-20.6-10.36-36.19-25.67-53.27-40.7-9-7.9-18.26-15.17-26.65-23.72-8.72-8.89-17-18.19-25.81-27-13.67-13.75-28-25.92-25.64-47.22,13,4.37,25.86,9.85,39.4,12.47,14.27,2.76,28.83,4.44,43.38,3.69,6.27-.33,12-2,18.12-3.25,6-1.19,12,0,17.65-2.89,5-2.59,8-5.67,13.71-7a43.65,43.65,0,0,0,15.56-6.66c4-2.79,7.75-6.12,12.07-8.47Zm-411.45-565.14a1,1,0,0,1,.38.15,2.5,2.5,0,0,0-.38-.15Zm-15.2-8.58.43.29-.43-.29ZM919.06,1906.75q9.29,16.47,18,33.25c2.9,5.56,5.67,11.19,8.41,16.83,2.53,5.2,4.8,9.24,5.1,15-12.19-1.36-24.56-8.58-34.92-15-10.88-6.71-20.1-15-29.34-23.76-9-8.54-18.21-17-27.85-24.81a117.65,117.65,0,0,0-14-9.62,19.45,19.45,0,0,1-4.25-3.08c-1.5-1.56-2-4.28-3.85-5.46-3.72-2.41-9.52,1.18-12.85,2.81a55.48,55.48,0,0,0-12.33,8c-4.23,3.73-7.07,8.49-10.71,12.73-3.42,4-6.87,7.78-10,12-7,9.64-14.53,19.89-23.4,27.87-4,3.64-9.14,6.53-12.61,10.63a83.12,83.12,0,0,1-10.8,10.67,203.67,203.67,0,0,0-24,23c-8.33,9.41-17.79,17.84-26.78,26.6-1.38-5.55,1.09-10.19,3.53-15,2.85-5.58,4.87-11.62,7.25-17.41a407.25,407.25,0,0,1,17.37-37c6-11.21,12.07-22.34,17.84-33.65,4.79-9.38,12.21-21,9.92-31.93-.89-4.28-3.22-10.73-7.84-12.16s-9.23,2.61-12.94,4.81c-10.87,6.43-22.14,11.49-33.79,16.35S671,1908,659.79,1913.84c-10.85,5.63-21.08,12.36-31.93,18-5.36,2.77-11.05,4.82-16.35,7.72-5.11,2.79-10.06,5.87-15.14,8.7a91.78,91.78,0,0,1-31.94,11.16c8.15-10.49,18.87-18.19,29.26-26.28,12.1-9.42,24.14-18.91,36.65-27.81,11.24-8,22.67-15.7,33.67-24,5.14-3.89,10.22-7.88,15.14-12,4.13-3.51,8.57-7,9.57-12.68a14.44,14.44,0,0,0-5.75-13.9c-4.31-2.94-9.79-2.27-14.62-1.59-13.6,1.94-26.85,6.09-40,9.91-3,.88-6.12,2.32-9.15,3s-6.66.41-9.79.57c-5.88.29-11.74.6-17.57,1.35-6.1.78-12.32.56-18.38,1.53-5.52.88-9.35,3.87-15,3.73-25-.6-48.28,13.31-73.06,13.31q22.17-13,44.44-25.8c6.8-3.92,13.89-7.4,20.46-11.7,7.28-4.76,14-10.17,21.49-14.61,26.89-15.92,56.81-27.55,81.34-47.15,6-4.76,11.63-9.87,17.37-14.87,1.3-1.13,3-3.23,4.55-4,2.47-1.16,1.68-1.48,3.84.73,2.38,2.44,4,5.41,6,8.18a127.31,127.31,0,0,0,28.23,28.52c12.59,9.26,27.09,14.88,41.2,21.38s28.25,13.53,43.15,18.47,30.92,7.52,46.61,9.37c16.6,2,32.08.85,48.56-1.2,1,12.39,2.21,22.88,8,34.1,5.52,10.6,12.52,20.42,18.38,30.83ZM981.49,963a34,34,0,0,1,3.92.79c-1-.25-2.29-.26-3-.47a8.35,8.35,0,0,1-.88-.32Zm4.45,7.15a15,15,0,0,0,1.3-3.7,10.59,10.59,0,0,1-1.3,3.7ZM844.08,1179.75c-18.48,11-35,24.81-52.94,36.67a277.36,277.36,0,0,1-27.81,16.09c-4.61,2.35-9.25,4.67-14.06,6.59-4.17,1.67-8.18,4.35-12.44,5.62-4.64,1.37-9.4.54-14.1,0-4.08-.49-8-.23-11.4-2.92-6.05-4.87-10-14.6-13.58-21.22-5.15-9.47-11.18-19.34-14.86-29.46-3.44-9.46-8-18.1-9.77-28,3.18-5.27,2.9-10.75.24-16.12-1.23-2.47-2.81-4.75-4.26-7.09-1.64-2.64-1.57-3.26-4.51-3.3q4.24,13.19,8.48,26.36c-2.79-8.65-6.56-17.49-8.48-26.36-1.68-7.74-2.33-15.25-5.09-22.79-1.41-3.84-3.64-7.44-4.74-11.36-.91-3.23-.89-6.64-1.32-10-1.2-9.22-3.57-18.36-5-27.56-2.77-17.57-4.55-35.32-7.91-52.79-3.47-18-7.92-35.82-11.85-53.69-1.49-6.83-4.17-12.67,2.49-17.33,6.38-4.45,13.48-8.15,20.22-12a177.37,177.37,0,0,1,19.55-10.25c5.78-2.43,11.34-4.74,16.59-8.19,3.27-2.14,6.62-2.12,10.32-3.32s7.56-2.66,11.34-4q10.4-3.68,20.77-7.39c3.79-1.35,11.57-6.31,15.12-2.55,1.83,1.94,2.05,6,2.57,8.43q1.27,6,2.44,12c3,15.53,6,31.12,8.37,46.77,2.36,15.35,3.71,30.86,6.1,46.2.58,3.76,2.48,8.4,2.1,12.19-.27,2.78-2.21,4.26-4.11,6.07a181.16,181.16,0,0,0-13.72,14.54c-4.77,5.65-9.33,11.48-14.48,16.79s-9.38,9.83-13,16.15c-3,5.29-7.1,10.27-5.69,16.61,1.1,4.93,2.53,9.83,8.39,7.81,6.77-2.35,12.63-9,17.92-13.6s10.33-9.13,15.63-13.54c5.85-4.88,12.39-9,18-14.07,4.92-4.41,9.13-9.54,13.79-14.21,11.19-11.19,23.22-21.22,35.12-31.61,5.49-4.79,9.86-10.64,14.83-15.93s10.23-10,15.37-15c11.17-10.76,22.79-21.59,33.19-33.09,5-5.51,10.33-10.66,15.35-16.13,2.07-2.26,3.6-5.24,5.57-7.39s4.84-3.42,7-5.37c9.33-8.51,14.53-20.35,23.73-29a145.76,145.76,0,0,1,6,16.43c1.65,5.17,2.9,11.2,5.8,15.83,1.36,2.15,3.66,3.71,4.83,5.95s.82,4.71,1.62,7c1.51,4.33,4.64,8.9,7,12.86,2.61,4.43,6.29,8.46,9.78,12.2a20.35,20.35,0,0,0,2.8,2.57c-.41-.22-.81-.45-1.23-.66,2.77,4.72,5.28,6.89,9.79,10-.13.27-.26.54-.37.79-2.34,5-5,9.72-6.8,15-3.17,9.12-7.82,17.66-10.81,26.84-1.61,4.94-2.24,10-4.59,14.73-2.06,4.12-4.74,7.9-6.76,12-4.71,9.7-7.79,20.35-11.5,30.46-3.84,10.44-8.27,20.54-13,30.6s-9.1,20.11-13.27,30.33c-1.88,4.6-3.37,9.75-6.33,13.8-3.21,4.39-7.83,5.53-12.7,7.27-19.29,6.89-38.08,17.24-55.66,27.69ZM612.93,883.54c-10.92-9.24-26.17-6.64-39.58-6.7-15.58-.06-31.09,3-46.62,4s-31.11,1.78-46.67,1.46a225.52,225.52,0,0,1-41.3-4.42,169.06,169.06,0,0,0-20.16-2.67c-4.28-.37-8.24-1.67-10.39-5.68-2.84-5.29-2.1-13.34-2.3-19.17s-1-13,1.25-18.35,7.22-7.92,12.31-9.87c6.25-2.4,12.51-4.77,18.76-7.16,25.32-9.7,51.36-20.8,78.63-23.12,7.58-.65,15.18-.72,22.77-.94,6.53-.2,12.55-1.78,19-2.45,13.45-1.41,26.61-1.72,39.88-4.53,3.65-.77,5.94,1.17,9.65,1.76a38.05,38.05,0,0,0,8.73.17c6-.43,11.74-1.17,17.76-.66,7.08.6,14.21,1,21.24,2.07,6.31,1,12.42,2.69,18.78,3.41,6.88.78,13.84,1.08,20.61,2.59,3.42.77,8.63,1.5,10.65,4.79,2.67,4.35.66,12.7.4,17.51-.37,6.77-.78,13.54-.71,20.32a116.42,116.42,0,0,0,2.6,21.69c1,5.19,3.22,11.29,2,16.64-.64,3-2.79,4.34-5.85,3.87-2.11-.33-3.85-2.4-5.8-2.65-3.8-.49-.11,2.35-2.28,4.78-1.75,2-4.63,1.41-7,2.05a54.87,54.87,0,0,0-7.15,2.95c-5.34,2.36-10.89,4-16.14,6.57-11.7,5.76-22.81,12.6-33.94,19.36-1.86-5.54-3.19-13.93-6.94-18.51-3.22-3.94-8.43-5.91-12.27-9.16Zm766.36-350.43c2.51-7.07,5.81-14,7.9-21.18.74-2.58.74-6.24,3.38-7.69,2.19-1.2,6.16-.44,8.46-.42,4.25,0,8.51,0,12.76,0,2.13,0,5.21-.5,6.46,1.73s-.78,6.53-.82,9.09a41.81,41.81,0,0,0,1.84,11.42c4.21,15.91,8.57,31.63,13.41,47.38-4.82-2.17-8.57-7.33-14.07-7.91-3.48-.37-6.15,1.71-9.35,2.23-2.74.45-5.47.62-8.19,1.25-12.24,2.85-23.37,9.19-35.8,11.42.58-4.55.76-8.71,2.16-13.11,1.22-3.83,2.57-7.62,3.87-11.42q3.93-11.4,8-22.76Zm40.38-106.72c5.88-2.6,11.76-10.15,6.26-16.38-3-3.35-10.49-1.59-14.37-.79-5.45,1.12-26.36,14.76-28.93,5.49-1.69-6.09,1.34-15.26,4.1-20.61a34.24,34.24,0,0,1,6.92-9.29c3-2.79,4.27-1.93,8-1.52,6.13.68,11.83-1.21,15.86,4.76.78,1.16.94,2.74,2.58,3,1.27.19,2-1.38,3.3-1.38,2.07,0,2.3,1.43,3.1,3,2.11,4.18,5.21,12.41,11.49,9s6.73-14.68,6.73-20.72c0-9.38.65-18.74,1.16-28.1.4-7.41,1.05-14.17,6.45-19.75,5.1-5.27,9-12.59,15.24-16.62,7-4.56,16.08-4.05,24.09-4.66,9.26-.71,18.76-1.73,28-.78a187.53,187.53,0,0,0,28,1c9.32-.42,18.63-1,28-1.24,8.86-.22,18.12.52,26.9-.43,3.56-.39,8.32-1.68,10.67,1.85,2.69,4,2.46,11.28,3.21,15.9-9.64-1.77-25.38-6.22-29.08,7.4-1.12,4.13,2.35,7.81,5.39,10.2,4.44,3.5,10.66,3.4,16,4.16,3,.42,7.86.34,9.63,3.37s.81,8.31,1,11.5c.82,13.25,2.71,26.42,4.09,39.62,1.32,12.62,2.31,25.58.4,38.19-1,6.47-3.62,12.55-4.09,19.07-.29,4,.34,8.61-3.35,11.28-4.28,3.09-11.64,3.1-16.66,4.21-6.62,1.46-13.18,3.21-19.69,5.1-10.33,3-22.94,4.47-26.66,16-4,12.33-6.91,25-10.75,37.42a144,144,0,0,1-7.45,17.94c-1.06,2.3-2.74,5-2.52,7.62s2.18,5.51,3.26,8c2.35-1.23,4.82-1.92,6.83-3.72s3.79-4.55,5.48-6.81c3.51-4.69,6-8.72,11-11.77.19,2.48.78,4.61-.41,6.71-.84,1.5-2.78,3-3.89,4.41-3.1,3.89-6.09,7.88-9.45,11.55-6.7,7.31-14.8,13.33-21.76,20.42s-13.59,15.45-22.11,20.77c-8.21,5.13-17,9.37-25.52,13.91,7.51-17,2.31-34.2-6.62-49.53-4.15-7.13-9.2-13.68-13.88-20.47-3.71-5.37-10.86-12.58-10.69-19.48.09-3.67,2.6-6.84,4.41-9.88a113.8,113.8,0,0,0,5.2-10.5c3.32-7.19,7.67-14.8,8.84-22.72,1-6.94-.54-16.55-5.24-22.1-1.88-2.23-4.64-2-7.09-3.52s-4.23-3.72-6.2-5.7c-2.24-2.25-5-3.8-7.22-6-2.38-2.37-4-5.37-5.75-8.21-4.07-6.74-8.24-13.42-12.32-20.16Zm25.79-149.81c7.06.12,10.8,4.1,14.09,9.78-2.2,3.45-8.1,13.87-13,9.72-.9-.77-1.32-2.43-2.41-3.33a14.84,14.84,0,0,0-3.52-1.81c-2.69-1.19-5.74-2.34-7.46-4.93-4.07-6.09,8-9.5,12.26-9.43ZM1583.31,541c1.27-.34,5.17,2.22,6.42,2.77,2.29,1,5.14,2,7.16,3.54s2.78,3.82,4.17,5.87c.42,15.34,1.38,30.8,1.27,46.19q-.64-23.1-1.28-46.2c-.9,4.23-2.46,8.11-2.45,12.48s.67,9,1.08,13.37c.79,8.37,1.72,16.73,2.58,25.09-.12,4.82-.33,9.64-.75,14.44-6.12-8.52-12.13-17.14-18.27-25.64-5.49-7.59-12.66-8-21.32-8.73l17-34.31c.65-1.32,3.26-8.56,4.39-8.87ZM2583.8,567c9.14-2.53,18.47-6,27.89-7.28,8.92-1.18,16.84-5,25.45-7.57,7.58-2.23,15.26-4.13,22.73-6.72,5.68-2,11.81-3.92,16.28-8.12a20.73,20.73,0,0,0,6.27-17.45c-1-7.39-6.47-8.29-12.69-10.41C2638,498.63,2606,492.2,2572.9,487.93c-17-2.19-34.23-4.92-51.43-4.57-8.91.19-17.72.68-26.63.11-8.07-.52-16.28,2.5-24.21.93-8.11-1.61-15.68.55-23.85,1.66-8.69,1.18-17.46,1.53-26.22,1.93-7.95.37-16.4.05-24.14,2.13-7.56,2-13.42,3.49-21.14,1,8.07-8.93,16.12-17.89,24.22-26.79,16.64-18.27,33.91-37.9,44-60.75,4.31-9.79,6.41-23.9-.79-33-6.4-8.11-20.38-6.44-29.29-5.11a86,86,0,0,0-32.28,11.83c-9.51,5.82-20,10.58-28.66,17.6-8.5,6.9-18.29,11.46-26.89,18.23-8.86,7-17.78,13.74-26.75,20.56-19.36,14.75-35.45,33.49-53.78,49.42a340.24,340.24,0,0,0-27.52,27.12c-4.13,4.51-8.41,8.95-11.94,14-2.95,4.19-5.51,8.65-8.63,12.73-3.73,4.89-8.42,9-12.35,13.7-3.61,4.35-6.93,8.94-10.13,13.61-3.37,4.9-6.61,9.89-9.95,14.81-1.76,2.59-3.43,7-7,6.54-5-.64-7.74-4.92-13.16-2-1.83,1-3,2.69-4.5,4-2.14,1.88-4.6,2.69-7.09,3.94-5.08,2.54-9.38,6.33-13.94,9.67-4.83,3.54-9.78,6.46-14.26,10.49-18.79,17-36.14,35.17-54.21,52.86-4.37,4.27-9,8.33-13.19,12.73-3.38,3.5-6,7.66-9.42,11.11-2,2-4.33,2.79-6.4,4.53s-3.54,4.17-5.19,6.06c-4,4.55-7.89,9.15-12,13.61-8,8.75-16.81,16.37-24.49,25.45-7.84,9.27-16.68,17.75-24.69,26.92-16.87,19.28-32.71,39-48.22,59.35-7.69,10.11-16.34,19.51-23.68,29.87A221.75,221.75,0,0,0,1865,885.46c-1.49,3.06-3.39,12.18-8.86,9-2-1.16-3.27-4.56-4.48-6.45q-2.46-3.84-4.89-7.69c-7.07-11.18-14.64-22.37-20.23-34.39-10.75-23.13-21.45-46.08-30.3-70-4.47-12.12-9.58-23.93-14.67-35.8s-8.87-23.95-13.79-35.76c-9.79-23.48-22.66-45.69-35.47-67.62-11.73-20.1-24.31-40.83-40.63-57.58-8.63-8.85-15.41-19-24.53-27.49-4.62-4.3-9.39-8.44-14-12.74-3.33-3.11-6.17-7.73-10.3-9.82-2.91-1.48-6-1.16-9.18-1-2.45.1-5.16-.61-7.51-.4-2.13.2-3,2-5,2.45s-3.48-.55-5.12-1.68c-10.42-7.19-24.66-10.3-36.56-14.61,7.53-4.65,16.76-4.82,25.16-6.79a51.8,51.8,0,0,0,19.58-9c12.87-9.71,15-25.05,17.35-40.06,2.68-17.26,4.75-35.65,2.46-53q-3.39-25.59-7.18-51.14a164.33,164.33,0,0,0-5.29-24.33c-2-6.52-4.58-13.24-4.35-20.15.11-3.42.23-8.69,2.82-11.16,1.9-1.81,4.7-2.78,6.73-4.57a51.26,51.26,0,0,0,11.48-14.87c2.38-4.56,6.24-11.26,4-16.54-2.48-5.73-10.36-6.79-15.64-8.16-15.66-4.06-31.47-3.41-47.37-5.64-7.63-1.08-15.62-3.3-23.29-3.21s-15.11.21-22.68.12c-16.48-.19-33-.68-49.45,1-4.36.45-8.64.8-13,1-3.52.2-6,2-9.3,2.56-2,.33-4.76-.73-6.75-.89a38.4,38.4,0,0,0-10,.48c-7,1.31-12.41,5.76-19.33,7.15a17.65,17.65,0,0,0-12.28,8.8c-7,12.11-7.37,28.8-8,42.36-.72,16.06.47,32.18-.37,48.21-.2,3.88-.62,5.44-4.72,5-5.76-.57-10.81-2.11-16.62-.57-11.09,2.92-18,13-22.37,23a73.4,73.4,0,0,0-6.2,33.66c.68,10,4.38,23,15.44,25.93,5.94,1.56,11.9-.92,17.51-2.68,5.27-1.66,10.07-6.41,12.94.26,5.79,13.49,11.63,25.71,20.9,37.33-8.69-.59-17.37-1.43-26.07-1.87-5.72-.29-13.82-1.89-19.29.34-3.22,1.31-3.36,3.57-5.66,5.58-2.53,2.21-7.44,1.26-10.57,1.17-9.38-.29-18-2-27.49-1-7,.72-13.31,4.18-20.25,5.5-8.45,1.6-16.84,4.94-24.81,8.12-7.5,3-14.86,6.18-22.57,8.59a193,193,0,0,0-23.24,8.44c-13.36,6.13-24.7,16.05-36.66,24.48-3.14,2.21-6.57,4.12-9.51,6.62-2.4,2-4,4.75-6.31,6.86-3.71,3.4-8,3.23-12.06,5s-8.09,5.53-11.83,8.08l-10.14,6.92c-6.41,4.37-12.76,9.58-19.7,13.08-12.89,6.51-23,16.82-33.47,26.62-11.3,10.58-23.77,19.8-34.65,30.81a257.81,257.81,0,0,0-29.51,35.37c-9.1,13.27-16.78,27.34-25.41,40.9-3.94,6.2-8.94,11.24-13.54,16.91a100.32,100.32,0,0,0-6.46,8.9c-1.75,2.74-3,6.23-5.61,8.23-5.24,4-10.47,6.36-14.69,11.72a197.81,197.81,0,0,0-12.82,19.11c-8,13-15.58,26.5-22.74,40-2.11,4-2.09,6.93-2.44,11.3-.28,3.4-1.39,6.63-2,10-1,5.42-.39,11.11-1.79,16.49-.92,3.53-3.19,4-6,6a62,62,0,0,0-7.49,6.34c-4.81,4.61-9.48,9.16-14.73,13.28S901.1,894.05,896.46,899c-4.82,5.18-9.06,10.15-14.61,14.65-11.79,9.56-22.91,20.14-34.48,30-12,10.24-23,21.48-34,32.72C801.91,988,789.82,998.93,777.89,1010c-.94-13.16-1.71-26.34-2.81-39.5-1.18-14.2-4.38-28-7.21-42-2.53-12.46-4.21-25.79-8.44-37.8-2.9-8.23-8.57-15-17.34-17-4.39-1-11,1.06-13.17-3.83s-2.31-12.26-3.17-17.49c-3.76-23.06,3.72-48.8-5.92-70.87-4.18-9.58-12-14.65-21.21-18.75-12.11-5.37-25.5-4-38.34-6.7-5.87-1.22-10.64-4.42-16.72-4.7s-12.3-.07-18.44.17c-6.42.24-12.58-1-19-1-5.54,0-9.91,3.7-15.35,2.84-6.11-1-11.09-2.47-17.25-.7a63.91,63.91,0,0,1-16.35,2.2c-7,.2-14-.46-21-.13-6.42.31-12.54,2.26-18.91,3-13.45,1.65-26.41,3.18-39.54,6.8s-25.35,8.74-38,13.42c-20.23,7.5-43.45,13.25-49,37.09A118.54,118.54,0,0,0,388.74,856c1.34,10.89,3.81,22.94,10.22,32.1,6.85,9.8,18.21,12.77,29.08,16.14,12.47,3.87,25.22,4.46,38,6.77,13.23,2.39,26.47,4.31,40,4s26.47-3.85,39.82-5c13.72-1.16,27.39-2.77,41.1-4,9.22-.81,26.84-3.42,31.46,7,1.46,3.31,3.56,7.27.89,10.23a137.77,137.77,0,0,0-8.88,11c-3.9,5.32-6.81,10.41-8,17a121.11,121.11,0,0,0-1.41,19.5c-.37,26.86,6.54,54.09,13.1,80.09,6.82,27.05,14.42,54,23.92,80.2,9.06,25,15.79,51,26.54,75.38,5.39,12.22,12.44,23.07,19.86,34.12,6.25,9.29,12,20.53,21.15,27.28a40.91,40.91,0,0,0,27.11,7.68c11.44-.91,22.3-7.85,32.31-12.91,24.11-12.21,46.38-28.7,68-44.85,10.38-7.75,19.8-16.64,30.85-23.48,10.8-6.69,21.69-12.68,33.85-16.2-10.14,21.36-19.35,43.06-30.13,64.12-10.63,20.8-19.43,42.33-29,63.6-3.94,8.75-9.74,16.32-13.61,25q-6.66,15-13.32,30c-8.09,18.26-16.7,36.43-24,55-1.66,4.22-.91,9.31-3.07,13s-4.54,7-6.19,11.05c-3.55,8.73-6.36,17.52-10.4,26.07-9,18.93-14.63,39.29-23.2,58.41s-16.33,38.55-24,58.11c-3.75,9.59-8,19-11.47,28.69-3.23,8.93-6.27,18.08-11.54,26.07-11.57,17.54-20.55,36.49-29.26,55.62-4.11,9-7.73,18-8.35,28-.56,9,5,16.36,9.56,23.63-8.23,4.17-15.82,9.56-24.07,13.76-8.86,4.51-18.12,8-27.33,11.74s-18.62,7.52-27.9,11.34c-8.19,3.38-15.75,7.52-23.69,11.38-7.5,3.66-14.35,8.48-21.45,12.83-7.68,4.7-15.48,9.22-23.16,13.93-15.06,9.22-29.72,18.47-45.53,26.4-8.25,4.13-16.53,8.18-24.78,12.3-6.78,3.38-14.23,6.36-19.18,12.36-7.32,8.86-6.68,23.11.27,32.13,4.59,6,15.85,5.4,22.7,5.59a61.53,61.53,0,0,0,14-1.06c3.79-.78,7-2.8,10.71-3.74,4.19-1.06,8.87-.83,13.17-1.41s8.39-1.32,12.55-2.17c9-1.84,18-4.06,27-6,8.77-1.86,17.56-3.67,26.16-6.22,3.57-1.06,7.34-3.1,11-3,4,.09,7.48.36,11.5-.36s8.13-1.88,12.27-2.43c3.84-.51,7.72.11,11.52-.54,4.29-.72,8.27-2.62,12.43-3.84s7.8-.83,12-.83c-10.3,8-21.06,15.29-31.55,23s-20.48,16.36-30.67,24.64c-8.25,6.69-18.56,13.13-23.63,22.76-4.09,7.75-4.85,17.35-3.2,25.88,2.06,10.71,10,12.06,19.61,12.73,12.44.86,22-4.41,32.9-9.76,21.27-10.48,41.83-22.58,61.93-35.13,9.95-6.21,20.94-10.88,31.5-15.94q8.38-4,16.79-8c4.58-2.17,10.57-6.48,15.62-6-13.9,28.8-28.46,57.3-40.71,86.86-5.14,12.4-9.23,25.22-10.23,38.68-.72,9.43-.22,28.12,11.57,31.25,5.26,1.39,10-2.1,13.54-5.58,5.05-5,9.69-10.39,14.51-15.58,9.44-10.14,19.29-19.77,29.58-29s20.85-18.58,30.21-29.06c8.92-10,20.07-17.57,28.57-28,8.73-10.67,16.55-22,25.34-32.66,5.78-7,10.43-17.94,20.35-19.49,1.48,8.25,8.6,15.58,13.58,22.32,11,14.89,24.25,27.09,38,39.4,12.41,11.13,25.75,20.47,41.4,26.5,10.3,4,31.85,13.17,39.94.67,3.84-5.93,1.81-17.53.37-24-2-9-6.38-17.5-10.33-25.8-8-16.9-17-33.11-26-49.47-4.55-8.22-9-16.5-13.9-24.51-4.26-7-10.17-13.65-12.27-21.67-.86-3.3-1.39-7.77-.33-11.1,1.13-3.54,2.61-2.89,5.79-3.35,7-1,4.86-13.84,3.95-18.85a75.41,75.41,0,0,0-4.09-13c-1.36-3.58-4.38-8.47-4.21-12.35.16-3.67,3.72-7.41,5.16-10.71a100.33,100.33,0,0,0,4-11.84c5.44-18.35,12.56-36.08,17.09-54.72s9.28-36.68,15.89-54.62c6.85-18.6,14.31-37,20.54-55.83,6-18.26,12-36.48,18.64-54.54,13.33-36.23,27.53-72.19,43.24-107.46,15.5-34.8,33.11-68.67,46.51-104.37,6.44-17.17,12.8-34.23,18.88-51.53,6.29-18,13-35.52,20.31-53.07,7.43-17.92,13.56-36.41,19.92-54.73,6.25-18,11.6-36.67,19.32-54.13,2,2.16,3.81,3.71,5.23,6.26a37.66,37.66,0,0,0,4.6,7.12c3.53,3.95,8,6.71,12.31,9.74,2.68,1.9,4.9,4.16,8,4.58l.24,0a10.89,10.89,0,0,0-1.72.19l11.72,8.13c-.32-.77-.67-1.49-1-2.2,1.27,2.21,2.59,4.29,5.33,4.76a5,5,0,0,1-.66.08c1.85,1.37,8.44,7.92,7.86.86.25,1.14-.18,2,.3,3.15a13.11,13.11,0,0,0,2.58,3.29,40.69,40.69,0,0,0,6.24,5.33c5.21,3.74,10.83,6.88,15.89,10.85,1.46,1.14,6.43,6.9,8.14,6.9l9.58,8.35q-1.83-6.42-3.67-12.83l2.67,9.3c1,3.61,2.59,4.91,5.29,7.34,4.76,4.25,9.47,8.55,14.41,12.6,9,7.37,19.33,13.09,29,19.58,5.24,3.53,10.39,7.15,15.37,11,4.1,3.17,9.1,4.3,13.17,7.38,5.13,3.88,9.67,8.94,14.11,13.56,4,4.15,8.69,8.32,11.44,13.43,3.12,5.78,3.17,13.32,4.14,19.73s2,12.93,2.9,19.4c1.94,13.27,3.78,26.57,5.37,39.89,1.57,13.09,3.49,26.18,4.63,39.32,1.16,13.3.87,26.61,2.36,39.89,3,26.65,6.39,53.82,12.1,80,5.76,26.42,9.44,53.21,14.43,79.79,2.57,13.67,5.29,27.32,8,41,1.32,6.71,2.74,13.41,4.06,20.12,1.1,5.54.53,11.12,1.51,16.71a54.13,54.13,0,0,1,1.24,9c0,3-1.86,5.57-2,8.23-.15,3.75,3.28,9.66,5.36,12.65,3.14,4.51,7.49,8.58,11.13,12.72s5.15,5.66,3.85,11.29c-5.6,24.13,8.74,44.35,24.05,61.41,16.85,18.79,33.71,36.89,53,53.15,10.13,8.53,19.66,17.72,29.35,26.72,9.3,8.63,19.32,15.37,30.18,21.95s22.67,11.54,34.07,17.4,22.18,11.26,34.14,15.48c11.38,4,22.9,7.41,33.81,12.5,8.62,4,19.56,3.84,28.26.13,5.86-2.51,10.88-7.07,16.12-10.63,4.89-3.34,9.87-6.53,15-9.49,8.48-4.88,16.76-10.57,20.38-20.1,4.28-11.29.58-24.84-1.87-36.18-2.51-11.59-7.68-22.38-13.88-32.43-6.45-10.46-14.48-19.51-21.9-29.25-7.66-10.09-14.49-20.7-22.51-30.54a344.43,344.43,0,0,0-25.21-27.84c-8.91-8.8-16.71-18.61-24.94-28-2-2.27-5-4.71-5.38-7.93-.32-2.8,1.6-4.82,2.53-7.3,1.79-4.78,1.26-10,1.35-15,0-2.44,0-4.95,1.23-7.16,1.13-2,3.23-2.87,4-5.09.71-2,.45-4.46.85-6.52.5-2.62,1.72-4.52,2.56-7,2.08-6.2-.5-13.43-1.67-19.58-1.1-5.81-2.15-11.63-3.22-17.44-2.32-12.57-4-25.16-8-37.36-8-24.75-15.87-49.38-16.4-75.66-.27-13.17-3.94-25.78-7-38.51q-4.84-20.25-9.83-40.46c-6.38-25.81-14-51.24-20.57-77s-12.45-51.5-20.2-76.83c-7.83-25.6-18.72-49.63-30.36-73.69a147.94,147.94,0,0,0-20-31.43c-8.54-10.24-17.31-20.3-26.09-30.34-17.7-20.27-35.43-40.52-53.4-60.56-9-10-18-19.49-28.44-27.93-9.31-7.52-22-13.86-25-26.16-.83-3.47-1.38-7-2.3-10.45-.52-2-2.16-5-1.9-7.18.51-4.31,8.48-6,11.71-7.41,11.16-5.05,22.44-10.05,33.39-15.55,6-3,11.42-6.74,17-10.44,4.73-3.12,10.14-4.06,15.48-5.71,11.86-3.68,22.81-8.92,33.75-14.72,11.3-6,22.69-11.95,33.64-18.54,11.12-6.69,19.75-14.92,29.18-23.66,4.21-3.9,7.21-1.94,10.2,2.37,3.63,5.22,7.46,10.32,11.22,15.46,1.75,2.39,3.26,5.21,5.74,6.65l.27.14c-.43-.15-.89-.3-1.41-.51.91,6.47,5.78,10.89,10.07,15.34-.4-1.1-.78-2.22-1.17-3.33a27.26,27.26,0,0,0,4.55,7.8,131.79,131.79,0,0,0,13,14.41c2.41,2.37,4.85,4.71,7.28,7.06l2.92,2.83a11.92,11.92,0,0,0,4.11,2.74c3.33,1.51,4.11,4.14,7,6.21,4.32,3.13,9.71,5.19,14.18,8.27,3.66,2.51,6.83,7.62,11.06,8.55,1.53.34,2.67.1,3.9,1.31,1.62,1.58-.07,1.55,2.48,2.12,1.29.29,2.62-.44,3.92,0s2.57,1.62,3.73,2.46l7.92,5.79q7.11,5.2,14.14,10.55c9.31,7.11,17.86,15.15,27.21,22.21,4.83,3.66,10,6.33,15.18,9.43,4.3,2.58,7.93,6.07,12,9,4.81,3.53,10.42,5.25,15.41,8.44s9.62,6.36,14.71,9.18a314.32,314.32,0,0,0,34.23,16.67c11.93,4.82,24.12,8.71,37.07,9.32,13.13.62,25.57-2.82,37.68-7.61a338.59,338.59,0,0,0,35.14-16.24c11-5.92,21.34-13,32.18-19.31s21.19-12.88,31.56-20c9.85-6.77,19.21-14.34,29.84-19.88s20.25-12.86,30.35-19.46q15.59-10.17,31-20.52c21.48-14.4,43-29,63.4-44.95,9.8-7.64,19.47-15.49,28-24.49,9.16-9.61,20.09-17.79,30.15-26.43l29-28.11.05,0-29,28.16c4.59-.86,7.58-3.85,11.27-6.7q5.84-4.53,11.55-9.18c5.56-4.52,12-9.17,11.34-17.18,2.43-2.27,4.92-4.49,7.51-6.56,4.22-3.37,9.26-5.43,13.76-8.41,9.22-6.13,17.14-13.94,25.81-20.79,3.81-3,7.23-5.29,7.83-10.46.64-5.6-.11-11.68-.15-17.33,0-4.37-1.28-10.47.39-14.6s7.25-5.92,10.86-7.9c10.19-5.59,20.23-11.45,30.43-17,10-5.48,18.76-9.14,30.24-10.12,5-.43,9.8-1.18,14.74-2,5.11-.8,9.87.71,14.87,1.63,11.35,2.08,22.83,3.32,34.18,5.43s22.72,5,34,7.73,22.57,5.74,34,7.75c5.87,1,11.94,1.7,17.62,3.53,4.3,1.39,8.43,3.34,12.86,4.31,10.7,2.36,21.59,2.64,32.05,6.22s21.1,5.36,32,7c5.71.86,11.39,1.78,17,3,3.41.74,6.44,1.17,9.89.32a22,22,0,0,0,15.24-14.43c6.31-19.12-5.89-39.64-18.32-53.2-13.34-14.55-30.18-24.73-46.18-36,6.38-.7,12.72.24,19.09.36,5.46.1,10.8-.15,16.27.15,12.12.66,24.19-2.84,36.32-3.1,16.41-.35,36.67-3.7,41-22.4,4-17.41-14.48-33.1-27.67-41-8.46-5.08-17-9.72-25.33-15.09-8.86-5.74-19.81-9.12-29.59-13-10-3.93-20-7.77-30.36-10.51-10-2.64-20-4-29.59-7.95,8.69-3.79,18.08-4.62,27.39-6.36s18.37-4,27.45-6.53Z"/><path id="Fill-56" class="cls-2" d="M2639.57,1248.63c-1,4.11-3.35,6.13-7.41,7.1-6.71,1.61-14.06,1.86-20.9,2.69-12.5,1.53-25.42,2.16-37.67,5.12a136,136,0,0,0-33.32,12.6c3.39-16.2,7.23-31.93,5.81-48.61-1-12.25-1.33-30.7-13.72-37.79-2.86-1.64-7.4-1-10.59-1.19l-12.43-.64c-8.2-.45-16.36-1.32-24.53-2.12-16.11-1.57-32.11-3.53-48.13-5.88-2.65-.39-7.4-.1-9.18-2.39-1.3-1.69-.68-4.36-.58-6.26a112.75,112.75,0,0,0-.74-19.61c-1.79-14.26-5.72-28.29-10.13-41.94-2.23-6.9-4.61-13.74-6.86-20.64-1.08-3.33-3.6-7.87,0-10.26,2.25-1.49,6.17-1.48,8.79-2.13,3.11-.77,6.14-1.79,9.18-2.79q10.77-3.54,21.53-7.14c27.26-9.08,54.77-17.56,81.95-26.82,3.81-1.29,7.59-2.65,11.39-3.94,1.65-.56,4.51-2,6.28-1.22,2.08.91,1.67,3.19,3.16,4.55,1.31,1.19,4.25,1.27,5.92,2.24,4.26,2.45,6.92,6.73,10.26,10.18,4.29,4.44,9.09,8.35,13.33,12.87,17.11,18.26,29.77,40.24,40.48,62.73a114.59,114.59,0,0,1,6.57,18.76c1.7,6.09,3.88,12.05,4.85,18.33,2.26,14.66,2.34,29.74,4.15,44.49,1.52,12.36,5.46,27.33,2.54,39.71m-108.67-33.1c0,9.76-.55,19.59-2.69,29.14-2.2,9.86-6.18,19.29-9.74,28.71-3.35,8.89-6.06,18-9.94,26.73s-8.75,16.36-11.83,25.24c-6.3,18.22-17.11,34.2-24.76,51.79a536.82,536.82,0,0,1-26.22,52.19c-4.62,8.11-8.91,17.08-14.74,24.38a108.85,108.85,0,0,1-9.57,10.45c-2.92,2.8-4.32.66-7.86,1.3-5.15.92-7.81,7.61-11.14,11-6.32,6.51-12.77,13-19.69,18.82-7.09,6-14.92,11-22.19,16.81a126.8,126.8,0,0,1-21.81,14.54c-15.66,8-33.67,17.72-51.75,16.88-8.31-.38-12.77-5.8-16.25-13-3.69-7.65-2.44-16.81-1.82-25,.74-9.84,3.12-18.52,8.36-26.87s.08-13.34-5.08-20.2c-11.51-15.31-26.84-27.24-40.82-40.17q-10.83-10-21.53-20.2L2198,1386.86c-2.89-2.74-5.68-4.59-6.72-8.44,7.86-4.24,16.07-7.85,23.32-13.16,14.8-10.82,28.38-24,42.34-35.94,6.7-5.72,12-12.81,17.38-19.73,5.2-6.67,11.15-13,15.64-20.18,9.65-15.5,20.65-30.84,28.29-47.45,3.82-8.28,5.79-16.73,7.78-25.57,1.2-5.33,2.59-10.61,3.93-15.9.87-3.41,1.12-9.28,3.31-12.1,4-5.19,16.66,3.19,21.29,4.66,8.71,2.77,17.79,4.09,26.8,5.48,19.12,3,38.36,5.48,57.36,9.15,10,1.92,19.92,4,30,5,9.79,1,19.63.47,29.44.4,2.1,0,4.66.35,6.07-1.58.81-1.1.27-2.47,1.56-3.5,1.69-1.35,3.89-.62,5.82-.42,3.92.42,7.86.66,11.79,1.15,1.69.21,5.06-.08,6.51.81s1,3.78,1,5.94m-275.13,262.1c-4.57,9.22-7.21,22.12-7.35,32.33a74.62,74.62,0,0,0,1.77,16.31c1,4.67,3.65,10,2.81,14.76-11.6-5.37-23-11.14-34.83-16-10.23-4.18-17.91-11.46-26.32-18.38-9-7.42-17.22-15.7-25.9-23.52-9.31-8.4-19-16.33-28.5-24.54-16.87-14.61-31-31-44.89-48.5-12.17-15.35-29.62-34.92-28.81-55.69.39-9.64,1.09-20.6,5.82-29.22a66.36,66.36,0,0,1,17.68-20c6.38-4.61,12.65,7,16.24,11,7.74,8.76,15.62,17.37,23.46,26,14.92,16.46,29.08,33.74,45.22,49s32.89,30.5,50.41,44.48c8.76,7,18.42,13.52,26.38,21.45,2.92,2.91,8.6,6.12,10.55,9.75,2.09,3.91-2.1,7.35-3.74,10.64M2655,1250.32c-2.46-.32-2.35,0-2.55-2.39-.33-3.74.94-8.15,1.32-11.89,1.81-17.81.94-36.48-.61-54.29-3-35-10.26-69.39-28.56-99.74-8.45-14-18-27.22-30-38.45-5.52-5.17-10.91-10.74-17-15.24-3.07-2.25-7.52-3.39-10.31-5.7-1.51-1.25-2.18-3.8-3.45-5.39-5.07-6.36-10.81-8-18.91-7.32-8.4.71-17.21,3.35-25.31,5.6-17.25,4.78-33.79,12.91-50.5,19.33s-33.37,13.31-49.92,20.32c-7.2,3-15.88,5.44-22.27,10-3.86,2.77-5,6.22-4.58,10.84,1.47,16.33,7.53,32.54,12.14,48.16,5,16.77,9,33.86,10.25,51.34-17.1-1.26-34.09-2.55-51.11-4.71-8.51-1.07-17.07-1.95-25.57-3.12-4.39-.6-6.44-2.25-10-4.52-3.1-2-4.7-.31-6,2.73-6.89,15.81-9.6,33.06-17.05,48.76-3.35,7-7.53,13.63-11,20.61a195.29,195.29,0,0,1-13.09,22.07c-2.2,3.26-5,5.9-7.47,9-2.26,2.83-3.89,6.09-6,9a131,131,0,0,1-14.94,17c-5.35,5.36-10.53,10.79-15.64,16.37s-11,9.94-16.33,15.12c-5,4.88-9.34,10.18-14.47,15-4.93,4.6-7.25,11-12.56,15.13-2.86,2.24-6,4-8.89,6.28-2.35,1.86-4.81,5.11-8.15,4.48-3.71-.69-6.7-5.68-9-8.25q-4.48-5-9-9.89c-11.9-12.88-24.11-25.5-36.11-38.3-5.86-6.26-12.32-11.93-18-18.33-4.17-4.66-11-8-16.83-4.79s-12.95,6.05-17.72,10.89c-5.16,5.23-9.28,12-13.49,18-4.38,6.26-6.12,13.65-7.26,21.08-1.22,7.93-2.49,15.78-1.89,23.82,1.14,15.23,4,32.22,12.78,45,4.2,6.11,10,10.7,15.09,16,5.57,5.7,9.55,12.56,14.14,19,9.21,13,20.53,24.6,32.07,35.52,5.5,5.21,11.74,9.6,17.27,14.82a160.09,160.09,0,0,0,18.55,15.25c6.82,4.75,12.45,10.93,18.61,16.44a208.29,208.29,0,0,0,19.83,15.85c13.39,9.34,27,15.42,42.59,20.12,17.16,5.18,33.77,12,50.83,17.36,8.18,2.59,16.27-1,24.05-3.62a133.23,133.23,0,0,0,23-10c14.83-8.36,29.07-18.06,43.66-26.86a160,160,0,0,0,39.43-33.05c11.05-12.77,22.74-25.46,32.8-39,20.42-27.55,32.77-60.14,47.92-90.64,8.06-16.22,16.23-32.18,22.93-49,3.29-8.29,6.24-16.73,9.61-25,1.42-3.5,2.6-4.86,6.42-5.46,4.41-.69,8.92-1,13.35-1.52,17.53-2.09,34.64-5.19,52-8.19,16.12-2.78,32.34-5.65,46.76-13.84,3-1.73,6.66-3.75,8.31-7,.75-1.47,2.6-8.92,1.56-10.12-.61-.7-4.72-.61-5.77-.75"/><path id="Fill-58" class="cls-2" d="M1937.17,143.56c5.6-2.94,11.31-5.66,17-8.42,12-5.86,23.92-12.12,36.11-17.7,5.52-2.52,11.28-4.13,17-6.24,6-2.25,11.78-5.22,17.55-8,12.15-5.88,24.56-10.94,37.17-15.71q5.79-2.19,11.6-4.33c3-1.1,6.6-3.21,9.69-3.57,4.9-.57,8.59,4.43,11.93,7.43,18,16.23,30.77,40.29,38.52,63.05,4.22,12.41,6.14,25.23,8.4,38.1,2.31,13.2,4.76,26.11,4.86,39.53.09,13.64,1.49,27.08.88,40.75-.22,5.1.7,14.27-2.11,18.72s-10,5.76-14.57,7.42c-25.09,9.1-50.16,18.89-75.62,26.9q-39.74,12.48-79.34,25.35c1.07-7.51,2.33-15,3.17-22.56.8-7.1.21-14.45.14-21.58-.13-15.69-.64-31.28-3.79-46.69-5.73-28-15-55.53-30.47-79.69A158.28,158.28,0,0,0,1933,160.36c-1.55-1.84-6.72-6.19-6.53-9,.24-3.71,8.06-6.37,10.74-7.78m301.13-3c5.79.27,9.54,1.6,9.94,7.8.52,7.9.41,15.9.69,23.82.54,15.14,1.09,30.3.69,45.45-.7,26.56-3.52,53.07-11.66,78.45-3.93,12.26-8.63,24.32-13.72,36.15-4.93,11.48-11.9,21.81-18.06,32.62a73.07,73.07,0,0,1-10.64,14.11c-2,2.12-2.89,3.25-5.69,3.61s-6.43-.37-9.28-.58c-13.44-1-26.87-2.3-40.33-2.95s-26.74-.07-40.06-.69c-6.26-.3-12.16-2.33-18.31-3.32s-12.47-1.44-18.7-2.14c-3.22-.36-3.14.39-3.62-2.53-.27-1.55.18-3.57.27-5.16.16-3.07.31-6.14.5-9.21.17-2.74-.39-7.55.72-10.15,1-2.31,3.11-2.71,5.33-3.31a333.8,333.8,0,0,0,36.33-12.43c12.18-4.91,24.5-9.55,36.54-14.79,5.19-2.26,11-4.33,15-8.59,3.22-3.5,5.07-8,6.5-12.47,7.84-24.6,5.38-52.95,3.08-78.29-2.36-26-6.09-52.78-15.63-77.27,30,0,60.14.49,90.13,1.87M1903.16,163c8.34,3.13,13.6,10.41,18.46,17.43a220.64,220.64,0,0,1,16.49,27.15c10,20.06,16.52,42.17,20.26,64.22,3.59,21,5.37,44.51,1.24,65.63-1.1,5.65-4,10.17-5.59,15.52-1.09,3.6-.33,8.83.64,12.4,1.4,5.12,6.24,3.38,10.27,2.55,5.87-1.21,11.75-2.41,17.62-3.65,22.14-4.67,44.06-12.79,66.59-14.44-1.92,6-3,11.43-6.86,16.57-3.63,4.8-8.45,9-10.54,14.75-1.74,4.82-2.07,11.57-.3,16.47,1.85,5.13,6.4,5.21,11.16,5.79,13.4,1.62,26.58,3.83,40.09,4.56,2.9.16,5.8.49,8.67-.06,2.3-.45,3.92-1.14,6.26-.71,3.08.57,5.81,2.06,9.05,2.39a64.06,64.06,0,0,0,9.19.1c11.31-.42,22.37.76,33.69-.34,3.3-.33,9.5-2.2,12.58-.31,3.26,2,.71,6,2.33,8.78,2.14,3.63,9.48,1.77,13,1.57a33.49,33.49,0,0,0,14.1-3.51A80.28,80.28,0,0,0,2215.83,397c7.07-8.21,12.2-17.8,17.25-27.32,5.28-9.93,10.56-19.62,14.55-30.17,4.07-10.77,8.07-21.88,10.37-33.19s3.77-22.74,5.95-34.06c2.27-11.81,2.67-23.84,3.27-35.82a326.92,326.92,0,0,0,.11-37c-.76-12.2-2.11-24.16-3.54-36.29-.36-3.1-.18-6.31-.67-9.38-.33-2.06-1.41-4-1.52-6.11-.24-4.16,3.58-6.84,3.48-11.19-.23-10.11-11-13.87-19-16.29-10.39-3.15-22-5-32.85-4.26-23.38,1.68-47.27,1.9-69.45,10.43-11.49-19.69-22.19-41-41-54.85-2.12-1.56-4.42-2.63-5.8-4.93-1.17-2-1.69-3.95-3.25-5.73-3.86-4.38-8.62-4.92-14-3.78-11.75,2.49-23,5.22-34.12,9.67-4.95,2-10.2,2.9-15.17,4.83-4.78,1.85-9.34,4.18-13.94,6.44-10,5-20.43,9.17-30.47,14.16-20.16,10-40.1,20.55-58.65,33.37-9,6.19-19.25,12.59-26.85,20.45a15.13,15.13,0,0,0-4.3,12.6c.58,5,3.12,3,6.92,4.46"/><path id="Fill-60" class="cls-2" d="M582.12,201.51c1-12.82.58-25.67,1.51-38.48.89-12.17,3.35-24.56,5.74-36.53,2.43-12.16,6.85-23,11.82-34.26,2.74-6.23,5.39-12.5,8-18.76,1.62-3.85,2.81-7.83,7.31-8.86,5.83-1.32,12.87-.25,18.87-.46s12.11-.58,18.16-1.12c13.13-1.16,26.18-3.08,39.29-4.44,12.55-1.31,25-2.07,37.37-4.65,6.38-1.34,12.7-2.89,19-4.45,4.74-1.16,11.31-4.13,16.08-3-5.9,13.43-7.73,27.76-7.88,42.3-.05,5.73-.73,8.07-6.7,7.72-7.44-.44-14.91-1.19-22.32-2-14-1.61-27.83-4.17-41.69-6.57-6.56-1.14-12.87-2.76-19.31-4.18-4.57-1-6.5.8-8,5-1.1,3-1.45,4.38-4.29,6.09a62.14,62.14,0,0,0-6.73,4.39,50.29,50.29,0,0,0-9.86,10.53c-6.21,8.73-10.19,19-13.83,29-9.16,25.18-13.77,52.57-14.62,79.31-.43,13.6-2.68,26.93-2.82,40.58-.07,6,1.46,13.75-3.56,18.12s-11.23,7.35-16.71,10.85c-4.8-13.76-6-28.35-6.19-42.83s.2-28.85,1.31-43.24m203.31-72.83c6,1.6,12,3,18.08,4.41-10.29,24.66-9.93,51.94-10.71,78.23a276.38,276.38,0,0,0,1.13,35.24c1.19,12,3.88,23.41,6.3,35.14.52,2.57,1.79,6.77.1,9.12-1.87,2.61-8,4-10.66,5.21-10.55,4.76-20.93,9.91-31.7,14.18s-22.25,6.93-32.92,12c-10.45,4.92-21,9.43-31.9,13.32-10.69,3.83-21.78,6.63-32.09,11.44-9.78,4.56-17.86,10.82-26.17,17.58-5-15.69-7-31.65-7.93-48.1-.88-15.73-2.17-32.12-.56-47.82a169.44,169.44,0,0,0,.59-21c-.13-6.42,1.35-12.72,1.87-19.1,1.12-14.08,1.08-28.14,3-42.17,3.61-26.52,10.78-54.59,25.23-77.33.92-1.45,1.82-3.79,3.09-4.86,2.14-1.8,1.38-1.46,4.2,0,2.63,1.35,5.22,2.78,7.93,4,5.7,2.48,11.79,3.57,17.74,5.26,6.58,1.87,12.55,4.74,19.38,5.8,6.62,1,13.34,1.15,20,2.19,3.66.57,7,1.78,10.57,2.69,2.9.74,5.74.54,8.79.86,5.89.63,11.63,2.28,17.54,2.81,6.64.6,12.56-.74,19.16,1M567.67,243.18a180.3,180.3,0,0,0,12.71,47.22c2,4.86,4.33,11.65,10.15,13,5.36,1.23,11.87-2.71,16.92-4.09,4,23.56,5.7,48,16.22,69.88,1.32,2.75,3.07,7.89,5.81,9.7s6.18,0,9-1c11.68-4.42,23.75-7.26,35.84-10.32,5.9-1.5,11.91-2.82,17.66-4.82,4.78-1.66,9.3-3.66,14.3-4.56,10.47-1.9,20.19-5.32,30.19-8.85,21-7.41,42.11-14.13,61.48-25.26,9.25-5.31,19-10.52,27.49-16.94,7-5.26,14.83-13.14,11.4-22.7-1-2.89-3.88-7.67-7.15-8.55-3.07-.83-5.83,1.95-8.64,2.59-4.24,1-3.29-2.46-3.69-5.8-.31-2.64-.63-5.27-1-7.91-.67-5.53-1.33-11.07-1.82-16.62-2-23-1.09-46-1.11-69,0-11.53,2.66-21.64,5.35-32.75q2.15-8.85,4-17.75c.69-3.29,1.5-6.91.55-10.25-2.14-7.48-12.8-9.55-19.11-11.68a133.75,133.75,0,0,0-16.55-4.55c-3.08-.61-11.3-.13-13.29-2.72s.21-10.86.41-13.9c.37-5.61.75-11.21,1.49-16.78,1.19-9,1.06-17.33-6.11-23.9,4.47-3.57,7.65-11.14,1.14-14.42-7.48-3.78-17.5-4.33-25.4-2.35-8.65,2.17-18.14,2.2-27,3.15-9.42,1-18.82,2.23-28.22,3.42-16.17,2-32.65,2.49-48.63,5.77-8,1.64-16,2.89-24.07,4.17C609.68,45.87,604.64,47,599.64,54,590.17,67.4,581.42,81.1,576.1,96.7c-5,14.78-7.39,30.31-8.79,45.82a493.69,493.69,0,0,0-1.66,50.15c.19,16.86-.08,33.73,2,50.51"/><path id="Fill-62" class="cls-2" d="M227.89,903.66c1-1.63,3.87-2,5.4-2.64a56.29,56.29,0,0,0,7-3.47c11.26-6.5,22.24-13.13,32.64-21,2.55-1.91,8.82-9,12.51-7.84,1.81.55,2.8,3.55,3.58,5,1.37,2.58,2.8,5.12,4.35,7.6a127.2,127.2,0,0,0,22.28,26.31c16,14.6,34.28,24,56.27,25.15C357.67,952.11,344.1,972.26,328,990c-8.13,9-17.06,17.07-25.5,25.73a12,12,0,0,1-4.12,3.21c-1.84.81-3.59,1.08-5.11,2.59-2.64,2.63-2.83,6.55-2.23,10-15,.58-31.25-6.14-44.86-11.64a199,199,0,0,1-23.38-11.09c-5.1-2.89-10.8-6.11-14.54-10.75,13.76-7.31,27.66-14.27,40.85-22.61,9-5.69,24.91-12.33,23.62-25.46-.2-2-1-4.55-2.81-5.73-2.68-1.74-3.29.32-5.73.84-3.95.86-8.62-4.36-11.63-6.61-8.16-6.08-16.13-12.79-21-21.91-1.45-2.73-5.54-9.79-3.68-13M144.1,1019.92c2.24-7.27-8.19-12.86-12.79-16.36-6.9-5.25-11.7-11.07-16.34-18.4-18.11-28.62-24.53-63.47-23-96.93.41-9.29,1.46-18.56,1.68-27.85.11-4.82-.2-9.31.85-14.08,1-4.5,2.2-9,3.3-13.43,2.21-8.93,3.34-18.08,6-26.91a138.2,138.2,0,0,1,9.68-23.65c2.61-5.06,5-12.16,11.84-11.19,8.5,1.21,16.81,5.59,25.09,7.87,9.16,2.53,18.43,4.65,27.69,6.82,9,2.1,17.7,5.09,26.72,6.91A65.43,65.43,0,0,0,218.93,794c2.09,0,5.85-.24,6,2.63.23,3.13-4.58,6.53-6.55,8.45a25.73,25.73,0,0,0-6.36,8.85c-3.63,8.57-6.92,17.5-8.27,26.74-1.31,9-1.08,18.43-1.18,27.5-.2,18.29,2.39,35.81,9,52.94,5.94,15.5,15.26,26.19,28,36.54q-20,10-40,19.9c-12,6-24.14,11.11-34.4,19.92C161,1001.07,156,1005.26,153,1010c-3.77,5.91,1.53,9.93,7.15,7.56,6.19-2.6,12.27-5.57,18.33-8.46,3.94-1.88,10.52-6.91,15.12-6.79,3.91.11,5.39,5.1,7.13,7.87a60.56,60.56,0,0,0,10.08,11.93,109.58,109.58,0,0,0,27.39,18.45,133.55,133.55,0,0,0,34.7,10.79,96.11,96.11,0,0,0,19.74,1.44c5-.18,12-.2,16.45-2.62,3.85-2.08,1.83-6.33,5.64-8.51,4-2.28,8.26-4,12.14-6.57,9.16-6.07,14.6-13.91,20-23.28,12.34-21.53,27.35-41.2,36.59-64.4,2.16-5.43,3.39-11.84,6.93-16.58,2.35-3.15,7.6-5,8.17-9.17s-1.07-13-5.09-14.85c-4.65-2.16-11.4-2.19-16.44-3.37-21.92-5.11-42.36-12.9-59.83-27.4a135.16,135.16,0,0,1-12.36-11.69c-2.88-3.06-5.9-6.29-5.31-10.82.53-4,3.75-9.89-2.83-11-4.42-.76-10.49,1.57-14.1,3.84-10.79,6.81-20.81,15-31.11,22.53-9.4,6.85-19,13.38-28.57,20,1.12-15.79.6-32.9,4.36-48.31a72,72,0,0,1,9.16-21.17c4.23-6.72,7.61-13.75,11.31-20.76,2.06,1.2,5.43,3.87,7.31.69,1.17-2,.35-7.18-.09-9.46-3.28-16.85-28.88-18.54-42.08-21.41-19-4.14-37.94-9.13-57.15-12.07-8.87-1.36-17.67-1.63-26.6-2.17-4.58-.28-9.92-1.3-12.69,3.33-.75,1.25-.85,3-1.67,4s-2.9,1.8-3.92,2.62a43.18,43.18,0,0,0-7.75,8.23C98.48,778.7,95.34,785.9,92.31,793,85,810.08,80.85,828.23,78.57,846.64,76.23,865.5,74.6,885,75.84,904c2.29,35,11.8,70.56,33.84,98.52,5,6.41,10.56,11.66,17.84,15.47,3.52,1.85,14.6,8.39,16.58,1.92"/><path id="Fill-65" class="cls-2" d="M395.18,1431.5c-6.83,8.78-13.65,17.47-19.75,26.79s-12,18.94-18,28.4c-5.8,9.13-12.27,18-16.93,27.79-2.69,5.64-2.95,13.07-10.33,12.81a63.4,63.4,0,0,1-27.59-7.69,114.46,114.46,0,0,1-42.33-38.27c-11.16-16.9-19.83-36-26.1-55.24-3.47-10.63-6.26-21.47-8.77-32.37-1.28-5.52-2.65-10.93-2.66-16.64,0-2.51.15-5,.28-7.52s1.44-6.5-1.28-6.66c.81-6.81,1.59-13.62,2.43-20.43.6-4.91.56-10.43,4.88-13.68,4.12-3.12,10.59-3.23,15.45-4.33q8.82-2,17.48-4.65c11.82-3.62,23.14-8.43,34.55-13.16a150.2,150.2,0,0,0,16.78-7.8c4.45-2.52,7.63-6.18,10.64-.43,20.52,39.08,35.5,82.88,69.08,113.21,2.72,2.45,7.16,5.39,7.56,9.41s-3.22,7.67-5.39,10.46m27-27.63c-4.73-3.25-10.6-3.78-15.41-6.78-5.5-3.44-9.15-11.19-12.91-16.35-9-12.31-18-24.7-26.07-37.61-7.35-11.73-14-23.88-21.08-35.78a195.36,195.36,0,0,0-11.62-17.7c-1.82-2.41-6.42-10.92-10.31-10.6-2,.16-1.92,2.1-3.35,2.73-.74.32-1.33,0-2.06.07-2.59.35-5.42-1-8.1-.71-6.61.64-13.77,3.42-20.14,5.34-13.29,4-26,9.65-39,14.28s-27.42,7.66-39.26,14.81c-4.67,2.82-10,7.33-5.36,12.86,1.74,2.09,4.13,2,5.94,3.66,1.53,1.37.85,2.13.5,4.41-.21,1.31-.41,2.61-.62,3.92-2.12,13.71-3.85,27.45-1.94,41.31a296.73,296.73,0,0,0,8.79,41.5c12.39,42.84,34.54,93.69,78.07,112.68,10.18,4.44,20.3,5.49,31,7.49,3.38.63,6.24,2.16,9.24,3.71,1.43.74,3.21,1.93,4.94,1.72,3.94-.48,7.18-6.6,9-9.5,6.95-10.93,14.84-21.19,22.06-31.94a172.61,172.61,0,0,0,10.32-17.24c1.77-3.45,3-9.17,7.91-9l3.94,5.25a17.52,17.52,0,0,1,1.71,2.27c1,2,.89.51.48,2.85-.51,3-3.28,6.38-5,8.74-10.25,13.84-20.94,27.34-31.68,40.8-10.55,13.23-21.32,26.36-33.69,38-2.5,2.34-5.24,5.2-8.89,5.36-3.38.14-7.08-1.63-10.44-2.21-7.28-1.27-14.77-1.56-21.88-3.77-3.69-1.14-6.78-3.28-10.61-3.54a16.34,16.34,0,0,1-8.23-2.46c-6.39-3.86-13.48-6-19.94-9.62a137.86,137.86,0,0,1-36.83-30.43c-5.06-6.1-9.21-12.9-14.17-19.07-4.82-6-9.58-12-13.8-18.44a189.06,189.06,0,0,1-20-40.91c-2.62-7.46-3.92-12.33,2.58-17.79a129,129,0,0,0,17-16.71c2.48-3,13.82-14.08,5.33-15.92-4.6-1-11.94,6.76-15.39,9.57-5.63,4.58-11.15,9-17.66,12.3-7.37,3.71-7.5,8.42-7.4,16.13.22,15.89,6.14,31.38,12.28,45.88a213.11,213.11,0,0,0,23.76,42.17c18.18,25.06,38.52,50.48,66.79,64.5,14,6.93,29.07,10.59,44.51,12.32a201.87,201.87,0,0,0,27.48,1.15c3.88-.09,8.93.43,12.65-.75,3-1,3.5-3.18,4.59-5.91,2.58-6.47,9.33-10,13.89-15.17,4.88-5.53,10-10.75,15-16.15,10.86-11.71,18-25.49,26.77-38.71,4.83-7.32,10.05-14.47,14.27-22.17,3.4-6.24,7.64-14.44,8.83-21.48.94-5.61-3.58-13.77-9.79-14.08-3.24-.16-5.84,2.39-9,2.72-1,.1-4.23-.56-5.37-.09,5.22-12.68,13-24.61,18.82-37,3.31-7,6.45-14,9.36-21.13,2.21-5.43,4.85-9.88-.78-13.74"/><path id="Fill-67" class="cls-2" d="M505.7,400.33C516,424,532.45,442.88,549.29,462.1c8.91,10.17,18,19.4,28.81,27.59,10,7.61,20.23,15,30.38,22.52-10.19,13.09-21.63,25.06-33,37.16C565,560.55,554.55,572,547.64,585.78c-.71-6.61-5-10.69-10.79-13.38a99,99,0,0,1-20.12-12c-13.31-10.52-25.69-23-37-35.63C456.67,499.2,442,467,426,436.92l79.74-36.59m-85.18,59.73c3.89,10.94,9.53,21.47,14.69,31.86,5.09,10.24,10.36,20.41,16.3,30.2C462.8,540.7,476.6,558,494.19,571.06c8.62,6.39,17.85,12.75,27.44,17.61,4.53,2.29,9.5,4,14.65,3.75,3.16-.18,7.53-3,10-.49s1.68,7.67,6.94,5.19c4.33-2,8.13-6.37,11.3-9.77,8.09-8.65,16.22-17.35,24-26.28,7.52-8.67,13.71-18.54,20.06-28.06,3.51-5.26,7-10.54,10.46-15.82,2.49-3.78,6-7.56,5.85-12.35-.35-9.33-11.81-15.66-18.31-20.86a176.6,176.6,0,0,1-22.18-20.51c-7.22-8.11-16.32-14.9-24.14-22.5a354.3,354.3,0,0,1-23.77-26.29,232.4,232.4,0,0,1-17.15-22.42c-4-6.15-8.51-10.86-16.51-9.72-6.25,1.44-12.53,2.47-18.56,4.77s-11.9,5.23-17.79,7.94c-10.68,4.92-20.51,11.14-30.88,16.6a51.1,51.1,0,0,0-6.81,4.11c-1.18.87-2.38,2.57-3.63,3.19a12.25,12.25,0,0,1-2.62.66c-4.21,1.18-5.79,3.52-7.89,7.21-3.38,5.93-3.29,9.12-.2,15.2,2.83,5.56,4,12,6.11,17.84"/><path id="Fill-69" class="cls-2" d="M841.65,754.27c2.63,4.21,6.93,2.14,9.39-.86,7.46-9.11,14.44-19,21.14-28.66,6.8-9.85,13-19.81,20.74-29s15.71-18.35,23.75-27.34c30.05-33.61,60.89-66.42,94-96.95,8.1-7.46,16.43-14.75,24.21-22.55,3.42-3.43,7.59-7.24,7.43-12.52-.12-3.77-2.57-8.41-5.86-10.33-7.15-4.18-16.74,6-22.05,9.79-4.06,2.91-8.41,4.43-12.68,6.82a63.91,63.91,0,0,0-10.65,8.14c-7.19,6.41-14.93,11.86-22.22,18.1S954.94,582.54,947.68,589c-7.77,6.94-16.1,12.91-23,20.82s-12.58,16.3-19.69,23.89c-15.15,16.15-27.54,34.4-40.46,52.35-6.23,8.64-10.92,18.11-15.13,27.89-2.1,4.87-4.17,9.76-6.15,14.68-1.88,4.66-2,9.43-2.9,14.32,1.09.21.27,9.61,1.32,11.29"/><path id="Fill-71" class="cls-2" d="M2519.43,1550.27c5.69-6.84,9.43-16.7,13.56-24.59,4.43-8.44,8.54-16.26,10.41-25.67.91-4.52,1.45-9.15,2.48-13.65,1-4.24,2.37-8,2-12.43-.42-4.64-2.58-18.6-9.62-17.06-4.09.9-3.27,5.28-3.29,8.48a37.8,37.8,0,0,1-1.54,10.83c-2.55,8.3-8.62,15.62-12.47,23.41a93.26,93.26,0,0,1-13.72,20.75,148.87,148.87,0,0,1-17.64,17c-5.53,4.5-12.2,7.9-16.22,14-2.41,3.65-2.81,4.75-7.23,5.75a27.44,27.44,0,0,0-9.92,4.25c-3.4,2.41-5.82,5.3-9.8,6.89-3.47,1.38-7.13,2.2-10.63,3.49-8.09,3-15.15,8-23.41,10.85-4.27,1.46-8.61,2.7-12.94,4-3.46,1-7.55,1.75-10.42,4.08-4.8,3.93-7.5,14-3.29,19.18,4.52,5.62,15.14,2.11,21,1.39.08.38.15.76.23,1.15,9.92-2,20.25-3.17,29.89-6.29a78.72,78.72,0,0,0,14.33-6.59c3.94-2.2,8-3,12.2-4.39a17.38,17.38,0,0,0,9.14-6.41c3-4.17,4.29-2.93,8.94-4,7.46-1.63,13.9-10.11,19-15.23,6.26-6.24,13.27-12.42,18.92-19.21"/><path id="Fill-73" class="cls-2" d="M1092.64,346c1.75-2.76,7.82-5.25,10.61-7.05,3.82-2.45,7.58-4.95,11.25-7.61,6.67-4.81,11.33-1.64,17.24,3,10.93,8.51,15.32,19.94,14.5,33.47,0,4,1.09,10.56-2,13.81s-9,2.81-12.8,3.59c-5,1-12.62,7.38-17.83,5.52-4.57-1.63-3-9.78-3.32-13.38a36.78,36.78,0,0,0-7-18.63,38.4,38.4,0,0,0-7.46-7.28c-2.14-1.62-4.92-2.66-3.19-5.4m-20,20.32c4.3.74,8.74,2.74,12.77,4.37,2.67,1.09,6.16,2.1,8.32,4,3.58,3.19,2.13,8.21,3,12.39.48,2.44,1.74,4.54.84,7.07-1.06,3-4.16,3.47-5.73,5.87-2.3,3.52.67,8.49,2.65,11.49,3.45,5.21,8.16,2.55,13.48,1.77,6.4-.94,13-1.2,19.15-3.31,5-1.71,9.19-5.69,13-.4,1.43,2,1.73,3.72,4.54,3,2.34-.62,4.72-3.79,6.33-5.42,10-10.13,12.4-24,12.56-37.64.48-15.17-5-29.42-12.85-42.24-1.64-2.7-3.29-5.81-5.74-7.9s-5.5-2.84-7.66-5.22c-3.23-3.55-2.48-10.74-7.62-12.3-5.42-1.66-13.2,4.91-17.3,7.72-5.78,4-11.42,8.08-17,12.32-11.9,9.08-25.2,17.78-36,28.16-3.65,3.53-5.14,9.75-1.48,14s9.93,1.48,14.7,2.31"/><path id="Fill-75" class="cls-2" d="M1711.35,1453.13a222.68,222.68,0,0,0-10.92-39.28c-3.06-8.27-10-22.51-21.19-21.69-12.28.91-4,16.92-2.86,23.29,4.66,24.92,7.36,50.41,11,75.5,1.83,12.43,2.38,25.24,5.32,37.48a98.46,98.46,0,0,0,6,17.39c1.6,3.58,3.51,8.23,7.52,9.84,12.16,4.9,9.12-16.48,9-21.75q-.49-19.37-1-38.71l1,0c-1.84-14-1.53-28.08-3.93-42"/><path id="Fill-77" class="cls-2" d="M265.29,1687.82c-6.66,2.17-11.6,3.84-18.85,3.16-5.07-.49-10.09-1.52-15.15-2.16a130.3,130.3,0,0,1-37.46-10.61c-10.88-4.88-21.07-10.76-30.06-18.6a158.37,158.37,0,0,1-13.23-13.32c-3-3.33-5.8-5.84-10.49-6.43,1.22,6.74,2.64,12.05,5.86,18.17a106,106,0,0,0,8.86,14.08,102.54,102.54,0,0,0,24.53,23.4c9.25,6.3,19.66,11.64,30.57,14.4,6.09,1.54,12.32,2.46,18.49,3.64,5.82,1.12,11.48,2.24,17.43,1.43,5.56-.77,11.42-1,16.84-2.53,4.27-1.24,8.35-4,12-6.44,7.11-4.84-.64-21-9.34-18.19"/><path id="Fill-79" class="cls-2" d="M482.5,171.91c3.31,4.43,10.41,4.46,9.94-2-.43-6-2.28-11.83-4.2-17.44s-1.56-11.95-1.68-17.93c-.26-14.28.21-28.11,2.89-42.17,2.58-13.53,4.24-27.22,7.26-40.67,3-13.2,8.31-25.67,11.61-38.76,1-4,1.85-11.93-4.07-12.85-4.92-.77-7.82,6.13-9.73,9.39-6.34,10.83-13.18,20.85-16.95,32.93a177.21,177.21,0,0,0-7.14,33.78C469.18,88,469.37,100,468.64,112c1.19,13.83.56,29.15,5,42.42a64.88,64.88,0,0,0,8.85,17.54"/><path id="Fill-82" class="cls-2" d="M2339.6,226.31c-1.95,4.67-2.89,9.65.45,14,6.07,8,15.73-10.17,17.2-15.23,3.19-11,7.19-22,9-33.36,1.82-11.56,1-24,1.24-35.7a243.56,243.56,0,0,0-6.13-41.3c-2.94-12-6.06-24.36-15.83-32.44-4.07-3.37-6.86-.82-7.43,4a26.6,26.6,0,0,0,3.15,15.18c5.62,10.81,5.63,23.46,6.89,35.55,2.5,24,3.91,48-2.39,71.62a140.26,140.26,0,0,1-6.12,17.67"/><path id="Fill-84" class="cls-2" d="M276.29,495a146.94,146.94,0,0,0,5,16.15,136.16,136.16,0,0,0,15.14,28.91,162.62,162.62,0,0,0,38.48,39.2c4.84,3.43,16.6,13,22.89,9.81,8.61-4.37-2.91-15.53-6.41-18.8-7.21-6.74-14.38-13.54-21.67-20.2s-12.76-15.24-18.53-23.25-11.49-16.22-16.76-24.65c-2.72-4.36-5.1-8.94-7.8-13.31-2.34-3.77-5.81-6.36-8.83-9.55-2.5,1.2-2.21,1-2.86,3.26a17.52,17.52,0,0,0-.17,3.87,36.74,36.74,0,0,0,1.54,8.56"/><path id="Fill-86" class="cls-2" d="M894.29,579.67c13.65-12.37,28.64-22.82,41.53-36,3.25-3.31,5.76-5.25,2.95-9.78-1.88-3-4-4.56-7.2-2.49-7.58,5-14.79,11-22.09,16.45-15,11.07-30.49,21.93-44,34.77A119.47,119.47,0,0,0,849,601.76c-5,7.32-8.74,14.74-3.17,23,16.23-14.93,32.15-30.25,48.5-45"/><path id="Fill-88" class="cls-2" d="M2557.61,1596.86c-2.44-.6-6.51,2.1-8.33,3.3-7.24,4.77-14.73,9.18-22.06,13.83-6.74,4.28-13.4,8.69-20,13.14-5.53,3.7-9.16,8.24-7.21,15.23.89,3.19,2.36,6.92,6.06,5.1a67.24,67.24,0,0,1,8-3.7c7.51-2.67,15.09-5.29,22.11-9.13,12.17-6.65,23.56-16.93,25.19-31.43-.9-2-1.16-5.7-3.77-6.34"/><path id="Fill-90" class="cls-2" d="M1758,1450.65c-2.48-2.7-5.51-2.73-6.82.53s.4,9.12.88,12.45q1.18,8.19,2.58,16.34c.54,3.17.94,13,5.11,14.31,6.39,2,6.54-13.57,7.09-16.73-1.34-4.59-2.62-9.2-4-13.79-1.19-4-1.91-9.88-4.86-13.11"/><path id="Fill-92" class="cls-2" d="M682,1182.6c-1.53-.73-2.71-.41-3-2.23-.27-1.51,2.1-3.09,2.46-4.38,1.31-4.67-3.59.24-5.37,1.72q2.52,6.24,5.06,12.47l5.72-2.29c-1.83-2.47-2.06-4-4.84-5.29"/><path id="Fill-94" class="cls-2" d="M1575.68,430.46c3.18,1.05,7.84-.38,11.09-1a55.86,55.86,0,0,0,9.64-2.61c7.37-2.88,6.74-11.59,5-18.37-2.29-9.13-7.4-17.86-11.45-26.29-2.1-4.38-4.13-8.76-6-13.24-1.44-3.38-3.35-8.11-7.72-8.15-6.75-.05-3.46,15.84-2.39,19.62,2.7,9.53,7.71,18.31,11.9,27.21-3.87.26-7.85.77-11.7.64-4-.13-5.11,0-6.09,4.46-1.41,6.48.54,15.35,7.72,17.71"/><path id="Fill-96" class="cls-2" d="M1514.86,352.57c7.27-.44,14.51-1.21,21.75-2,5.32-.6,14.6-.71,18.39-4.91,2.59-2.89,2.14-9-.14-12-2.69-3.53-9-2.14-13-2.14-10.8.18-21.27,1.62-30.93,6.38-3.54,1.75-11.52,4.93-10.68,9.69,1.07,6,10.15,5.31,14.6,5"/><path id="Fill-98" class="cls-2" d="M1545.14,436.39c-6.07,1.53-4.91,11.92-3,16.29,2.8,6.54,9.87,8.13,16.36,7.71,3.12-.31,7.61.81,10-1.8s2.28-7.76.64-10.65c-2.16-3.82-7.77-6-11.56-7.77-3.3-1.54-8.56-4.73-12.36-3.78"/><path id="Fill-100" class="cls-2" d="M1545.94,382.36c.48-5.95-2.93-19.33-10.87-18.83-3.78.24-7,5.64-7.69,9-.72,3.5.28,7,1.2,10.39,1.51,5.53,3.77,14.05,11.12,12.83,6.09-1,6.26-8.31,6.24-13.35"/><path id="Fill-102" class="cls-2" d="M1603.25,388.36c1.61,1.56,4,2.72,6.21,1.7,3.32-1.51,2.75-5.5,2.75-8.34l1.11-.36c-1.88-5.23-3.12-16.17-9.67-17.65s-6.9,5.68-6.29,10.14c.64,4.75,2.27,11,5.89,14.51"/><path id="Fill-104" class="cls-2" d="M1401.18,387.75c-3.19.32-9.2,1.8-8.68,5.8.75,5.84,9.91,6.88,14.55,7.45,5.51.67,13.14.11,7.9-6.78-3.19-4.21-8.52-6.06-13.77-6.47"/><path id="Fill-108" class="cls-2" d="M1132,1085.16l-3.43,6.71,10.77,1.37c.15-2.85-5.43-6.38-7.34-8.08"/></g></g></g></g></g></svg>